<?xml version="1.0" encoding="utf-8"?>
<!-- Generator: Adobe Illustrator 24.0.1, SVG Export Plug-In . SVG Version: 6.00 Build 0)  -->
<svg version="1.1" id="shema_1" xmlns="http://www.w3.org/2000/svg" xmlns:xlink="http://www.w3.org/1999/xlink" x="0px" y="0px"
	 viewBox="0 0 690 477" style="enable-background:new 0 0 690 477;" xml:space="preserve">
<style type="text/css">
	.st0{fill:#FCFCFC;}
	.st1{fill:#B3D9DB;}
	.st2{fill:#E5E5E5;}
	.st3{fill:#20282C;}
	.st4{fill:#3F8488;}
	.st5{fill:#E25D5D;}
	.st6{fill:none;stroke:#E25D5D;stroke-miterlimit:10;}
	.st7{fill:none;}
	.st8{fill:#78D3D5;}
	.st9{fill:#FFFFFF;}
	.st10{opacity:0.5;}
</style>
<rect x="0" y="0" class="st0" width="690" height="477"/>
<g>
	<g>
		<polygon class="st1" points="622.86,278.01 622.86,219.15 626.05,218.93 626.05,278.21 		"/>
		<path class="st2" d="M625.46,219.58v58l-2-0.12v-57.73L625.46,219.58 M626.66,218.29l-1.28,0.09l-2,0.14l-1.12,0.08v1.12v57.73
			v1.13l1.13,0.07l2,0.12l1.27,0.08v-1.28v-58V218.29L626.66,218.29z"/>
	</g>
	<g>
		<path class="st1" d="M567.95,106.44c-23.44-17.38-51.26-26.57-80.44-26.57h-88.39v-3.2h88.39c29.78,0,58.18,9.35,82.14,27.04
			l0.42,0.31l-1.57,2.82L567.95,106.44z"/>
		<path class="st2" d="M487.5,77.27c30.59,0,58.88,10.01,81.78,26.93l-0.98,1.76c-22.6-16.76-50.56-26.69-80.8-26.69h-87.79v-2
			H487.5 M487.5,76.07h-87.79h-1.2v1.2v2v1.2h1.2h87.79c29.05,0,56.75,9.15,80.09,26.45l1.1,0.82l0.66-1.2l0.98-1.76l0.51-0.92
			l-0.85-0.63C545.94,85.46,517.41,76.07,487.5,76.07L487.5,76.07z"/>
	</g>
	<g>
		<path class="st1" d="M143.85,417.61c-14.74,0-29.12-4.19-41.56-12.12l-0.55-0.35l1.95-2.55l0.46,0.29
			c11.9,7.54,25.63,11.52,39.7,11.52h153.26v3.2H143.85z"/>
		<path class="st2" d="M103.83,403.4c11.59,7.34,25.31,11.61,40.02,11.61h152.66v2H143.85c-15.16,0-29.31-4.42-41.24-12.02
			L103.83,403.4 M103.55,401.8l-0.67,0.87l-1.22,1.59l-0.79,1.04l1.1,0.7c12.54,7.99,27.03,12.21,41.89,12.21h152.66h1.2v-1.2v-2
			v-1.2h-1.2H143.85c-13.96,0-27.58-3.95-39.38-11.43L103.55,401.8L103.55,401.8z"/>
	</g>
	<g>
		<path class="st1" d="M124.05,102.68l0.48-0.34c23.55-16.79,51.3-25.66,80.25-25.66h92.33v3.2h-92.33
			c-28.29,0-55.4,8.67-78.41,25.08l-0.5,0.35L124.05,102.68z"/>
		<path class="st2" d="M296.51,77.27v2h-91.73c-29.33,0-56.52,9.34-78.76,25.2l-1.14-1.64c22.56-16.08,50.14-25.55,79.9-25.55
			H296.51 M297.71,76.07h-1.2h-91.73c-29.07,0-56.94,8.91-80.59,25.78l-0.96,0.69l0.67,0.97l1.14,1.64l0.69,1l0.99-0.71
			c22.91-16.34,49.9-24.97,78.06-24.97h91.73h1.2v-1.2v-2V76.07L297.71,76.07z"/>
	</g>
	<g>
		<path class="st1" d="M399.11,417.61v-3.2h149.32c12.23,0,24.37-3.05,35.11-8.82l0.52-0.28l1.55,2.8l-0.53,0.29
			c-11.21,6.03-23.88,9.21-36.64,9.21H399.11z"/>
		<path class="st2" d="M583.82,406.12l0.97,1.75c-10.84,5.83-23.22,9.14-36.36,9.14H399.71v-2h148.72
			C561.22,415.01,573.27,411.79,583.82,406.12 M584.3,404.5l-1.05,0.56c-10.65,5.72-22.7,8.75-34.82,8.75H399.71h-1.2v1.2v2v1.2h1.2
			h148.72c12.86,0,25.63-3.21,36.93-9.29l1.07-0.57l-0.59-1.06l-0.97-1.75L584.3,404.5L584.3,404.5z"/>
	</g>
</g>
<g>
	<path class="st3" d="M97.78,45.23H92.8v4.07h5.79v1.24h-7.3v-11.5h7.22v1.24H92.8v3.7h4.98V45.23z"/>
	<path class="st3" d="M109.31,50.55h-1.52L102,41.69v8.86h-1.52v-11.5H102l5.8,8.9v-8.9h1.51V50.55z"/>
	<path class="st3" d="M120.49,49.04c-0.39,0.56-0.93,0.98-1.63,1.25c-0.7,0.28-1.51,0.41-2.44,0.41c-0.94,0-1.77-0.22-2.5-0.66
		s-1.29-1.06-1.69-1.88s-0.6-1.75-0.61-2.82v-1c0-1.73,0.4-3.07,1.21-4.03c0.81-0.95,1.94-1.43,3.41-1.43c1.2,0,2.17,0.31,2.9,0.92
		c0.73,0.61,1.18,1.48,1.34,2.61h-1.52c-0.28-1.53-1.19-2.29-2.72-2.29c-1.02,0-1.79,0.36-2.31,1.07c-0.52,0.71-0.79,1.75-0.79,3.1
		v0.94c0,1.29,0.29,2.32,0.88,3.08c0.59,0.76,1.39,1.14,2.39,1.14c0.57,0,1.07-0.06,1.49-0.19c0.43-0.13,0.78-0.34,1.06-0.64v-2.58
		h-2.66v-1.24h4.17V49.04z"/>
	<path class="st3" d="M129.36,47.54h-4.82l-1.08,3.01h-1.56l4.39-11.5h1.33l4.4,11.5h-1.56L129.36,47.54z M125.01,46.3h3.91
		l-1.96-5.38L125.01,46.3z"/>
	<path class="st3" d="M141.97,49.04c-0.39,0.56-0.93,0.98-1.63,1.25c-0.7,0.28-1.51,0.41-2.44,0.41c-0.94,0-1.77-0.22-2.5-0.66
		s-1.29-1.06-1.69-1.88s-0.6-1.75-0.61-2.82v-1c0-1.73,0.4-3.07,1.21-4.03c0.81-0.95,1.94-1.43,3.41-1.43c1.2,0,2.17,0.31,2.9,0.92
		c0.73,0.61,1.18,1.48,1.34,2.61h-1.52c-0.28-1.53-1.19-2.29-2.72-2.29c-1.02,0-1.79,0.36-2.31,1.07c-0.52,0.71-0.79,1.75-0.79,3.1
		v0.94c0,1.29,0.29,2.32,0.88,3.08c0.59,0.76,1.39,1.14,2.39,1.14c0.57,0,1.07-0.06,1.49-0.19c0.43-0.13,0.78-0.34,1.06-0.64v-2.58
		h-2.66v-1.24h4.17V49.04z"/>
	<path class="st3" d="M150.99,45.23h-4.98v4.07h5.79v1.24h-7.3v-11.5h7.22v1.24h-5.71v3.7h4.98V45.23z"/>
	<path class="st3" d="M160.16,46.92l0.22,1.52l0.32-1.37l2.27-8.02h1.28l2.22,8.02l0.32,1.39l0.25-1.55l1.78-7.86h1.52l-2.79,11.5
		h-1.38l-2.37-8.38l-0.18-0.88l-0.18,0.88l-2.46,8.38h-1.38l-2.78-11.5h1.52L160.16,46.92z"/>
	<path class="st3" d="M173.66,50.55h-1.52v-11.5h1.52V50.55z"/>
	<path class="st3" d="M184.14,40.29h-3.69v10.26h-1.51V40.29h-3.69v-1.24h8.89V40.29z"/>
	<path class="st3" d="M194.68,50.55h-1.52v-5.31h-5.8v5.31h-1.52v-11.5h1.52v4.94h5.8v-4.94h1.52V50.55z"/>
	<path class="st3" d="M201.38,50.55v-11.5h3.76c1.25,0,2.19,0.26,2.81,0.77c0.63,0.52,0.94,1.28,0.94,2.29
		c0,0.54-0.15,1.01-0.46,1.42c-0.31,0.41-0.72,0.73-1.25,0.96c0.62,0.17,1.11,0.5,1.47,0.99c0.36,0.49,0.54,1.07,0.54,1.74
		c0,1.03-0.33,1.84-1,2.43s-1.61,0.88-2.83,0.88H201.38z M202.89,43.95h2.29c0.66,0,1.19-0.17,1.59-0.5c0.4-0.33,0.6-0.78,0.6-1.35
		c0-0.63-0.18-1.09-0.55-1.38c-0.37-0.29-0.93-0.43-1.68-0.43h-2.24V43.95z M202.89,45.17v4.14h2.5c0.71,0,1.26-0.18,1.67-0.55
		c0.41-0.37,0.61-0.87,0.61-1.51c0-1.38-0.75-2.08-2.26-2.08H202.89z"/>
	<path class="st3" d="M219.54,39.05v7.82c-0.01,1.08-0.35,1.97-1.02,2.66c-0.68,0.69-1.59,1.08-2.75,1.16l-0.4,0.02
		c-1.26,0-2.26-0.34-3.01-1.02c-0.75-0.68-1.13-1.61-1.14-2.8v-7.83h1.5v7.78c0,0.83,0.23,1.48,0.69,1.94s1.11,0.69,1.96,0.69
		c0.86,0,1.51-0.23,1.97-0.69s0.68-1.1,0.68-1.93v-7.79H219.54z"/>
	<path class="st3" d="M223.56,50.55h-1.52v-11.5h1.52V50.55z"/>
	<path class="st3" d="M227.85,49.31h5.45v1.24h-6.97v-11.5h1.52V49.31z"/>
	<path class="st3" d="M235.03,50.55v-11.5h3.24c1,0,1.88,0.22,2.65,0.66c0.77,0.44,1.36,1.07,1.78,1.89s0.63,1.75,0.64,2.81v0.73
		c0,1.08-0.21,2.03-0.63,2.85s-1.02,1.44-1.79,1.88c-0.78,0.44-1.68,0.66-2.71,0.67H235.03z M236.54,40.29v9.02h1.6
		c1.17,0,2.08-0.36,2.73-1.09s0.98-1.76,0.98-3.11v-0.67c0-1.31-0.31-2.32-0.92-3.05c-0.61-0.72-1.48-1.09-2.61-1.1H236.54z"/>
	<path class="st3" d="M252.13,45.23h-4.98v4.07h5.79v1.24h-7.3v-11.5h7.22v1.24h-5.71v3.7h4.98V45.23z"/>
	<path class="st3" d="M259.04,45.9h-2.7v4.65h-1.52v-11.5h3.81c1.29,0,2.29,0.29,2.99,0.88c0.7,0.59,1.04,1.45,1.04,2.57
		c0,0.72-0.19,1.34-0.58,1.87c-0.39,0.53-0.93,0.93-1.61,1.19l2.7,4.88v0.09h-1.63L259.04,45.9z M256.34,44.66h2.33
		c0.75,0,1.35-0.19,1.8-0.58s0.67-0.91,0.67-1.57c0-0.71-0.21-1.26-0.64-1.64c-0.42-0.38-1.04-0.57-1.84-0.58h-2.32V44.66z"/>
	<path class="st3" d="M268.16,45.42c-1.3-0.37-2.25-0.83-2.84-1.38c-0.59-0.54-0.89-1.22-0.89-2.02c0-0.91,0.36-1.65,1.08-2.25
		c0.72-0.59,1.67-0.89,2.82-0.89c0.79,0,1.49,0.15,2.11,0.46c0.62,0.31,1.1,0.73,1.44,1.26c0.34,0.54,0.51,1.12,0.51,1.76h-1.52
		c0-0.7-0.22-1.25-0.66-1.64c-0.44-0.4-1.07-0.6-1.87-0.6c-0.75,0-1.33,0.17-1.75,0.49c-0.42,0.33-0.63,0.79-0.63,1.37
		c0,0.47,0.2,0.87,0.6,1.19c0.4,0.32,1.07,0.62,2.03,0.89c0.96,0.27,1.7,0.56,2.24,0.89c0.54,0.32,0.94,0.7,1.2,1.13
		c0.26,0.43,0.39,0.94,0.39,1.52c0,0.93-0.36,1.68-1.09,2.24s-1.7,0.84-2.91,0.84c-0.79,0-1.53-0.15-2.21-0.45
		c-0.68-0.3-1.21-0.72-1.58-1.24s-0.56-1.12-0.56-1.79h1.52c0,0.69,0.26,1.24,0.77,1.65c0.51,0.4,1.2,0.6,2.06,0.6
		c0.8,0,1.41-0.16,1.84-0.49c0.43-0.33,0.64-0.77,0.64-1.33c0-0.56-0.2-1-0.59-1.31C269.92,46.03,269.2,45.72,268.16,45.42z"/>
	<path class="st3" d="M100.13,64.57c0,1.13-0.19,2.11-0.57,2.95c-0.38,0.84-0.92,1.48-1.61,1.92c-0.69,0.44-1.51,0.66-2.43,0.66
		c-0.91,0-1.71-0.22-2.41-0.67c-0.7-0.44-1.24-1.08-1.63-1.9s-0.59-1.78-0.6-2.86v-0.83c0-1.11,0.19-2.08,0.58-2.93
		s0.93-1.5,1.63-1.95c0.7-0.45,1.51-0.67,2.41-0.67c0.92,0,1.73,0.22,2.44,0.67s1.24,1.09,1.62,1.93c0.38,0.85,0.57,1.83,0.57,2.95
		V64.57z M98.62,63.83c0-1.36-0.27-2.41-0.82-3.14c-0.55-0.73-1.31-1.09-2.3-1.09c-0.96,0-1.71,0.36-2.26,1.09
		c-0.55,0.73-0.83,1.74-0.85,3.04v0.84c0,1.32,0.28,2.36,0.83,3.11c0.56,0.76,1.32,1.13,2.29,1.13c0.98,0,1.74-0.36,2.27-1.07
		c0.54-0.71,0.81-1.74,0.83-3.07V63.83z"/>
	<path class="st3" d="M106.62,65.3h-2.7v4.65h-1.52v-11.5h3.81c1.29,0,2.29,0.29,2.99,0.88c0.7,0.59,1.05,1.45,1.05,2.57
		c0,0.72-0.19,1.34-0.58,1.87c-0.39,0.53-0.93,0.93-1.61,1.19l2.7,4.88v0.09h-1.63L106.62,65.3z M103.92,64.06h2.33
		c0.75,0,1.35-0.19,1.8-0.58s0.67-0.91,0.67-1.57c0-0.71-0.21-1.26-0.64-1.64c-0.42-0.38-1.04-0.57-1.84-0.58h-2.32V64.06z"/>
	<path class="st3" d="M122.71,66.94h-4.82l-1.08,3.01h-1.56l4.39-11.5h1.33l4.4,11.5h-1.56L122.71,66.94z M118.35,65.7h3.91
		l-1.96-5.38L118.35,65.7z"/>
	<path class="st3" d="M135.74,69.95h-1.52l-5.79-8.86v8.86h-1.52v-11.5h1.52l5.8,8.9v-8.9h1.51V69.95z"/>
	<path class="st3" d="M147.28,64.57c0,1.13-0.19,2.11-0.57,2.95c-0.38,0.84-0.92,1.48-1.61,1.92c-0.69,0.44-1.51,0.66-2.43,0.66
		c-0.91,0-1.71-0.22-2.41-0.67c-0.7-0.44-1.24-1.08-1.63-1.9s-0.59-1.78-0.6-2.86v-0.83c0-1.11,0.19-2.08,0.58-2.93
		s0.93-1.5,1.63-1.95c0.7-0.45,1.51-0.67,2.41-0.67c0.92,0,1.73,0.22,2.44,0.67s1.24,1.09,1.62,1.93c0.38,0.85,0.57,1.83,0.57,2.95
		V64.57z M145.77,63.83c0-1.36-0.27-2.41-0.82-3.14c-0.55-0.73-1.31-1.09-2.3-1.09c-0.96,0-1.71,0.36-2.26,1.09
		c-0.55,0.73-0.83,1.74-0.85,3.04v0.84c0,1.32,0.28,2.36,0.83,3.11c0.56,0.76,1.32,1.13,2.29,1.13c0.98,0,1.74-0.36,2.27-1.07
		c0.54-0.71,0.81-1.74,0.83-3.07V63.83z"/>
	<path class="st3" d="M157.28,59.69h-3.69v10.26h-1.51V59.69h-3.69v-1.24h8.89V59.69z"/>
	<path class="st3" d="M167.82,69.95h-1.52v-5.31h-5.8v5.31h-1.52v-11.5h1.52v4.94h5.8v-4.94h1.52V69.95z"/>
	<path class="st3" d="M177.01,64.64h-4.98v4.07h5.79v1.24h-7.3v-11.5h7.22v1.24h-5.71v3.7h4.98V64.64z"/>
	<path class="st3" d="M183.92,65.3h-2.7v4.65h-1.52v-11.5h3.81c1.29,0,2.29,0.29,2.99,0.88c0.7,0.59,1.05,1.45,1.05,2.57
		c0,0.72-0.19,1.34-0.58,1.87c-0.39,0.53-0.93,0.93-1.61,1.19l2.7,4.88v0.09h-1.63L183.92,65.3z M181.22,64.06h2.33
		c0.75,0,1.35-0.19,1.8-0.58s0.67-0.91,0.67-1.57c0-0.71-0.21-1.26-0.64-1.64c-0.42-0.38-1.04-0.57-1.84-0.58h-2.32V64.06z"/>
	<path class="st3" d="M193.66,69.95v-11.5h3.24c1,0,1.88,0.22,2.65,0.66c0.77,0.44,1.36,1.07,1.78,1.89s0.63,1.75,0.64,2.81v0.73
		c0,1.08-0.21,2.03-0.63,2.85s-1.02,1.44-1.79,1.88c-0.78,0.44-1.68,0.66-2.71,0.67H193.66z M195.18,59.69v9.02h1.6
		c1.17,0,2.08-0.36,2.73-1.09s0.98-1.76,0.98-3.11v-0.67c0-1.31-0.31-2.32-0.92-3.05c-0.61-0.72-1.48-1.09-2.61-1.1H195.18z"/>
	<path class="st3" d="M210.77,64.64h-4.98v4.07h5.79v1.24h-7.3v-11.5h7.22v1.24h-5.71v3.7h4.98V64.64z"/>
	<path class="st3" d="M219.96,64.64h-4.98v4.07h5.79v1.24h-7.3v-11.5h7.22v1.24h-5.71v3.7h4.98V64.64z"/>
	<path class="st3" d="M222.65,69.95v-11.5h3.24c1,0,1.88,0.22,2.65,0.66c0.77,0.44,1.36,1.07,1.78,1.89s0.63,1.75,0.64,2.81v0.73
		c0,1.08-0.21,2.03-0.63,2.85s-1.02,1.44-1.79,1.88c-0.78,0.44-1.68,0.66-2.71,0.67H222.65z M224.16,59.69v9.02h1.6
		c1.17,0,2.08-0.36,2.73-1.09s0.98-1.76,0.98-3.11v-0.67c0-1.31-0.31-2.32-0.92-3.05c-0.61-0.72-1.48-1.09-2.61-1.1H224.16z"/>
</g>
<g>
	<path class="st3" d="M464.7,432.59H462v4.65h-1.52v-11.5h3.81c1.29,0,2.29,0.29,2.99,0.88s1.05,1.45,1.05,2.57
		c0,0.72-0.19,1.34-0.58,1.87c-0.39,0.53-0.92,0.93-1.61,1.19l2.7,4.88v0.09h-1.63L464.7,432.59z M462,431.35h2.33
		c0.75,0,1.35-0.2,1.8-0.59c0.44-0.39,0.67-0.91,0.67-1.57c0-0.71-0.21-1.26-0.64-1.64s-1.04-0.57-1.83-0.58H462V431.35z"/>
	<path class="st3" d="M476.94,431.93h-4.98V436h5.79v1.24h-7.3v-11.5h7.22v1.24h-5.71v3.7h4.98V431.93z"/>
	<path class="st3" d="M479.63,437.24v-11.5h3.25c1,0,1.88,0.22,2.65,0.66c0.77,0.44,1.36,1.07,1.78,1.89
		c0.42,0.82,0.63,1.75,0.64,2.81v0.73c0,1.08-0.21,2.03-0.63,2.85c-0.42,0.82-1.02,1.44-1.79,1.88c-0.78,0.44-1.68,0.66-2.71,0.67
		H479.63z M481.15,426.99V436h1.59c1.17,0,2.08-0.36,2.73-1.09c0.65-0.73,0.98-1.76,0.98-3.11v-0.67c0-1.31-0.31-2.32-0.92-3.05
		c-0.61-0.72-1.48-1.09-2.61-1.1H481.15z"/>
	<path class="st3" d="M496.73,431.93h-4.98V436h5.79v1.24h-7.3v-11.5h7.22v1.24h-5.71v3.7h4.98V431.93z"/>
	<path class="st3" d="M505.92,431.93h-4.98V436h5.79v1.24h-7.3v-11.5h7.22v1.24h-5.71v3.7h4.98V431.93z"/>
	<path class="st3" d="M510.57,425.75l3.76,9.38l3.76-9.38h1.97v11.5h-1.52v-4.48l0.14-4.83l-3.77,9.31h-1.16l-3.77-9.29l0.15,4.81
		v4.48h-1.52v-11.5H510.57z"/>
</g>
<g>
	<g>
		<path class="st4" d="M66.66,188.59l0.23,1.54l0.33-1.39l2.31-8.16h1.3l2.26,8.16l0.32,1.41l0.25-1.58l1.82-8h1.55l-2.84,11.7
			h-1.41l-2.41-8.53l-0.19-0.89L70,183.75l-2.5,8.53H66.1l-2.83-11.7h1.54L66.66,188.59z"/>
		<path class="st4" d="M77.86,187.85c0-0.85,0.17-1.62,0.5-2.3c0.33-0.68,0.8-1.21,1.4-1.58c0.6-0.37,1.28-0.55,2.05-0.55
			c1.18,0,2.14,0.41,2.87,1.23c0.73,0.82,1.1,1.91,1.1,3.27v0.1c0,0.85-0.16,1.61-0.49,2.28s-0.79,1.2-1.39,1.57
			s-1.3,0.56-2.08,0.56c-1.18,0-2.13-0.41-2.87-1.23c-0.73-0.82-1.1-1.9-1.1-3.25V187.85z M79.36,188.03c0,0.96,0.22,1.74,0.67,2.32
			s1.05,0.88,1.8,0.88c0.76,0,1.35-0.3,1.8-0.89c0.44-0.59,0.67-1.42,0.67-2.49c0-0.95-0.23-1.73-0.68-2.32
			c-0.45-0.59-1.05-0.89-1.8-0.89c-0.73,0-1.33,0.29-1.78,0.88C79.58,186.1,79.36,186.94,79.36,188.03z"/>
		<path class="st4" d="M91.84,184.92c-0.23-0.04-0.47-0.06-0.73-0.06c-0.98,0-1.64,0.42-1.98,1.25v6.17h-1.49v-8.7h1.45l0.02,1
			c0.49-0.78,1.18-1.17,2.07-1.17c0.29,0,0.51,0.04,0.66,0.11V184.92z"/>
		<path class="st4" d="M95.64,188.25l-0.93,0.97v3.05h-1.49v-12.34h1.49v7.47l0.8-0.96l2.71-2.86h1.81l-3.38,3.63l3.78,5.06h-1.74
			L95.64,188.25z"/>
		<path class="st4" d="M45.23,206.62h-5.07v4.15h5.89v1.26h-7.43v-11.7h7.35v1.26h-5.81v3.77h5.07V206.62z"/>
		<path class="st4" d="M49.15,203.33l0.05,1.09c0.66-0.84,1.53-1.25,2.6-1.25c1.84,0,2.76,1.04,2.78,3.11v5.75h-1.49v-5.75
			c-0.01-0.63-0.15-1.09-0.43-1.39c-0.28-0.3-0.72-0.45-1.31-0.45c-0.48,0-0.91,0.13-1.27,0.39s-0.65,0.59-0.85,1.01v6.2h-1.49v-8.7
			H49.15z"/>
		<path class="st4" d="M56.47,207.61c0-1.36,0.31-2.43,0.94-3.23c0.63-0.8,1.46-1.2,2.49-1.2c1.06,0,1.89,0.38,2.48,1.13l0.07-0.96
			h1.36v8.49c0,1.13-0.33,2.01-1,2.66c-0.67,0.65-1.56,0.97-2.69,0.97c-0.63,0-1.24-0.13-1.84-0.4c-0.6-0.27-1.06-0.63-1.37-1.1
			l0.77-0.89c0.64,0.79,1.42,1.18,2.34,1.18c0.72,0,1.29-0.2,1.69-0.61c0.4-0.41,0.61-0.98,0.61-1.72v-0.75
			c-0.59,0.69-1.41,1.03-2.43,1.03c-1.02,0-1.84-0.41-2.47-1.23C56.78,210.14,56.47,209.02,56.47,207.61z M57.96,207.78
			c0,0.98,0.2,1.75,0.6,2.31c0.4,0.56,0.96,0.84,1.69,0.84c0.94,0,1.63-0.43,2.06-1.28v-3.97c-0.46-0.83-1.14-1.25-2.05-1.25
			c-0.72,0-1.29,0.28-1.7,0.84S57.96,206.67,57.96,207.78z"/>
		<path class="st4" d="M71.42,212.03c-0.09-0.17-0.16-0.48-0.21-0.92c-0.69,0.72-1.52,1.08-2.48,1.08c-0.86,0-1.56-0.24-2.11-0.73
			c-0.55-0.48-0.82-1.1-0.82-1.84c0-0.91,0.34-1.61,1.03-2.11c0.69-0.5,1.66-0.75,2.9-0.75h1.45v-0.68c0-0.52-0.16-0.93-0.47-1.24
			s-0.77-0.46-1.37-0.46c-0.53,0-0.98,0.13-1.33,0.4c-0.36,0.27-0.54,0.59-0.54,0.97h-1.49c0-0.43,0.15-0.85,0.46-1.26
			c0.31-0.4,0.73-0.72,1.25-0.96c0.53-0.24,1.11-0.35,1.74-0.35c1,0,1.79,0.25,2.35,0.75s0.86,1.19,0.88,2.07v4
			c0,0.8,0.1,1.43,0.31,1.9v0.13H71.42z M68.95,210.89c0.47,0,0.91-0.12,1.33-0.36s0.72-0.55,0.91-0.94v-1.78h-1.17
			c-1.82,0-2.73,0.53-2.73,1.6c0,0.47,0.16,0.83,0.47,1.09C68.07,210.76,68.47,210.89,68.95,210.89z"/>
		<path class="st4" d="M74.65,207.61c0-1.36,0.31-2.43,0.94-3.23c0.63-0.8,1.46-1.2,2.49-1.2c1.06,0,1.89,0.38,2.48,1.13l0.07-0.96
			H82v8.49c0,1.13-0.33,2.01-1,2.66c-0.67,0.65-1.56,0.97-2.69,0.97c-0.63,0-1.24-0.13-1.84-0.4c-0.6-0.27-1.06-0.63-1.37-1.1
			l0.77-0.89c0.64,0.79,1.42,1.18,2.34,1.18c0.72,0,1.29-0.2,1.69-0.61c0.4-0.41,0.61-0.98,0.61-1.72v-0.75
			c-0.59,0.69-1.41,1.03-2.43,1.03c-1.02,0-1.84-0.41-2.47-1.23C74.97,210.14,74.65,209.02,74.65,207.61z M76.15,207.78
			c0,0.98,0.2,1.75,0.6,2.31c0.4,0.56,0.96,0.84,1.69,0.84c0.94,0,1.63-0.43,2.06-1.28v-3.97c-0.46-0.83-1.14-1.25-2.05-1.25
			c-0.72,0-1.29,0.28-1.7,0.84S76.15,206.67,76.15,207.78z"/>
		<path class="st4" d="M87.85,212.19c-1.18,0-2.14-0.39-2.88-1.16c-0.74-0.77-1.11-1.81-1.11-3.11v-0.27c0-0.86,0.16-1.63,0.49-2.31
			s0.79-1.21,1.38-1.59c0.59-0.38,1.23-0.57,1.92-0.57c1.13,0,2.01,0.37,2.64,1.12c0.63,0.74,0.94,1.81,0.94,3.2v0.62h-5.89
			c0.02,0.86,0.27,1.55,0.75,2.08s1.09,0.79,1.83,0.79c0.53,0,0.97-0.11,1.33-0.32s0.68-0.5,0.96-0.85l0.91,0.71
			C90.4,211.63,89.3,212.19,87.85,212.19z M87.66,204.39c-0.6,0-1.1,0.22-1.51,0.65c-0.41,0.44-0.66,1.05-0.76,1.84h4.36v-0.11
			c-0.04-0.76-0.25-1.34-0.61-1.76C88.78,204.6,88.28,204.39,87.66,204.39z"/>
		<path class="st4" d="M94.36,203.33l0.04,0.96c0.64-0.75,1.5-1.13,2.58-1.13c1.22,0,2.04,0.47,2.48,1.4
			c0.29-0.42,0.67-0.76,1.13-1.01c0.46-0.26,1.01-0.39,1.64-0.39c1.91,0,2.88,1.01,2.91,3.03v5.83h-1.49v-5.74
			c0-0.62-0.14-1.09-0.43-1.39c-0.28-0.31-0.76-0.46-1.43-0.46c-0.55,0-1.01,0.16-1.37,0.49c-0.36,0.33-0.58,0.77-0.63,1.33v5.77
			h-1.5v-5.7c0-1.26-0.62-1.9-1.86-1.9c-0.98,0-1.64,0.42-2,1.25v6.35h-1.49v-8.7H94.36z"/>
		<path class="st4" d="M110.99,212.19c-1.18,0-2.14-0.39-2.88-1.16c-0.74-0.77-1.11-1.81-1.11-3.11v-0.27
			c0-0.86,0.16-1.63,0.49-2.31s0.79-1.21,1.38-1.59c0.59-0.38,1.23-0.57,1.92-0.57c1.13,0,2.01,0.37,2.64,1.12
			c0.63,0.74,0.94,1.81,0.94,3.2v0.62h-5.89c0.02,0.86,0.27,1.55,0.75,2.08s1.09,0.79,1.83,0.79c0.53,0,0.97-0.11,1.33-0.32
			s0.68-0.5,0.96-0.85l0.91,0.71C113.54,211.63,112.45,212.19,110.99,212.19z M110.81,204.39c-0.6,0-1.1,0.22-1.51,0.65
			c-0.41,0.44-0.66,1.05-0.76,1.84h4.36v-0.11c-0.04-0.76-0.25-1.34-0.61-1.76C111.92,204.6,111.43,204.39,110.81,204.39z"/>
		<path class="st4" d="M117.51,203.33l0.05,1.09c0.66-0.84,1.53-1.25,2.6-1.25c1.84,0,2.76,1.04,2.78,3.11v5.75h-1.49v-5.75
			c-0.01-0.63-0.15-1.09-0.43-1.39c-0.28-0.3-0.72-0.45-1.31-0.45c-0.48,0-0.91,0.13-1.27,0.39s-0.65,0.59-0.85,1.01v6.2h-1.49v-8.7
			H117.51z"/>
		<path class="st4" d="M127.2,201.23v2.11h1.62v1.15h-1.62v5.4c0,0.35,0.07,0.61,0.22,0.78c0.15,0.17,0.39,0.26,0.74,0.26
			c0.17,0,0.41-0.03,0.71-0.1v1.2c-0.39,0.11-0.77,0.16-1.14,0.16c-0.66,0-1.17-0.2-1.5-0.6s-0.51-0.97-0.51-1.71v-5.39h-1.58v-1.15
			h1.58v-2.11H127.2z"/>
	</g>
	<g>
		<g>
			<path class="st5" d="M102.55,148.88c-0.25-0.52-0.89-0.75-1.43-0.5c-0.53,0.26-0.75,0.9-0.5,1.44l6.25,12.91l-5.61-0.37
				c-0.01,0-0.03,0-0.04,0c-0.36,0-0.7,0.17-0.92,0.47l-3.19,4.62l-0.12-0.24l-7.2-14.87c-0.18-0.38-0.57-0.6-0.97-0.6
				c-0.15,0-0.31,0.03-0.46,0.1c-0.25,0.12-0.45,0.34-0.54,0.62c-0.09,0.27-0.08,0.56,0.05,0.81l8.12,16.76
				c0.17,0.36,0.52,0.58,0.97,0.61c0.35,0,0.68-0.18,0.88-0.47l3.9-5.63l0.09,0.01l6.75,0.44c0.01,0,0.03,0,0.04,0
				c0.38,0,0.72-0.17,0.92-0.47c0.22-0.32,0.25-0.72,0.08-1.07L102.55,148.88z"/>
			<g>
				<g>
					<path class="st5" d="M83.35,157.73c-3.08,0-5.73-1.88-6.75-4.77l-0.18-0.49c-0.45-1.28-1.39-2.26-2.64-2.78
						c-1.25-0.51-2.61-0.48-3.84,0.1l-0.47,0.23c-2.77,1.32-5.97,0.77-8.15-1.41c-2.18-2.17-2.72-5.37-1.4-8.15l0.22-0.47
						c0.57-1.2,0.6-2.61,0.09-3.84c-0.51-1.24-1.5-2.19-2.78-2.64l-0.49-0.17c-2.89-1.03-4.77-3.69-4.77-6.76
						c0-3.07,1.87-5.72,4.77-6.75l0.49-0.18c1.28-0.45,2.26-1.39,2.78-2.64c0.51-1.23,0.48-2.63-0.09-3.84l-0.22-0.47
						c-1.32-2.77-0.77-5.97,1.4-8.15c2.18-2.18,5.37-2.72,8.15-1.4l0.47,0.22c1.22,0.58,2.58,0.61,3.84,0.1
						c1.25-0.52,2.18-1.51,2.64-2.78l0.18-0.49c1.03-2.89,3.68-4.77,6.75-4.77c3.07,0,5.72,1.87,6.76,4.77l0.18,0.49
						c0.45,1.28,1.39,2.26,2.63,2.78c1.25,0.51,2.61,0.48,3.84-0.1l0.47-0.22c2.77-1.32,5.97-0.77,8.15,1.4
						c2.18,2.18,2.73,5.37,1.41,8.15l-0.23,0.47c-0.58,1.22-0.61,2.58-0.09,3.84c0.51,1.24,1.5,2.18,2.78,2.64l0.49,0.18
						c2.9,1.03,4.77,3.68,4.77,6.75c0.01,3.08-1.87,5.73-4.77,6.76l-0.49,0.17c-1.28,0.45-2.26,1.4-2.78,2.64
						c-0.52,1.25-0.48,2.61,0.09,3.84l0.23,0.47c1.32,2.77,0.77,5.98-1.41,8.15c-2.17,2.18-5.37,2.73-8.15,1.41l-0.47-0.23
						c-1.21-0.57-2.61-0.6-3.84-0.1c-1.24,0.52-2.19,1.51-2.63,2.78l-0.18,0.49C89.07,155.85,86.42,157.73,83.35,157.73z
						 M71.97,146.87c0.93,0,1.87,0.18,2.75,0.55c1.86,0.78,3.33,2.32,4.01,4.23l0.18,0.49c0.81,2.31,2.83,3.13,4.44,3.13
						c1.61,0,3.62-0.82,4.45-3.13l0.18-0.49c0.67-1.91,2.13-3.45,4.01-4.23c1.88-0.77,4-0.72,5.83,0.15l0.47,0.22
						c2.22,1.06,4.22,0.22,5.36-0.92c1.14-1.14,1.98-3.15,0.93-5.37l-0.23-0.48c-0.86-1.83-0.92-3.95-0.14-5.81
						c0.78-1.88,2.32-3.34,4.22-4.02l0.5-0.17c2.31-0.83,3.14-2.84,3.14-4.45c0-1.61-0.82-3.62-3.14-4.44l-0.5-0.18
						c-1.9-0.67-3.44-2.14-4.22-4.01c-0.77-1.87-0.72-3.99,0.14-5.83l0.23-0.47c1.05-2.21,0.2-4.23-0.93-5.37
						c-1.14-1.13-3.14-1.97-5.36-0.92l-0.47,0.22c-1.82,0.88-3.94,0.93-5.82,0.15c-1.87-0.78-3.33-2.31-4.01-4.22l-0.18-0.49
						c-0.83-2.31-2.84-3.14-4.45-3.14c-1.61,0-3.62,0.82-4.44,3.14l-0.18,0.49c-0.68,1.91-2.15,3.44-4.01,4.22
						c-1.87,0.77-4,0.73-5.83-0.15l-0.47-0.22c-2.21-1.05-4.22-0.21-5.36,0.92c-1.14,1.14-1.99,3.15-0.93,5.37l0.22,0.47
						c0.88,1.84,0.92,3.96,0.15,5.83c-0.78,1.87-2.31,3.34-4.22,4.01l-0.49,0.18c-2.32,0.82-3.15,2.83-3.15,4.44
						c0,1.61,0.83,3.62,3.15,4.45l0.49,0.17c1.91,0.68,3.44,2.14,4.22,4.02c0.77,1.86,0.73,3.98-0.15,5.82l-0.23,0.47
						c-1.05,2.21-0.2,4.23,0.93,5.37c1.14,1.14,3.14,1.98,5.36,0.92l0.47-0.22C69.87,147.1,70.92,146.87,71.97,146.87z"/>
				</g>
			</g>
			<path class="st5" d="M83.35,106.21c-11.23,0-20.37,9.14-20.37,20.37c0,11.23,9.14,20.37,20.37,20.37
				c11.23,0,20.37-9.14,20.37-20.37C103.72,115.35,94.58,106.21,83.35,106.21z M83.35,144.8c-10.05,0-18.22-8.17-18.22-18.22
				c0-10.05,8.18-18.22,18.22-18.22c10.05,0,18.23,8.17,18.23,18.22C101.58,136.63,93.4,144.8,83.35,144.8z"/>
			<path class="st5" d="M78.32,151.85c-0.53-0.26-1.18-0.03-1.43,0.5l-7.31,15.11l-3.2-4.63c-0.21-0.3-0.58-0.48-0.96-0.46
				l-5.6,0.37l6.26-12.92c0.25-0.53,0.03-1.17-0.5-1.43c-0.53-0.25-1.18-0.03-1.43,0.5l-7.06,14.57c-0.17,0.35-0.14,0.75,0.07,1.07
				c0.21,0.31,0.56,0.49,0.97,0.47l6.83-0.45l3.89,5.63c0.19,0.29,0.53,0.47,0.88,0.47l0.03,0c0.02,0,0.04,0,0.07,0
				c0.36-0.02,0.7-0.26,0.86-0.6l8.12-16.77c0.13-0.26,0.14-0.55,0.05-0.83C78.77,152.19,78.58,151.97,78.32,151.85z"/>
		</g>
		<g>
			<path class="st5" d="M88.67,136.26c-0.24,0-0.49-0.06-0.71-0.18l-4.61-2.48l-4.61,2.49c-0.51,0.27-1.11,0.24-1.58-0.1
				c-0.48-0.34-0.72-0.92-0.62-1.51l0.89-5.28l-3.75-3.74c-0.41-0.41-0.56-1.02-0.37-1.58c0.18-0.55,0.65-0.95,1.22-1.03l5.16-0.77
				l2.31-4.8c0.26-0.53,0.78-0.86,1.36-0.86c0.58,0,1.1,0.33,1.36,0.86l2.31,4.8l5.16,0.77c0.57,0.08,1.03,0.48,1.22,1.03
				c0.18,0.56,0.04,1.17-0.37,1.58l-3.74,3.74l0.88,5.28c0.1,0.59-0.14,1.17-0.62,1.51C89.28,136.16,88.98,136.26,88.67,136.26z
				 M83.35,132.08l5.25,2.83c0.02,0.01,0.09,0.05,0.17-0.01c0.04-0.03,0.1-0.09,0.08-0.2l-1-5.96l4.23-4.23
				c0.08-0.08,0.06-0.18,0.05-0.22c-0.02-0.05-0.06-0.12-0.14-0.13l-5.86-0.87l-2.62-5.44c-0.08-0.17-0.23-0.17-0.31,0l-2.62,5.44
				l-5.86,0.87c-0.09,0.01-0.13,0.08-0.14,0.13c-0.02,0.05-0.03,0.14,0.05,0.22l4.23,4.23l-1,5.96c-0.02,0.11,0.04,0.18,0.08,0.2
				c0.08,0.06,0.15,0.02,0.17,0.01L83.35,132.08z"/>
		</g>
	</g>
</g>
<g>
	<g>
		<path class="st5" d="M378.45,427.91c0-1.2-0.27-2.4-0.8-3.47v-47.55c0-4.01-3.21-7.21-7.21-7.21c-0.53,0-1.07,0-1.47,0.13
			l-44.21-0.27l0,0c-3.47,0-6.55,2.27-7.75,5.48l-1.6,4.94c-0.13,0.4,0,0.94,0.4,1.07c0.13,0,0.13,0,0.27,0h6.95v50.76
			c0,0.4,0.4,0.8,0.8,0.8l0,0h40.47c0.53,0.8,1.34,1.47,2.14,1.87v7.35c0,0.4,0.4,0.8,0.8,0.8c0.13,0,0.4-0.13,0.53-0.13l2.81-2.54
			l2.81,2.54c0.13,0.13,0.27,0.13,0.53,0.13c0.4,0,0.8-0.4,0.8-0.8v-7.35C377.12,433.12,378.45,430.58,378.45,427.91z
			 M319.81,375.82c0.94-2.67,3.21-4.41,5.74-4.41l0,0l38.47,0.13c-1.2,1.07-2,2.4-2.27,4.01l-0.94,4.01h-42.08L319.81,375.82z
			 M325.02,430.85v-49.56h37.8c0.4,0,0.67-0.27,0.8-0.67l1.07-4.68c0.67-2.67,2.94-4.41,5.61-4.41c3.07,0,5.61,2.54,5.61,5.61v44.75
			c-3.07-3.07-8.01-2.94-11.09,0.13c-2.27,2.27-2.81,5.74-1.6,8.68L325.02,430.85L325.02,430.85z M372.84,439.8l-1.87-1.74
			c-0.27-0.27-0.8-0.27-1.07,0l-1.87,1.74v-4.54c1.47,0.53,3.34,0.53,4.81,0V439.8z M370.44,433.92c-3.34,0-6.14-2.81-6.14-6.14
			c0-3.34,2.81-6.14,6.14-6.14s6.14,2.81,6.14,6.14C376.58,431.12,373.78,433.92,370.44,433.92L370.44,433.92z"/>
		<path class="st5" d="M370.44,423.24c-2.54,0-4.41,2-4.41,4.41c0,2.54,2,4.41,4.41,4.41c2.54,0,4.41-2,4.41-4.41l0,0
			C374.98,425.24,372.98,423.24,370.44,423.24z M370.44,430.58c-1.47,0-2.94-1.2-2.94-2.94c0-1.47,1.2-2.94,2.94-2.94
			c1.47,0,2.94,1.2,2.94,2.94C373.38,429.38,372.04,430.58,370.44,430.58z"/>
		<path class="st5" d="M339.05,410.28h20.57c0.4,0,0.8-0.4,0.8-0.8l0,0v-14.43c0-0.27-0.13-0.53-0.27-0.67l-10.29-7.35
			c-0.27-0.13-0.67-0.13-0.94,0l-10.29,7.35c-0.27,0.13-0.27,0.4-0.27,0.67v14.43C338.25,409.88,338.65,410.28,339.05,410.28z
			 M346.26,408.54v-7.35c0-1.74,1.34-3.07,3.07-3.07s3.07,1.34,3.07,3.07v7.35H346.26z M339.85,395.45l9.48-6.81l9.48,6.81v13.09
			h-4.68v-7.35c0-2.54-2.14-4.68-4.68-4.68s-4.68,2.14-4.68,4.68l0,0v7.35h-4.68L339.85,395.45z"/>
		<path class="st5" d="M331.03,418.03h36.6c0.4,0,0.8-0.53,0.8-0.94s-0.4-0.94-0.8-0.94h-36.6c-0.4,0-0.8,0.53-0.8,0.94
			S330.63,418.03,331.03,418.03z"/>
		<path class="st5" d="M348.27,422.57H330.9c-0.4,0-0.8,0.53-0.8,1.07c0,0.53,0.4,1.07,0.8,1.07h17.5c0.4,0,0.8-0.53,0.8-1.07
			C349.2,423.1,348.8,422.57,348.27,422.57z"/>
	</g>
	<g>
		<path class="st4" d="M328.12,455.78v-11.7h3.3c1.02,0,1.92,0.22,2.7,0.67c0.78,0.45,1.39,1.09,1.81,1.92
			c0.43,0.83,0.64,1.78,0.65,2.86v0.75c0,1.1-0.21,2.07-0.64,2.9c-0.43,0.83-1.03,1.47-1.82,1.91c-0.79,0.44-1.71,0.67-2.76,0.68
			H328.12z M329.66,445.34v9.18h1.62c1.19,0,2.11-0.37,2.78-1.11c0.66-0.74,0.99-1.79,0.99-3.16v-0.68c0-1.33-0.31-2.36-0.94-3.1
			s-1.51-1.11-2.66-1.12H329.66z"/>
		<path class="st4" d="M345.52,450.37h-5.07v4.15h5.89v1.26h-7.43v-11.7h7.35v1.26h-5.81v3.77h5.07V450.37z"/>
		<path class="st4" d="M354.88,450.37h-5.07v4.15h5.89v1.26h-7.43v-11.7h7.35v1.26h-5.81v3.77h5.07V450.37z"/>
		<path class="st4" d="M357.62,455.78v-11.7h3.3c1.02,0,1.92,0.22,2.7,0.67c0.78,0.45,1.39,1.09,1.81,1.92
			c0.43,0.83,0.64,1.78,0.65,2.86v0.75c0,1.1-0.21,2.07-0.64,2.9c-0.43,0.83-1.03,1.47-1.82,1.91c-0.79,0.44-1.71,0.67-2.76,0.68
			H357.62z M359.16,445.34v9.18h1.62c1.19,0,2.11-0.37,2.78-1.11c0.66-0.74,0.99-1.79,0.99-3.16v-0.68c0-1.33-0.31-2.36-0.94-3.1
			s-1.51-1.11-2.66-1.12H359.16z"/>
	</g>
</g>
<g>
	<g>
		<path class="st4" d="M609.18,387.75v4.58h-1.54v-11.7h4.32c1.28,0,2.28,0.33,3.01,0.98c0.73,0.65,1.09,1.52,1.09,2.6
			c0,1.14-0.36,2.01-1.07,2.62s-1.73,0.92-3.05,0.92H609.18z M609.18,386.49h2.77c0.82,0,1.46-0.19,1.9-0.58s0.66-0.95,0.66-1.69
			c0-0.7-0.22-1.26-0.66-1.67s-1.04-0.64-1.81-0.65h-2.86V386.49z"/>
		<path class="st4" d="M617.29,387.9c0-0.85,0.17-1.62,0.5-2.3c0.33-0.68,0.8-1.21,1.4-1.58c0.6-0.37,1.28-0.55,2.04-0.55
			c1.18,0,2.14,0.41,2.87,1.23c0.73,0.82,1.1,1.91,1.1,3.27v0.1c0,0.85-0.16,1.61-0.49,2.28c-0.32,0.67-0.79,1.2-1.39,1.57
			s-1.29,0.56-2.08,0.56c-1.18,0-2.13-0.41-2.87-1.23c-0.73-0.82-1.1-1.91-1.1-3.25V387.9z M618.78,388.08
			c0,0.96,0.22,1.74,0.67,2.32c0.45,0.58,1.05,0.88,1.8,0.88c0.75,0,1.36-0.3,1.8-0.89s0.67-1.42,0.67-2.49
			c0-0.95-0.23-1.73-0.68-2.32c-0.45-0.59-1.05-0.89-1.8-0.89c-0.73,0-1.33,0.29-1.78,0.88S618.78,386.99,618.78,388.08z"/>
		<path class="st4" d="M627.08,381.33c0-0.24,0.07-0.44,0.22-0.61c0.15-0.17,0.37-0.25,0.65-0.25c0.29,0,0.51,0.08,0.66,0.25
			s0.22,0.37,0.22,0.61c0,0.24-0.07,0.44-0.22,0.6c-0.15,0.16-0.37,0.24-0.66,0.24c-0.29,0-0.51-0.08-0.65-0.24
			C627.15,381.77,627.08,381.57,627.08,381.33z M628.68,392.33h-1.49v-8.7h1.49V392.33z"/>
		<path class="st4" d="M632.47,383.63l0.05,1.09c0.66-0.83,1.53-1.25,2.6-1.25c1.84,0,2.76,1.04,2.78,3.11v5.75h-1.49v-5.75
			c-0.01-0.63-0.15-1.09-0.43-1.39c-0.28-0.3-0.72-0.45-1.31-0.45c-0.48,0-0.91,0.13-1.27,0.39c-0.36,0.26-0.65,0.59-0.85,1.01v6.2
			h-1.49v-8.7H632.47z"/>
		<path class="st4" d="M642.16,381.53v2.11h1.62v1.15h-1.62v5.4c0,0.35,0.07,0.61,0.22,0.78c0.14,0.17,0.39,0.26,0.74,0.26
			c0.17,0,0.41-0.03,0.71-0.1v1.2c-0.39,0.11-0.77,0.16-1.14,0.16c-0.66,0-1.17-0.2-1.5-0.6c-0.34-0.4-0.51-0.97-0.51-1.71v-5.39
			h-1.58v-1.15h1.58v-2.11H642.16z"/>
		<path class="st4" d="M650.58,390.02c0-0.4-0.15-0.71-0.45-0.94c-0.3-0.22-0.83-0.41-1.58-0.58c-0.75-0.16-1.35-0.35-1.79-0.58
			c-0.44-0.23-0.77-0.49-0.98-0.8s-0.32-0.68-0.32-1.11c0-0.71,0.3-1.32,0.9-1.81c0.6-0.49,1.37-0.74,2.31-0.74
			c0.99,0,1.79,0.25,2.4,0.76c0.61,0.51,0.92,1.16,0.92,1.95h-1.49c0-0.41-0.17-0.76-0.52-1.05s-0.78-0.44-1.31-0.44
			c-0.54,0-0.96,0.12-1.27,0.35c-0.31,0.24-0.46,0.54-0.46,0.92c0,0.36,0.14,0.63,0.43,0.81c0.28,0.18,0.8,0.36,1.54,0.52
			c0.74,0.17,1.34,0.36,1.8,0.59s0.8,0.51,1.02,0.83c0.22,0.32,0.33,0.72,0.33,1.18c0,0.78-0.31,1.4-0.93,1.87
			c-0.62,0.47-1.43,0.7-2.42,0.7c-0.7,0-1.31-0.12-1.85-0.37c-0.54-0.25-0.96-0.59-1.26-1.03c-0.3-0.44-0.45-0.92-0.45-1.43h1.49
			c0.03,0.5,0.23,0.89,0.6,1.19s0.86,0.44,1.47,0.44c0.56,0,1.01-0.11,1.35-0.34C650.41,390.71,650.58,390.4,650.58,390.02z"/>
	</g>
	<g>
		<g>
			<path class="st5" d="M654.14,303.77h-6.12v2.1h6.12c0.53,0,0.91,0.29,1.14,0.54c0.46,0.49,0.69,1.23,0.63,1.98
				c-0.73,9.14-4.37,17.47-9.75,22.3c-0.77,1.66-1.75,3.19-2.93,4.57c7.95-4.11,13.8-14.56,14.77-26.7
				c0.11-1.34-0.32-2.64-1.18-3.57C656.09,304.21,655.14,303.77,654.14,303.77z"/>
			<path class="st5" d="M603.26,308.39c-0.06-0.75,0.18-1.49,0.63-1.98c0.23-0.25,0.61-0.54,1.14-0.54h6.12v-2.1h-6.12
				c-1,0-1.95,0.43-2.68,1.21c-0.86,0.93-1.29,2.23-1.18,3.57c0.97,12.14,6.82,22.59,14.77,26.7c-1.18-1.38-2.16-2.91-2.93-4.57
				C607.63,325.86,603.99,317.53,603.26,308.39z"/>
		</g>
		<path class="st5" d="M649.78,295.84c1.12,0,2.04,0.91,2.04,2.04v3.44c0,1.12-0.91,2.04-2.04,2.04c0,0-0.49,0-1.33,0.01v18.49
			c0,0,0,0.33,0,0.51c0,8.63-5.8,15.89-13.72,18.13c-0.1,0.03-0.19,0.09-0.25,0.17c-0.91,1.29-2.02,3.56-2.02,6.97
			c0,3.69,0.77,6.15,1.32,7.46c0.07,0.17,0.24,0.28,0.43,0.28h0.47c3.52,0,6.37,2.85,6.37,6.37v0c0,0.26,0.21,0.47,0.47,0.47h3.09
			c1.38,0,2.5,1.12,2.5,2.5v1.11c0,1.38-1.12,2.5-2.5,2.5h-30.06c-1.38,0-2.5-1.12-2.5-2.5v-1.11c0-1.38,1.12-2.5,2.5-2.5h3.09
			c0.26,0,0.47-0.21,0.47-0.47l0,0c0-3.52,2.85-6.37,6.37-6.37h0.47c0.19,0,0.35-0.11,0.43-0.28c0.55-1.3,1.32-3.76,1.32-7.46
			c0-3.41-1.11-5.68-2.02-6.97c-0.06-0.09-0.15-0.14-0.25-0.17c-7.91-2.24-13.72-9.5-13.72-18.13c0-0.17,0-0.51,0-0.51v-17.99
			c0-0.25-0.21-0.46-0.46-0.47c-0.57-0.01-0.88-0.02-0.87-0.04c-1.12,0-2.04-0.91-2.04-2.04v-2.97c0-1.38,1.12-2.5,2.5-2.5H649.78
			 M649.78,294.5h-39.92c-2.12,0-3.84,1.72-3.84,3.84v6.33c0,1.71,1.28-0.23,2.93-0.01c0.24,0.03,0.44,0.22,0.44,0.46v16.72v0.51
			c0,8.84,5.81,16.67,14.22,19.27c0.11,0.03,0.2,0.1,0.25,0.19c0.75,1.21,1.51,3.1,1.51,5.8c0,3-0.54,5.12-1,6.4h-0.35
			c-3.72,0-6.79,2.81-7.2,6.42c-0.03,0.24-0.22,0.42-0.46,0.42h-1.81c-2.12,0-3.84,1.72-3.84,3.84v1.11c0,2.12,1.72,3.84,3.84,3.84
			h30.06c2.12,0,3.84-1.72,3.84-3.84v-1.11c0-2.12-1.72-3.84-3.84-3.84h-1.81c-0.24,0-0.43-0.18-0.46-0.42
			c-0.41-3.61-3.48-6.42-7.2-6.42h-0.35c-0.47-1.28-1-3.4-1-6.4c0-2.7,0.76-4.59,1.51-5.8c0.06-0.09,0.15-0.16,0.25-0.19
			c8.4-2.6,14.22-10.44,14.22-19.27v-0.51v-16.69c0-0.26,0.21-0.47,0.47-0.47l2.44-0.01c0.26,0,0.47-0.21,0.47-0.47v-6.33
			C653.15,296.02,651.63,294.5,649.78,294.5L649.78,294.5z"/>
		<path class="st6" d="M609.38,303.35c-1.12,0-2.04-0.91-2.04-2.04v-3.44c0-1.12,0.91-2.04,2.04-2.04h40.85
			c0.87,0,1.58,0.71,1.58,1.58v3.9c0,1.12-0.91,2.04-2.04,2.04C649.78,303.35,609.39,303.35,609.38,303.35z"/>
		<path class="st6" d="M645.66,368.31H613.5c-0.8,0-1.46-0.65-1.46-1.46v-3.2c0-0.8,0.65-1.46,1.46-1.46h32.16
			c0.8,0,1.46,0.65,1.46,1.46v3.2C647.12,367.66,646.46,368.31,645.66,368.31z"/>
		<path class="st6" d="M624.02,355.36c-3.26,0-5.91,2.64-5.91,5.91v0.94h22.94v-0.94c0-3.26-2.64-5.91-5.91-5.91H624.02z"/>
		<g>
			<path class="st6" d="M634.57,340.53c7.99-2.19,13.88-9.49,13.88-18.17c0-0.17,0-0.51,0-0.51v-18.5h-37.72v18.5c0,0,0,0.33,0,0.51
				c0,8.69,5.88,15.98,13.88,18.17"/>
			<path class="st6" d="M624.59,340.53c0.92,1.27,2.11,3.57,2.11,7.09c0,3.97-0.89,6.52-1.44,7.74h8.64
				c-0.55-1.21-1.44-3.76-1.44-7.74c0-3.52,1.19-5.83,2.11-7.09c-1.59,0.44-3.26,0.69-4.99,0.69S626.18,340.96,624.59,340.53z"/>
			<path class="st6" d="M624.59,340.53c1.59,0.44,3.26,0.69,4.99,0.69s3.4-0.25,4.99-0.69"/>
		</g>
		<g>
			<path class="st5" d="M624.75,328.53c-0.3,0-0.59-0.09-0.84-0.28c-0.44-0.32-0.66-0.86-0.57-1.4l0.79-4.63l-3.36-3.28
				c-0.39-0.38-0.53-0.95-0.36-1.47c0.17-0.52,0.61-0.9,1.16-0.98l4.65-0.68l2.08-4.21c0.24-0.49,0.74-0.8,1.29-0.8c0,0,0,0,0,0
				c0.55,0,1.04,0.31,1.28,0.8l2.08,4.21l4.65,0.68c0.54,0.08,0.99,0.45,1.16,0.98c0.17,0.52,0.03,1.09-0.36,1.47l-3.36,3.28
				l0.79,4.63c0.09,0.54-0.13,1.08-0.57,1.4c-0.44,0.32-1.02,0.36-1.51,0.11l-4.16-2.19l-4.16,2.19
				C625.21,328.48,624.98,328.53,624.75,328.53z M629.58,312.15l-2.48,4.9l-5.34,0.78l-0.06,0.17l3.87,3.77l-0.91,5.32l0.45,0.7
				l-0.31-0.59l4.78-2.51l4.78,2.51l0.8-0.22l-0.66,0.11l-0.91-5.32l3.87-3.77l-0.06-0.17l-5.34-0.78l-2.39-4.84
				C629.66,312.19,629.64,312.15,629.58,312.15z"/>
		</g>
	</g>
</g>
<g>
	<g>
		<path class="st5" d="M140.61,304.27c3.6,2.77,7.2,5.54,10.81,8.32c0.2,0.16,0.42,0.27,0.68,0.27c0.23-0.03,0.43-0.13,0.62-0.27
			c3.6-2.77,7.21-5.54,10.81-8.31c0.53-0.41,0.6-0.77,0.26-1.35c-3.62-6.14-7.25-12.28-10.88-18.41c-0.46-0.78-1.2-0.78-1.66,0
			c-3.63,6.13-7.26,12.27-10.88,18.41C140.01,303.51,140.08,303.87,140.61,304.27z M161.58,303.62c-2.86,2.2-5.71,4.39-8.53,6.56
			c-0.17-0.06-0.14-0.15-0.14-0.23c0-3.74,0-7.47,0-11.21c0-0.26-0.1-0.61,0.39-0.31c2.71,1.68,5.43,3.35,8.14,5.02
			C161.49,303.49,161.52,303.55,161.58,303.62z M152.91,288.12c0.04-0.01,0.08-0.03,0.12-0.04c2.5,4.22,4.99,8.45,7.49,12.68
			c-0.19,0.13-0.28-0.04-0.38-0.1c-2.26-1.38-4.52-2.78-6.78-4.17c-0.22-0.14-0.46-0.22-0.45-0.59
			C152.92,293.3,152.91,290.71,152.91,288.12z M151.09,288.1c0.22,0.1,0.12,0.26,0.12,0.38c0.01,2.41,0,4.81,0.01,7.22
			c0,0.3-0.01,0.54-0.32,0.73c-2.37,1.44-4.73,2.9-7.09,4.35c-0.05,0.03-0.11,0.03-0.25,0.07
			C146.09,296.56,148.59,292.33,151.09,288.1z M151.19,298.24c0,4.04,0,7.96,0,12.02c-2.92-2.24-5.77-4.43-8.68-6.68
			C145.4,301.8,148.26,300.04,151.19,298.24z"/>
		<path class="st5" d="M164.45,305.31c-0.16,0.08-0.31,0.21-0.45,0.33c-3.83,3.06-7.65,6.12-11.47,9.19c-0.35,0.29-0.56,0.29-0.92,0
			c-3.83-3.09-7.68-6.15-11.52-9.23c-0.41-0.33-0.83-0.6-1.33-0.19c-0.46,0.38-0.33,0.82-0.11,1.29
			c4.17,8.88,8.33,17.77,12.49,26.66c0.19,0.41,0.4,0.78,0.94,0.77c0.5-0.01,0.7-0.37,0.88-0.76c4.16-8.89,8.33-17.77,12.49-26.66
			c0.1-0.2,0.16-0.42,0.21-0.57C165.69,305.43,165.02,305.02,164.45,305.31z M151.22,329.1c0,0.03-0.02,0.06-0.08,0.22
			c-3.14-6.7-6.25-13.32-9.37-19.98c0.32-0.06,0.44,0.15,0.59,0.27c2.82,2.25,5.64,4.51,8.47,6.77c0.23,0.19,0.4,0.35,0.4,0.7
			C151.21,321.08,151.22,325.09,151.22,329.1z M153.02,329.25c-0.04-0.02-0.08-0.03-0.11-0.05c0-4.03,0-8.05,0-12.08
			c0-0.23-0.01-0.43,0.21-0.6c3.07-2.44,6.12-4.89,9.28-7.28C159.27,315.91,156.15,322.58,153.02,329.25z"/>
	</g>
	<g>
		<path class="st5" d="M152.07,346.85c-20.86,0-37.82-16.97-37.82-37.82c0-20.85,16.97-37.82,37.82-37.82
			c20.85,0,37.82,16.97,37.82,37.82C189.89,329.89,172.92,346.85,152.07,346.85z M152.07,273.46c-19.62,0-35.58,15.96-35.58,35.57
			c0,19.62,15.96,35.58,35.58,35.58s35.57-15.96,35.57-35.58C187.64,289.42,171.68,273.46,152.07,273.46z"/>
	</g>
</g>
<g>
	<path class="st4" d="M144.51,365.47h-5.07v4.15h5.89v1.26h-7.43v-11.7h7.35v1.26h-5.81v3.77h5.07V365.47z"/>
	<path class="st4" d="M155.49,360.43h-3.76v10.44h-1.54v-10.44h-3.75v-1.26h9.05V360.43z"/>
	<path class="st4" d="M166.22,370.87h-1.55v-5.41h-5.9v5.41h-1.54v-11.7h1.54v5.03h5.9v-5.03h1.55V370.87z"/>
</g>
<g>
	<path class="st5" d="M50.62,336.91c-0.01,0.67-0.56,1.21-1.22,1.21c-0.67,0-1.26-0.59-1.24-1.26c0.02-0.68,0.6-1.22,1.29-1.19
		C50.13,335.69,50.63,336.23,50.62,336.91z"/>
	<g>
		<path class="st5" d="M38.17,321.26c-0.15-0.57-0.74-0.91-1.31-0.75c-0.57,0.15-0.91,0.74-0.75,1.31c0.78,2.86,1.92,5.3,3.39,7.25
			c0.21,0.28,0.53,0.43,0.86,0.43c0.22,0,0.45-0.07,0.64-0.22c0.47-0.36,0.57-1.03,0.21-1.5C39.9,326.05,38.88,323.85,38.17,321.26z
			"/>
		<path class="st5" d="M72.49,289.46c-1.01-0.85-2.02-1.7-3.06-2.51c-0.37-0.29-0.56-0.54-0.5-1.06c0.13-1.08-0.21-2.06-0.96-2.83
			c-0.33-0.33-0.29-0.54-0.07-0.88c1.18-1.84,2.29-3.71,2.94-5.82c0.29-0.95,0.48-1.9,0.24-2.9c-0.37-1.53-1.5-2.11-2.93-1.5
			c-0.18,0.08-0.35,0.17-0.52,0.24c-0.5,0.2-0.99,0.19-1.45-0.11c-0.59-0.38-1.23-0.63-1.88-0.87c-0.43,0-0.86,0-1.3,0
			c-0.66,0.09-1.28,0.29-1.86,0.64c-0.52,0.31-1.09,0.41-1.62,0.05c-0.61-0.41-1.29-0.58-1.99-0.69c-0.43,0-0.86,0-1.3,0
			c-0.45,0.2-0.95,0.34-1.35,0.62c-0.83,0.57-1.6,0.56-2.49,0.12c-1.3-0.64-2.34-0.15-2.81,1.24c-0.27,0.8-0.22,1.61-0.04,2.42
			c0.51,2.28,1.67,4.27,2.86,6.24c0.11,0.18,0.44,0.36,0.04,0.64c-0.33,0.24-0.47,0.02-0.65-0.15c-1.11-1.05-2.4-1.74-3.91-1.99
			c-0.69-0.11-1.39-0.1-2.08-0.03c-1.85,0.17-3.57-0.2-5.16-1.18c-0.68-0.42-1.29-0.32-1.64,0.22c-0.37,0.57-0.18,1.17,0.52,1.63
			c0.16,0.1,0.33,0.2,0.49,0.29c1.8,0.98,3.72,1.42,5.75,1.2c1.95-0.21,3.6,0.33,4.91,1.81c0.1,0.11,0.29,0.21,0.14,0.44
			c-1.48,0.01-2.95,0.21-4.39,0.62c-2.45,0.7-4.55,1.9-5.92,4.14c-0.37,0.61-0.23,1.25,0.3,1.57c0.52,0.31,1.1,0.18,1.5-0.4
			c2.07-3.06,5.23-3.56,8.56-3.71c-0.11,0.2-0.27,0.33-0.43,0.45c-2.57,2.03-4.98,4.23-7.11,6.72c-5.31,6.23-8.78,13.19-8.39,21.63
			h0c0,0.59,0.49,1.08,1.08,1.08c0.6,0,1.08-0.48,1.08-1.08c0-0.01,0-0.02,0-0.03c0,0,0,0,0,0c-0.01-0.22-0.03-0.44-0.04-0.65
			c-0.15-4.37,0.98-8.45,2.97-12.3c2.68-5.19,6.55-9.37,11-13.08c0.76-0.63,1.45-1.22,2.45-0.48c0.16,0.12,0.41,0.12,0.62,0.17
			c2.81,0.66,5.66,0.73,8.52,0.48c1.72-0.15,3.45-0.33,4.95-1.31c0.3-0.2,0.44,0.03,0.61,0.17c0.97,0.79,1.93,1.58,2.89,2.38
			c0.67,0.55,1.26,0.57,1.71,0.06C73.24,290.62,73.15,290.01,72.49,289.46z M65.71,287.09c-1.9,0.53-3.85,0.74-6.3,0.75
			c-1.43,0.01-3.31-0.23-5.16-0.67c-1.13-0.27-1.61-1.29-1.13-2.32c0.29-0.63,0.8-0.88,1.54-0.72c1.97,0.44,3.96,0.7,5.99,0.62
			c1.47-0.06,2.9-0.29,4.33-0.6c0.92-0.2,1.54,0.17,1.74,1.02C66.95,286.09,66.58,286.85,65.71,287.09z M65.73,281.56
			c-0.12,0.18-0.24,0.3-0.49,0.36c-3.12,0.76-6.25,0.92-9.41,0.24c-0.52-0.11-0.9-0.3-1.18-0.78c-1.06-1.77-2.15-3.51-2.79-5.49
			c-0.05-0.16-0.1-0.32-0.15-0.48c-0.12-0.42-0.33-0.95-0.1-1.25c0.27-0.35,0.68,0.13,1.04,0.21c1.07,0.25,2.07,0.11,2.96-0.5
			c0.89-0.6,1.68-0.58,2.59-0.01c1.43,0.9,2.9,0.85,4.33-0.08c0.6-0.39,1.26-0.62,1.89-0.2c1.45,0.96,2.94,1.22,4.58,0.36
			c0.11,1.01-0.22,1.84-0.54,2.66C67.75,278.36,66.77,279.97,65.73,281.56z"/>
		<path class="st5" d="M85.38,310.69c-0.71-4.74-2.65-8.98-5.35-12.89c-1.08-1.56-2.26-3.04-3.55-4.43
			c-0.5-0.54-1.12-0.61-1.59-0.21c-0.49,0.41-0.5,1.07-0.01,1.66c0.12,0.15,0.26,0.28,0.39,0.43c4.28,4.87,7.43,10.31,8.12,16.89
			c0.42,3.92-0.17,7.66-2.04,11.11c-0.19,0.35,2.29,0.48,2.29,0.48c0.12-0.29,0.33-0.93,0.4-1.1
			C85.66,318.77,86,314.78,85.38,310.69z"/>
	</g>
	<g>
		<g>
			<path class="st7" d="M31.1,338.04c-0.72-0.72-1.35-0.71-2.07,0.01c-1.09,1.09-2.17,2.19-3.27,3.27c-0.52,0.51-1.06,1-1.66,1.57
				c1.71,1.67,3.4,3.33,5.1,4.99h11.75C37.66,344.6,34.38,341.32,31.1,338.04z"/>
			<path class="st7" d="M77.71,324.33c-2.64,2.7-5.27,5.42-7.9,8.13c-0.13,0.13-0.24,0.34-0.24,0.52c-0.08,3.41-2.05,5.35-5.46,5.35
				c-3,0-6,0-9,0c-0.25,0-0.5,0-0.74-0.04c-0.65-0.11-1.06-0.62-1.04-1.25c0.02-0.63,0.47-1.09,1.13-1.17
				c0.22-0.02,0.45-0.02,0.68-0.02c3.02,0,6.04,0,9.06,0c0.27,0,0.54-0.01,0.8-0.04c1.17-0.17,2.03-1.11,2.11-2.31
				c0.07-1.08-0.68-2.18-1.75-2.47c-0.39-0.11-0.81-0.12-1.22-0.12c-4.35-0.01-8.71,0-13.06-0.01c-0.4,0-0.83-0.05-1.2-0.2
				c-2.73-1.12-5.54-1.28-8.4-0.69c-3.6,0.75-6.39,2.67-8.31,5.84c-0.22,0.37-0.19,0.58,0.12,0.88c0.87,0.82,1.69,1.68,2.54,2.52
				c2.23,2.24,4.47,4.48,6.74,6.75c0.19-0.17,0.36-0.31,0.51-0.47c1.51-1.65,3.38-2.3,5.62-2.27c5.11,0.07,10.23,0.03,15.34,0.02
				c2.83,0,5.2-0.99,6.99-3.25c1.07-1.35,2.21-2.65,3.31-3.97c2.33-2.79,4.67-5.57,6.99-8.37c0.92-1.11,0.83-2.58-0.18-3.49
				C80.16,323.3,78.67,323.34,77.71,324.33z"/>
			<path class="st5" d="M83.85,323.69c-1.56-2.92-5.54-3.5-7.86-1.13c-2.36,2.41-4.7,4.83-7.04,7.25c-0.15,0.16-0.21,0.4-0.33,0.65
				c-1.35-1.57-2.83-2.04-4.55-2.02c-4.21,0.03-8.42,0.01-12.64,0c-0.34,0-0.7-0.05-1.02-0.17c-6.43-2.47-15.38-0.71-19.48,6.48
				c-0.09,0.16-0.38,0.31-0.57,0.3c-1.26-0.05-2.27,0.42-3.14,1.3c-1.77,1.8-3.57,3.58-5.35,5.37c-0.91,0.91-0.91,1.46,0.02,2.39
				c1.25,1.26,2.5,2.52,3.75,3.78h3.54c-1.7-1.66-3.39-3.32-5.1-4.99c0.6-0.56,1.14-1.05,1.66-1.57c1.1-1.08,2.17-2.18,3.27-3.27
				c0.73-0.72,1.35-0.73,2.07-0.01c3.28,3.28,6.56,6.56,9.84,9.84h3.27c1.11-1.17,2.24-2.19,4.06-2.16
				c5.32,0.07,10.64,0.05,15.96,0.02c3.47-0.02,6.38-1.32,8.61-4.05c1.15-1.42,2.34-2.81,3.52-4.21c2.28-2.73,4.57-5.45,6.84-8.18
				C84.43,327.81,84.71,325.31,83.85,323.69z M81.32,327.68c-2.32,2.8-4.66,5.58-6.99,8.37c-1.11,1.32-2.24,2.62-3.31,3.97
				c-1.8,2.26-4.16,3.25-6.99,3.25c-5.11,0.01-10.23,0.05-15.34-0.02c-2.24-0.03-4.11,0.62-5.62,2.27c-0.15,0.16-0.32,0.3-0.51,0.47
				c-2.27-2.27-4.5-4.51-6.74-6.75c-0.84-0.84-1.67-1.7-2.54-2.52c-0.31-0.3-0.35-0.51-0.12-0.88c1.91-3.17,4.7-5.1,8.31-5.84
				c2.86-0.59,5.67-0.43,8.4,0.69c0.37,0.15,0.8,0.2,1.2,0.2c4.35,0.01,8.71,0.01,13.06,0.01c0.41,0,0.83,0.01,1.22,0.12
				c1.07,0.29,1.83,1.39,1.75,2.47c-0.08,1.19-0.94,2.14-2.11,2.31c-0.26,0.04-0.53,0.04-0.8,0.04c-3.02,0-6.04,0-9.06,0
				c-0.23,0-0.45,0-0.68,0.02c-0.66,0.07-1.11,0.54-1.13,1.17c-0.02,0.63,0.39,1.14,1.04,1.25c0.24,0.04,0.49,0.04,0.74,0.04
				c3,0,6,0,9,0c3.41,0,5.39-1.94,5.46-5.35c0-0.18,0.11-0.39,0.24-0.52c2.63-2.72,5.26-5.43,7.9-8.13
				c0.97-0.99,2.46-1.03,3.44-0.14C82.15,325.11,82.25,326.58,81.32,327.68z"/>
		</g>
		<rect x="25.65" y="345.99" class="st5" width="18.56" height="1.9"/>
	</g>
	<g>
		<g>
			<g>
				<polygon class="st5" points="63.9,302.45 60,314.12 56,302.45 52.13,302.45 52.19,318.36 55.22,318.36 55.18,307.46 
					58.92,318.36 61.11,318.36 64.1,309.4 64.17,324.58 67.87,324.58 67.77,302.45 				"/>
			</g>
		</g>
	</g>
</g>
<g>
	<path class="st4" d="M34.85,359.17l3.83,9.55l3.83-9.55h2v11.7h-1.54v-4.56l0.14-4.92l-3.84,9.47h-1.18l-3.83-9.45l0.15,4.89v4.56
		h-1.54v-11.7H34.85z"/>
	<path class="st4" d="M53.84,365.47h-5.07v4.15h5.89v1.26h-7.43v-11.7h7.35v1.26h-5.81v3.77h5.07V365.47z"/>
	<path class="st4" d="M63.2,365.47h-5.07v4.15h5.89v1.26h-7.43v-11.7h7.35v1.26h-5.81v3.77h5.07V365.47z"/>
	<path class="st4" d="M65.94,370.87v-11.7h3.3c1.02,0,1.92,0.22,2.7,0.67c0.78,0.45,1.39,1.09,1.81,1.92
		c0.43,0.83,0.64,1.78,0.65,2.86v0.75c0,1.1-0.21,2.07-0.64,2.9c-0.43,0.83-1.03,1.47-1.82,1.91c-0.79,0.44-1.71,0.67-2.76,0.68
		H65.94z M67.48,360.43v9.18h1.62c1.19,0,2.11-0.37,2.78-1.11c0.66-0.74,0.99-1.79,0.99-3.16v-0.68c0-1.33-0.31-2.36-0.94-3.1
		s-1.51-1.11-2.66-1.12H67.48z"/>
</g>
<g>
	<path class="st4" d="M100.98,330.87c0,1.15-0.2,2.16-0.61,3.03c-0.41,0.87-0.99,1.54-1.75,2.01c-0.76,0.47-1.63,0.71-2.61,0.71
		c-0.97,0-1.83-0.23-2.6-0.7c-0.76-0.47-1.35-1.13-1.77-2c-0.42-0.87-0.63-1.86-0.64-2.99v-0.58c0-1.15,0.21-2.17,0.62-3.04
		c0.42-0.88,1-1.55,1.76-2.02c0.76-0.47,1.62-0.7,2.6-0.7s1.84,0.23,2.6,0.7c0.76,0.47,1.34,1.14,1.76,2.02s0.62,1.89,0.62,3.03
		V330.87z M98.53,330.34c0-1.23-0.22-2.16-0.66-2.8c-0.44-0.64-1.07-0.96-1.88-0.96c-0.81,0-1.43,0.31-1.87,0.94
		c-0.44,0.63-0.66,1.55-0.67,2.77v0.57c0,1.19,0.22,2.12,0.66,2.78s1.07,0.99,1.9,0.99c0.81,0,1.43-0.32,1.86-0.95
		c0.43-0.63,0.65-1.56,0.66-2.78V330.34z"/>
	<path class="st4" d="M107.06,332.17h-1.92v4.28h-2.41v-11.7h4.35c1.38,0,2.45,0.31,3.2,0.92c0.75,0.62,1.13,1.49,1.13,2.61
		c0,0.8-0.17,1.46-0.52,2c-0.35,0.53-0.87,0.96-1.57,1.27l2.53,4.78v0.11h-2.59L107.06,332.17z M105.14,330.22h1.94
		c0.61,0,1.07-0.15,1.41-0.46c0.33-0.31,0.5-0.73,0.5-1.27c0-0.55-0.16-0.99-0.47-1.3c-0.31-0.32-0.79-0.47-1.44-0.47h-1.94V330.22z
		"/>
</g>
<g>
	<path class="st3" d="M470.75,64.83c-1.3-0.37-2.25-0.83-2.84-1.38c-0.59-0.54-0.89-1.22-0.89-2.02c0-0.91,0.36-1.65,1.08-2.25
		c0.72-0.59,1.67-0.89,2.82-0.89c0.79,0,1.49,0.15,2.11,0.46c0.62,0.31,1.1,0.73,1.44,1.26c0.34,0.54,0.51,1.12,0.51,1.76h-1.52
		c0-0.7-0.22-1.25-0.66-1.64c-0.44-0.4-1.07-0.6-1.87-0.6c-0.75,0-1.33,0.17-1.75,0.49c-0.42,0.33-0.63,0.79-0.63,1.37
		c0,0.47,0.2,0.87,0.6,1.19c0.4,0.32,1.07,0.62,2.03,0.89c0.96,0.27,1.7,0.56,2.24,0.89c0.54,0.32,0.94,0.7,1.2,1.13
		c0.26,0.43,0.39,0.94,0.39,1.52c0,0.93-0.36,1.68-1.09,2.24s-1.7,0.84-2.91,0.84c-0.79,0-1.53-0.15-2.21-0.45
		c-0.68-0.3-1.21-0.72-1.58-1.24s-0.56-1.12-0.56-1.79h1.52c0,0.69,0.26,1.24,0.77,1.65c0.51,0.4,1.2,0.6,2.06,0.6
		c0.8,0,1.41-0.16,1.84-0.49c0.43-0.33,0.64-0.77,0.64-1.33c0-0.56-0.2-1-0.59-1.31C472.5,65.43,471.79,65.13,470.75,64.83z"/>
	<path class="st3" d="M484.9,59.69h-3.7v10.26h-1.51V59.69h-3.69v-1.24h8.89V59.69z"/>
	<path class="st3" d="M492.33,66.94h-4.82l-1.08,3.01h-1.56l4.39-11.5h1.33l4.4,11.5h-1.56L492.33,66.94z M487.97,65.7h3.91
		l-1.96-5.38L487.97,65.7z"/>
	<path class="st3" d="M499.45,64.6l-1.41,1.46v3.88h-1.52v-11.5h1.52v5.68l5.11-5.68h1.83l-4.52,5.08l4.88,6.42h-1.82L499.45,64.6z"
		/>
	<path class="st3" d="M513.16,64.64h-4.98v4.07h5.79v1.24h-7.3v-11.5h7.22v1.24h-5.71v3.7h4.98V64.64z"/>
</g>
<g>
	<g>
		<path class="st3" d="M157.46,432.35c-1.3-0.37-2.25-0.83-2.84-1.38c-0.59-0.54-0.89-1.22-0.89-2.02c0-0.91,0.36-1.65,1.09-2.25
			c0.72-0.59,1.66-0.89,2.82-0.89c0.79,0,1.49,0.15,2.11,0.46c0.62,0.3,1.1,0.73,1.44,1.26c0.34,0.54,0.51,1.12,0.51,1.76h-1.52
			c0-0.7-0.22-1.25-0.66-1.64c-0.44-0.4-1.07-0.6-1.87-0.6c-0.75,0-1.33,0.17-1.75,0.49c-0.42,0.33-0.63,0.79-0.63,1.37
			c0,0.47,0.2,0.87,0.6,1.19s1.07,0.62,2.03,0.89c0.96,0.27,1.7,0.57,2.24,0.89c0.54,0.32,0.94,0.7,1.2,1.13
			c0.26,0.43,0.39,0.94,0.39,1.52c0,0.93-0.36,1.68-1.09,2.24c-0.73,0.56-1.7,0.84-2.91,0.84c-0.79,0-1.53-0.15-2.21-0.45
			c-0.68-0.3-1.21-0.72-1.58-1.24c-0.37-0.53-0.56-1.12-0.56-1.79h1.52c0,0.7,0.26,1.24,0.77,1.65s1.2,0.6,2.06,0.6
			c0.8,0,1.41-0.16,1.84-0.49c0.43-0.33,0.64-0.77,0.64-1.33s-0.2-1-0.59-1.31C159.21,432.95,158.5,432.65,157.46,432.35z"/>
		<path class="st3" d="M170.16,432.16h-4.98v4.07h5.79v1.24h-7.3v-11.5h7.22v1.24h-5.71v3.7h4.98V432.16z"/>
		<path class="st3" d="M174.38,436.23h5.45v1.24h-6.97v-11.5h1.52V436.23z"/>
		<path class="st3" d="M183.08,436.23h5.45v1.24h-6.97v-11.5h1.52V436.23z"/>
		<path class="st3" d="M203.1,432.1c0,1.13-0.19,2.11-0.57,2.95c-0.38,0.84-0.92,1.48-1.61,1.92c-0.69,0.44-1.51,0.66-2.43,0.66
			c-0.91,0-1.71-0.22-2.41-0.67c-0.7-0.45-1.24-1.08-1.63-1.9c-0.39-0.82-0.59-1.78-0.6-2.86v-0.83c0-1.1,0.19-2.08,0.58-2.93
			s0.93-1.5,1.63-1.95c0.7-0.45,1.51-0.67,2.41-0.67c0.92,0,1.73,0.22,2.44,0.67s1.24,1.09,1.62,1.93c0.38,0.84,0.57,1.83,0.57,2.95
			V432.1z M201.59,431.35c0-1.36-0.27-2.41-0.82-3.14c-0.55-0.73-1.31-1.09-2.3-1.09c-0.96,0-1.71,0.36-2.26,1.09
			c-0.55,0.73-0.83,1.74-0.85,3.04v0.84c0,1.32,0.28,2.36,0.83,3.12c0.56,0.75,1.32,1.13,2.29,1.13c0.98,0,1.74-0.36,2.27-1.07
			c0.54-0.71,0.81-1.74,0.83-3.07V431.35z"/>
		<path class="st3" d="M209.59,432.82h-2.7v4.65h-1.52v-11.5h3.81c1.29,0,2.29,0.29,2.99,0.88c0.7,0.59,1.05,1.45,1.05,2.57
			c0,0.72-0.19,1.34-0.58,1.87c-0.39,0.53-0.93,0.93-1.61,1.19l2.7,4.88v0.09h-1.63L209.59,432.82z M206.89,431.58h2.33
			c0.75,0,1.35-0.2,1.8-0.59c0.44-0.39,0.67-0.91,0.67-1.57c0-0.71-0.21-1.26-0.64-1.64c-0.42-0.38-1.04-0.57-1.84-0.58h-2.32
			V431.58z"/>
		<path class="st3" d="M223.55,432.82h-2.7v4.65h-1.52v-11.5h3.81c1.29,0,2.29,0.29,2.99,0.88c0.7,0.59,1.05,1.45,1.05,2.57
			c0,0.72-0.19,1.34-0.58,1.87c-0.39,0.53-0.93,0.93-1.61,1.19l2.7,4.88v0.09h-1.63L223.55,432.82z M220.85,431.58h2.33
			c0.75,0,1.35-0.2,1.8-0.59c0.44-0.39,0.67-0.91,0.67-1.57c0-0.71-0.21-1.26-0.64-1.64c-0.42-0.38-1.04-0.57-1.84-0.58h-2.32
			V431.58z"/>
		<path class="st3" d="M235.79,432.16h-4.98v4.07h5.79v1.24h-7.3v-11.5h7.22v1.24h-5.71v3.7h4.98V432.16z"/>
		<path class="st3" d="M247.32,437.47h-1.52l-5.79-8.86v8.86h-1.52v-11.5h1.52l5.8,8.9v-8.9h1.51V437.47z"/>
		<path class="st3" d="M257.72,427.22h-3.69v10.26h-1.51v-10.26h-3.69v-1.24h8.89V427.22z"/>
	</g>
</g>
<g>
	<path class="st8" d="M398.29,82.76c-1.18,0-2.3-0.46-3.14-1.3c-1.73-1.73-1.73-4.55,0-6.28c0.84-0.84,1.95-1.3,3.14-1.3
		c1.19,0,2.3,0.46,3.14,1.3c1.73,1.73,1.73,4.55,0,6.28C400.59,82.3,399.48,82.76,398.29,82.76z"/>
	<path class="st9" d="M398.29,74.39c1.01,0,2.02,0.38,2.78,1.15c1.54,1.54,1.54,4.03,0,5.57c-0.77,0.77-1.78,1.15-2.78,1.15
		c-1.01,0-2.02-0.38-2.78-1.15c-1.54-1.54-1.54-4.03,0-5.57C396.27,74.77,397.28,74.39,398.29,74.39 M398.29,73.39
		c-1.32,0-2.56,0.51-3.49,1.45c-1.93,1.93-1.93,5.06,0,6.98c0.93,0.93,2.17,1.45,3.49,1.45s2.56-0.51,3.49-1.45
		c0.93-0.93,1.45-2.17,1.45-3.49s-0.51-2.56-1.45-3.49C400.85,73.9,399.61,73.39,398.29,73.39L398.29,73.39z"/>
</g>
<g>
	<path class="st8" d="M624.49,223.62c-1.18,0-2.3-0.46-3.14-1.3c-1.73-1.73-1.73-4.55,0-6.28c0.84-0.84,1.95-1.3,3.14-1.3
		c1.19,0,2.3,0.46,3.14,1.3s1.3,1.95,1.3,3.14s-0.46,2.3-1.3,3.14S625.68,223.62,624.49,223.62z"/>
	<path class="st9" d="M624.49,215.24c1.01,0,2.02,0.38,2.78,1.15c1.54,1.54,1.54,4.03,0,5.57c-0.77,0.77-1.78,1.15-2.78,1.15
		c-1.01,0-2.02-0.38-2.78-1.15c-1.54-1.54-1.54-4.03,0-5.57C622.48,215.63,623.48,215.24,624.49,215.24 M624.49,214.24
		c-1.32,0-2.56,0.51-3.49,1.45c-1.93,1.93-1.93,5.06,0,6.98c0.93,0.93,2.17,1.45,3.49,1.45c1.32,0,2.56-0.51,3.49-1.45
		c0.93-0.93,1.45-2.17,1.45-3.49s-0.51-2.56-1.45-3.49C627.05,214.75,625.81,214.24,624.49,214.24L624.49,214.24z"/>
</g>
<g>
	<path class="st8" d="M584.46,411.41c-1.19,0-2.3-0.46-3.14-1.3c-1.73-1.73-1.73-4.55,0-6.28c0.84-0.84,1.95-1.3,3.14-1.3
		s2.3,0.46,3.14,1.3c1.73,1.73,1.73,4.55,0,6.28C586.76,410.95,585.64,411.41,584.46,411.41z"/>
	<path class="st9" d="M584.46,403.03c1.01,0,2.02,0.38,2.78,1.15c1.54,1.54,1.54,4.03,0,5.57c-0.77,0.77-1.78,1.15-2.78,1.15
		c-1.01,0-2.02-0.38-2.78-1.15c-1.54-1.54-1.54-4.03,0-5.57C582.44,403.42,583.45,403.03,584.46,403.03 M584.46,402.03
		c-1.32,0-2.56,0.51-3.49,1.45c-1.93,1.93-1.93,5.06,0,6.98c0.93,0.93,2.17,1.45,3.49,1.45c1.32,0,2.56-0.51,3.49-1.45
		c0.93-0.93,1.45-2.17,1.45-3.49s-0.51-2.56-1.45-3.49C587.01,402.55,585.77,402.03,584.46,402.03L584.46,402.03z"/>
</g>
<g>
	<path class="st8" d="M297.32,420.6c-1.19,0-2.3-0.46-3.14-1.3c-1.73-1.73-1.73-4.55,0-6.28c0.84-0.84,1.95-1.3,3.14-1.3
		s2.3,0.46,3.14,1.3c1.73,1.73,1.73,4.55,0,6.28C299.62,420.14,298.5,420.6,297.32,420.6z"/>
	<path class="st9" d="M297.32,412.22c1.01,0,2.02,0.38,2.78,1.15c1.54,1.54,1.54,4.03,0,5.57c-0.77,0.77-1.78,1.15-2.78,1.15
		c-1.01,0-2.02-0.38-2.78-1.15c-1.54-1.54-1.54-4.03,0-5.57C295.3,412.61,296.31,412.22,297.32,412.22 M297.32,411.22
		c-1.32,0-2.56,0.51-3.49,1.45c-0.93,0.93-1.45,2.17-1.45,3.49s0.51,2.56,1.45,3.49c0.93,0.93,2.17,1.45,3.49,1.45
		c1.32,0,2.56-0.51,3.49-1.45c1.93-1.93,1.93-5.06,0-6.98C299.87,411.74,298.63,411.22,297.32,411.22L297.32,411.22z"/>
</g>
<g>
	<path class="st8" d="M125.01,108.71c-1.19,0-2.3-0.46-3.14-1.3c-1.73-1.73-1.73-4.55,0-6.28c0.84-0.84,1.95-1.3,3.14-1.3
		c1.19,0,2.3,0.46,3.14,1.3c1.73,1.73,1.73,4.55,0,6.28C127.31,108.24,126.2,108.71,125.01,108.71z"/>
	<path class="st9" d="M125.01,100.33c1.01,0,2.02,0.38,2.78,1.15c1.54,1.54,1.54,4.03,0,5.57c-0.77,0.77-1.78,1.15-2.78,1.15
		c-1.01,0-2.02-0.38-2.78-1.15c-1.54-1.54-1.54-4.03,0-5.57C123,100.71,124.01,100.33,125.01,100.33 M125.01,99.33
		c-1.32,0-2.56,0.51-3.49,1.45c-1.93,1.93-1.93,5.06,0,6.98c0.93,0.93,2.17,1.45,3.49,1.45c1.32,0,2.56-0.51,3.49-1.45
		c1.93-1.93,1.93-5.06,0-6.98C127.57,99.84,126.33,99.33,125.01,99.33L125.01,99.33z"/>
</g>
<g>
	<path class="st8" d="M295.78,84.16c-0.35,0-0.69-0.14-0.93-0.39c-0.24-0.24-0.36-0.57-0.36-0.92l0.2-9.05
		c0.02-0.73,0.62-1.32,1.35-1.32c0.34,0,0.66,0.13,0.9,0.37l4.43,4.43c0.25,0.25,0.38,0.58,0.37,0.93c-0.01,0.35-0.15,0.67-0.4,0.92
		l-4.63,4.63C296.47,84.02,296.14,84.16,295.78,84.16z"/>
	<path class="st9" d="M296.06,72.98c0.19,0,0.39,0.07,0.55,0.23l4.43,4.43c0.31,0.31,0.3,0.82-0.03,1.15l-4.63,4.63
		c-0.17,0.17-0.39,0.25-0.59,0.25c-0.41,0-0.79-0.31-0.78-0.8l0.2-9.05C295.22,73.32,295.63,72.98,296.06,72.98 M296.06,71.98
		L296.06,71.98c-1,0-1.83,0.81-1.85,1.81l-0.2,9.05c-0.01,0.49,0.17,0.94,0.5,1.28c0.33,0.34,0.8,0.54,1.28,0.54
		c0.49,0,0.95-0.19,1.3-0.55l4.63-4.63c0.34-0.34,0.53-0.79,0.54-1.26c0.01-0.49-0.17-0.95-0.52-1.3l-4.43-4.43
		C296.98,72.17,296.53,71.98,296.06,71.98L296.06,71.98z"/>
</g>
<g>
	<path class="st8" d="M624.66,282.47c-0.36,0-0.7-0.14-0.95-0.4l-4.63-4.63c-0.39-0.39-0.5-0.95-0.3-1.45
		c0.2-0.48,0.65-0.78,1.18-0.78l9.08,0.2c0.54,0.01,1.02,0.35,1.22,0.85c0.2,0.5,0.09,1.03-0.28,1.4l-4.42,4.42
		C625.33,282.34,625,282.47,624.66,282.47z"/>
	<path class="st9" d="M619.96,275.72c0.01,0,0.01,0,0.02,0l9.05,0.2c0.72,0.02,1.11,0.9,0.61,1.4l-4.43,4.43
		c-0.15,0.15-0.35,0.23-0.55,0.23c-0.21,0-0.43-0.08-0.6-0.25l-4.63-4.63C618.92,276.57,619.25,275.72,619.96,275.72 M619.96,274.72
		c-0.72,0-1.36,0.43-1.64,1.09c-0.28,0.68-0.12,1.46,0.41,1.99l4.63,4.63c0.35,0.35,0.81,0.54,1.3,0.54c0.48,0,0.92-0.18,1.26-0.52
		l4.43-4.43c0.51-0.51,0.66-1.26,0.39-1.94c-0.28-0.69-0.94-1.15-1.68-1.17l-9.05-0.2l-0.01,0L619.96,274.72L619.96,274.72z"/>
</g>
<g>
	<path class="st8" d="M400.36,422c-0.34,0-0.66-0.13-0.9-0.37l-4.43-4.43c-0.25-0.25-0.38-0.58-0.37-0.93
		c0.01-0.35,0.15-0.67,0.4-0.92l4.63-4.63c0.26-0.26,0.59-0.4,0.95-0.4c0.35,0,0.69,0.14,0.92,0.39c0.24,0.24,0.37,0.57,0.36,0.92
		l-0.2,9.05C401.7,421.41,401.09,422,400.36,422z"/>
	<path class="st9" d="M400.63,410.82c0.41,0,0.79,0.31,0.78,0.8l-0.2,9.05c-0.01,0.5-0.43,0.83-0.85,0.83
		c-0.19,0-0.39-0.07-0.55-0.23l-4.43-4.43c-0.31-0.31-0.3-0.82,0.03-1.15l4.63-4.63C400.22,410.9,400.43,410.82,400.63,410.82
		 M400.63,409.82L400.63,409.82c-0.49,0-0.95,0.19-1.3,0.55l-4.63,4.63c-0.71,0.71-0.73,1.86-0.03,2.56l4.43,4.43
		c0.34,0.34,0.78,0.52,1.25,0.52c1,0,1.83-0.81,1.85-1.81l0.2-9.05c0.01-0.49-0.17-0.94-0.5-1.28
		C401.58,410.02,401.12,409.82,400.63,409.82L400.63,409.82z"/>
</g>
<g>
	<path class="st8" d="M564.37,109.36c-0.51,0-0.97-0.28-1.19-0.74c-0.21-0.44-0.15-0.95,0.15-1.34l5.61-7.11
		c0.26-0.33,0.64-0.51,1.06-0.51c0.67,0,1.22,0.47,1.31,1.11l0.87,6.2c0.05,0.35-0.04,0.69-0.26,0.97c-0.21,0.27-0.52,0.45-0.87,0.5
		l-6.48,0.91C564.5,109.35,564.43,109.36,564.37,109.36z"/>
	<path class="st9" d="M570,100.16c0.38,0,0.76,0.25,0.82,0.68l0.87,6.2c0.06,0.43-0.26,0.84-0.71,0.9l-6.48,0.91
		c-0.04,0.01-0.09,0.01-0.13,0.01c-0.66,0-1.06-0.74-0.64-1.27l5.61-7.11C569.51,100.26,569.75,100.16,570,100.16 M570,99.16
		L570,99.16c-0.57,0-1.1,0.26-1.45,0.7l-5.61,7.11c-0.43,0.54-0.51,1.26-0.21,1.87c0.3,0.63,0.93,1.02,1.64,1.02
		c0.09,0,0.18-0.01,0.27-0.02l6.48-0.91c0.48-0.07,0.9-0.31,1.19-0.68c0.3-0.39,0.44-0.87,0.37-1.35l-0.87-6.2
		C571.68,99.8,570.92,99.16,570,99.16L570,99.16z"/>
</g>
<g>
	<path class="st8" d="M101.02,408.65c-0.65,0-1.2-0.45-1.31-1.08l-1.01-6.18c-0.05-0.33,0.03-0.67,0.23-0.95
		c0.21-0.29,0.52-0.48,0.88-0.54l6.46-1.05c0.08-0.01,0.15-0.02,0.23-0.02c0.5,0,0.96,0.28,1.18,0.72c0.22,0.44,0.17,0.94-0.13,1.33
		l-5.45,7.23C101.84,408.46,101.44,408.65,101.02,408.65z"/>
	<path class="st9" d="M106.49,399.33c0.65,0,1.06,0.72,0.65,1.26l-5.45,7.23c-0.17,0.23-0.43,0.34-0.68,0.34
		c-0.38,0-0.74-0.24-0.81-0.66l-1.01-6.18c-0.07-0.43,0.24-0.84,0.69-0.92l6.46-1.05C106.39,399.33,106.44,399.33,106.49,399.33
		 M106.49,398.33c-0.1,0-0.2,0.01-0.31,0.03l-6.46,1.05c-1,0.16-1.68,1.09-1.52,2.07l1.01,6.18c0.14,0.87,0.9,1.5,1.8,1.5
		c0.59,0,1.12-0.27,1.47-0.73l5.45-7.23c0.41-0.54,0.48-1.25,0.18-1.86C107.81,398.71,107.19,398.33,106.49,398.33L106.49,398.33z"
		/>
</g>
<g class="st10">
	<g>
		<path class="st3" d="M254.46,240.27l0.36,2.44l0.52-2.2l3.66-12.91h2.06l3.57,12.91l0.51,2.24l0.39-2.49l2.87-12.66h2.45
			l-4.49,18.5h-2.22l-3.81-13.48l-0.29-1.41l-0.29,1.41l-3.95,13.48h-2.22l-4.47-18.5h2.44L254.46,240.27z"/>
		<path class="st3" d="M272.17,239.1c0-1.35,0.26-2.56,0.79-3.63c0.53-1.08,1.27-1.91,2.21-2.49c0.94-0.58,2.02-0.88,3.23-0.88
			c1.87,0,3.39,0.65,4.54,1.94c1.16,1.3,1.73,3.02,1.73,5.17v0.17c0,1.34-0.26,2.54-0.77,3.6s-1.25,1.89-2.2,2.48
			c-0.95,0.59-2.05,0.89-3.29,0.89c-1.86,0-3.37-0.65-4.53-1.94c-1.16-1.3-1.73-3.01-1.73-5.15V239.1z M274.54,239.38
			c0,1.53,0.35,2.75,1.06,3.67c0.71,0.92,1.65,1.38,2.84,1.38c1.19,0,2.14-0.47,2.85-1.4c0.7-0.94,1.06-2.25,1.06-3.93
			c0-1.51-0.36-2.73-1.07-3.67c-0.72-0.94-1.67-1.4-2.85-1.4c-1.16,0-2.1,0.46-2.81,1.39C274.89,236.34,274.54,237.66,274.54,239.38
			z"/>
		<path class="st3" d="M294.29,234.46c-0.36-0.06-0.74-0.09-1.16-0.09c-1.54,0-2.59,0.66-3.14,1.97v9.76h-2.35v-13.75h2.29
			l0.04,1.59c0.77-1.23,1.86-1.84,3.28-1.84c0.46,0,0.8,0.06,1.04,0.18V234.46z"/>
		<path class="st3" d="M300.29,239.74l-1.47,1.54v4.83h-2.35v-19.52h2.35v11.81l1.26-1.51l4.28-4.52h2.86l-5.35,5.74l5.97,8.01
			h-2.76L300.29,239.74z"/>
		<path class="st3" d="M315.17,228.71c0-0.38,0.12-0.7,0.35-0.97c0.23-0.26,0.58-0.39,1.04-0.39s0.81,0.13,1.04,0.39
			c0.24,0.26,0.36,0.58,0.36,0.97s-0.12,0.7-0.36,0.95c-0.24,0.25-0.58,0.38-1.04,0.38s-0.8-0.13-1.04-0.38
			C315.29,229.41,315.17,229.09,315.17,228.71z M317.71,246.11h-2.35v-13.75h2.35V246.11z"/>
		<path class="st3" d="M323.7,232.36l0.08,1.73c1.05-1.32,2.42-1.98,4.12-1.98c2.91,0,4.37,1.64,4.4,4.92v9.09h-2.35v-9.1
			c-0.01-0.99-0.23-1.72-0.68-2.2c-0.44-0.47-1.14-0.71-2.08-0.71c-0.76,0-1.43,0.2-2.01,0.61c-0.58,0.41-1.03,0.94-1.35,1.6v9.8
			h-2.35v-13.75H323.7z"/>
		<path class="st3" d="M340.38,242.92l3.41-10.56h2.4l-4.93,13.75h-1.79l-4.98-13.75h2.4L340.38,242.92z"/>
		<path class="st3" d="M353.99,246.36c-1.86,0-3.38-0.61-4.55-1.84s-1.75-2.86-1.75-4.91v-0.43c0-1.36,0.26-2.58,0.78-3.65
			c0.52-1.07,1.25-1.91,2.19-2.52c0.94-0.61,1.95-0.91,3.04-0.91c1.79,0,3.18,0.59,4.17,1.77c0.99,1.18,1.49,2.86,1.49,5.06v0.98
			h-9.32c0.03,1.36,0.43,2.45,1.19,3.29c0.76,0.83,1.72,1.25,2.89,1.25c0.83,0,1.53-0.17,2.11-0.51s1.08-0.79,1.51-1.35l1.44,1.12
			C358.02,245.48,356.29,246.36,353.99,246.36z M353.69,234.03c-0.95,0-1.74,0.35-2.39,1.04c-0.64,0.69-1.04,1.66-1.19,2.9H357
			v-0.18c-0.07-1.19-0.39-2.12-0.96-2.78S354.68,234.03,353.69,234.03z"/>
		<path class="st3" d="M370.08,242.46c0-0.64-0.24-1.13-0.72-1.48s-1.31-0.66-2.5-0.91s-2.13-0.56-2.83-0.92s-1.22-0.78-1.55-1.27
			c-0.33-0.49-0.5-1.08-0.5-1.75c0-1.13,0.48-2.08,1.43-2.86c0.95-0.78,2.17-1.17,3.65-1.17c1.56,0,2.82,0.4,3.79,1.21
			c0.97,0.81,1.46,1.83,1.46,3.09h-2.36c0-0.64-0.27-1.2-0.82-1.67c-0.55-0.47-1.24-0.7-2.07-0.7c-0.86,0-1.53,0.19-2.01,0.56
			c-0.48,0.37-0.72,0.86-0.72,1.46c0,0.57,0.22,1,0.67,1.28s1.26,0.56,2.43,0.83c1.17,0.26,2.12,0.58,2.85,0.94
			c0.73,0.36,1.27,0.8,1.62,1.32s0.53,1.14,0.53,1.88c0,1.23-0.49,2.21-1.47,2.96c-0.98,0.74-2.26,1.11-3.83,1.11
			c-1.1,0-2.08-0.19-2.92-0.58c-0.85-0.39-1.51-0.93-1.99-1.63c-0.48-0.7-0.72-1.46-0.72-2.27h2.35c0.04,0.79,0.36,1.41,0.95,1.88
			s1.37,0.69,2.33,0.69c0.89,0,1.6-0.18,2.14-0.54S370.08,243.06,370.08,242.46z"/>
		<path class="st3" d="M378.68,229.03v3.33h2.57v1.82h-2.57v8.54c0,0.55,0.11,0.96,0.34,1.24c0.23,0.28,0.62,0.41,1.17,0.41
			c0.27,0,0.64-0.05,1.12-0.15v1.9c-0.62,0.17-1.22,0.25-1.8,0.25c-1.05,0-1.84-0.32-2.38-0.95s-0.8-1.54-0.8-2.71v-8.53h-2.5v-1.82
			h2.5v-3.33H378.68z"/>
		<path class="st3" d="M386.21,232.36l0.06,1.52c1.01-1.19,2.37-1.78,4.08-1.78c1.92,0,3.23,0.74,3.93,2.21
			c0.46-0.66,1.05-1.19,1.79-1.6c0.73-0.41,1.6-0.61,2.6-0.61c3.02,0,4.55,1.6,4.6,4.79v9.21h-2.35v-9.07
			c0-0.98-0.22-1.72-0.67-2.21c-0.45-0.49-1.2-0.73-2.26-0.73c-0.87,0-1.6,0.26-2.17,0.78c-0.58,0.52-0.91,1.22-1,2.1v9.13h-2.36
			v-9.01c0-2-0.98-3-2.94-3c-1.54,0-2.6,0.66-3.16,1.97v10.04h-2.35v-13.75H386.21z"/>
		<path class="st3" d="M412.51,246.36c-1.86,0-3.38-0.61-4.55-1.84c-1.17-1.22-1.75-2.86-1.75-4.91v-0.43
			c0-1.36,0.26-2.58,0.78-3.65c0.52-1.07,1.25-1.91,2.19-2.52c0.94-0.61,1.95-0.91,3.04-0.91c1.79,0,3.18,0.59,4.17,1.77
			s1.49,2.86,1.49,5.06v0.98h-9.32c0.03,1.36,0.43,2.45,1.19,3.29c0.76,0.83,1.72,1.25,2.89,1.25c0.83,0,1.53-0.17,2.11-0.51
			s1.08-0.79,1.51-1.35l1.44,1.12C416.55,245.48,414.82,246.36,412.51,246.36z M412.22,234.03c-0.95,0-1.75,0.35-2.39,1.04
			c-0.64,0.69-1.04,1.66-1.19,2.9h6.89v-0.18c-0.07-1.19-0.39-2.12-0.97-2.78S413.21,234.03,412.22,234.03z"/>
		<path class="st3" d="M422.82,232.36l0.08,1.73c1.05-1.32,2.42-1.98,4.12-1.98c2.91,0,4.37,1.64,4.4,4.92v9.09h-2.35v-9.1
			c-0.01-0.99-0.24-1.72-0.68-2.2c-0.44-0.47-1.14-0.71-2.08-0.71c-0.76,0-1.43,0.2-2.01,0.61s-1.03,0.94-1.35,1.6v9.8h-2.35v-13.75
			H422.82z"/>
		<path class="st3" d="M438.15,229.03v3.33h2.57v1.82h-2.57v8.54c0,0.55,0.11,0.96,0.34,1.24c0.23,0.28,0.62,0.41,1.17,0.41
			c0.27,0,0.64-0.05,1.12-0.15v1.9c-0.62,0.17-1.22,0.25-1.8,0.25c-1.05,0-1.84-0.32-2.38-0.95s-0.8-1.54-0.8-2.71v-8.53h-2.5v-1.82
			h2.5v-3.33H438.15z"/>
	</g>
</g>
<g>
	<g>
		<path class="st5" d="M203.54,98.84h-1.12V91.4l-2.25,0.83v-1.01l3.2-1.2h0.18V98.84z"/>
	</g>
	<g>
		<path class="st5" d="M202.5,102.82c-4.63,0-8.39-3.76-8.39-8.39c0-4.63,3.76-8.39,8.39-8.39c4.63,0,8.39,3.76,8.39,8.39
			C210.89,99.06,207.13,102.82,202.5,102.82z M202.5,86.58c-4.33,0-7.85,3.52-7.85,7.85c0,4.33,3.52,7.85,7.85,7.85
			s7.85-3.52,7.85-7.85C210.35,90.1,206.83,86.58,202.5,86.58z"/>
	</g>
</g>
<g>
	<g>
		<path class="st5" d="M606.82,248.54h0.84c0.53-0.01,0.94-0.15,1.24-0.42c0.3-0.27,0.45-0.63,0.45-1.09c0-1.03-0.51-1.54-1.54-1.54
			c-0.48,0-0.87,0.14-1.16,0.41c-0.29,0.28-0.43,0.64-0.43,1.09h-1.12c0-0.7,0.25-1.27,0.76-1.73c0.51-0.46,1.16-0.69,1.94-0.69
			c0.83,0,1.48,0.22,1.95,0.66s0.71,1.05,0.71,1.83c0,0.38-0.12,0.75-0.37,1.11c-0.25,0.36-0.58,0.63-1.01,0.8
			c0.48,0.15,0.86,0.41,1.12,0.76c0.26,0.35,0.4,0.79,0.4,1.3c0,0.79-0.26,1.41-0.77,1.88c-0.51,0.46-1.19,0.69-2.01,0.69
			c-0.82,0-1.5-0.22-2.01-0.67c-0.52-0.45-0.78-1.04-0.78-1.77h1.12c0,0.46,0.15,0.83,0.45,1.11c0.3,0.28,0.71,0.42,1.21,0.42
			c0.54,0,0.95-0.14,1.24-0.42c0.29-0.28,0.43-0.69,0.43-1.21c0-0.51-0.16-0.9-0.47-1.18c-0.31-0.27-0.77-0.41-1.36-0.42h-0.84
			V248.54z"/>
	</g>
	<g>
		<path class="st5" d="M607.82,257.48c-4.63,0-8.39-3.76-8.39-8.39c0-4.63,3.76-8.39,8.39-8.39c4.63,0,8.39,3.76,8.39,8.39
			C616.21,253.71,612.44,257.48,607.82,257.48z M607.82,241.24c-4.33,0-7.85,3.52-7.85,7.85c0,4.33,3.52,7.85,7.85,7.85
			s7.85-3.52,7.85-7.85C615.67,244.76,612.15,241.24,607.82,241.24z"/>
	</g>
</g>
<g>
	<g>
		<path class="st5" d="M493.23,98.69h-5.76v-0.8l3.04-3.38c0.45-0.51,0.76-0.93,0.93-1.25c0.17-0.32,0.26-0.65,0.26-0.99
			c0-0.46-0.14-0.83-0.42-1.13c-0.28-0.29-0.65-0.44-1.11-0.44c-0.56,0-0.99,0.16-1.29,0.47c-0.31,0.32-0.46,0.76-0.46,1.32h-1.12
			c0-0.81,0.26-1.46,0.78-1.96c0.52-0.5,1.22-0.75,2.09-0.75c0.82,0,1.46,0.21,1.94,0.64s0.71,1,0.71,1.71
			c0,0.86-0.55,1.89-1.65,3.09l-2.35,2.55h4.41V98.69z"/>
	</g>
	<g>
		<path class="st5" d="M490.27,102.82c-4.63,0-8.39-3.76-8.39-8.39c0-4.63,3.76-8.39,8.39-8.39c4.63,0,8.39,3.76,8.39,8.39
			C498.66,99.06,494.9,102.82,490.27,102.82z M490.27,86.58c-4.33,0-7.85,3.52-7.85,7.85c0,4.33,3.52,7.85,7.85,7.85
			c4.33,0,7.85-3.52,7.85-7.85C498.12,90.1,494.6,86.58,490.27,86.58z"/>
	</g>
</g>
<g>
	<g>
		<path class="st5" d="M490.27,407.89c-4.63,0-8.39-3.76-8.39-8.39c0-4.63,3.76-8.39,8.39-8.39c4.63,0,8.39,3.76,8.39,8.39
			C498.66,404.13,494.9,407.89,490.27,407.89z M490.27,391.65c-4.33,0-7.85,3.52-7.85,7.85c0,4.33,3.52,7.85,7.85,7.85
			c4.33,0,7.85-3.52,7.85-7.85C498.12,395.17,494.6,391.65,490.27,391.65z"/>
	</g>
	<g>
		<path class="st5" d="M492.22,400.94h1.22v0.91h-1.22v2.04h-1.12v-2.04h-4v-0.66l3.93-6.09h1.19V400.94z M488.37,400.94h2.73v-4.31
			l-0.13,0.24L488.37,400.94z"/>
	</g>
</g>
<g>
	<g>
		<path class="st5" d="M202.5,407.89c-4.63,0-8.39-3.76-8.39-8.39c0-4.63,3.76-8.39,8.39-8.39c4.63,0,8.39,3.76,8.39,8.39
			C210.89,404.13,207.13,407.89,202.5,407.89z M202.5,391.65c-4.33,0-7.85,3.52-7.85,7.85c0,4.33,3.52,7.85,7.85,7.85
			s7.85-3.52,7.85-7.85C210.35,395.17,206.83,391.65,202.5,391.65z"/>
	</g>
	<g>
		<path class="st5" d="M200.05,399.43l0.45-4.38h4.5v1.03h-3.55l-0.27,2.39c0.43-0.25,0.92-0.38,1.47-0.38
			c0.8,0,1.44,0.26,1.91,0.79c0.47,0.53,0.71,1.24,0.71,2.14c0,0.9-0.24,1.62-0.73,2.14c-0.49,0.52-1.17,0.78-2.05,0.78
			c-0.78,0-1.41-0.22-1.9-0.65c-0.49-0.43-0.77-1.03-0.84-1.79h1.06c0.07,0.5,0.25,0.88,0.54,1.14c0.29,0.26,0.67,0.38,1.15,0.38
			c0.52,0,0.93-0.18,1.22-0.53c0.29-0.35,0.44-0.84,0.44-1.47c0-0.59-0.16-1.06-0.48-1.41c-0.32-0.36-0.74-0.53-1.28-0.53
			c-0.49,0-0.87,0.11-1.15,0.32l-0.3,0.24L200.05,399.43z"/>
	</g>
</g>
<g>
	<g>
		<path class="st4" d="M327.42,106.17l3.83,9.55l3.83-9.55h2v11.7h-1.54v-4.56l0.14-4.92l-3.84,9.47h-1.18l-3.83-9.45l0.15,4.89
			v4.56h-1.54v-11.7H327.42z"/>
		<path class="st4" d="M346.41,112.46h-5.07v4.15h5.89v1.26h-7.43v-11.7h7.35v1.26h-5.81v3.77h5.07V112.46z"/>
		<path class="st4" d="M355.76,112.46h-5.07v4.15h5.89v1.26h-7.43v-11.7h7.35v1.26h-5.81v3.77h5.07V112.46z"/>
		<path class="st4" d="M358.5,117.87v-11.7h3.3c1.02,0,1.92,0.23,2.7,0.68c0.78,0.45,1.39,1.09,1.81,1.92s0.64,1.78,0.65,2.86v0.75
			c0,1.1-0.21,2.07-0.64,2.9s-1.03,1.47-1.82,1.91s-1.71,0.67-2.76,0.68H358.5z M360.05,107.43v9.18h1.62
			c1.19,0,2.12-0.37,2.78-1.11c0.66-0.74,0.99-1.79,0.99-3.16v-0.68c0-1.33-0.31-2.36-0.94-3.1s-1.51-1.11-2.66-1.12H360.05z"/>
	</g>
	<g>
		<g>
			<path class="st5" d="M377.8,39.49c-3.07-5.34-7.61-9.88-12.82-13.09l-1.07,1.87c2.27,1.34,4.27,2.94,6.14,4.68l-4.27,4.14
				c-4.94-4.68-11.49-7.61-18.7-7.88v-6.01c4.81,0.13,9.48,1.2,13.76,3.34l0.94-2c-4.94-2.27-10.29-3.47-15.76-3.47
				c-9.75,0-19.1,3.87-25.91,10.82c-6.95,6.81-10.82,16.16-10.82,25.91s3.87,19.1,10.82,25.91c6.95,6.95,16.16,10.82,25.91,10.82
				s19.1-3.87,25.91-10.82c6.95-6.95,10.82-16.16,10.82-25.91C382.74,51.38,381,44.97,377.8,39.49z M371.52,34.42
				c5.61,6.01,8.82,13.89,9.08,22.31h-5.88c-0.27-6.95-2.94-13.22-7.35-18.17L371.52,34.42z M344.94,23.19v5.88
				c-7.08,0.27-13.49,3.07-18.43,7.61l-4.14-4.14C328.24,27.07,336.25,23.46,344.94,23.19z M320.76,34.15l4.14,4.14
				c-4.41,4.94-7.35,11.35-7.61,18.43h-5.88C311.67,48.04,315.28,40.03,320.76,34.15z M311.41,58.86h5.88
				c0.27,7.21,3.21,13.76,7.88,18.7l-4.14,4.14C315.41,75.82,311.67,67.68,311.41,58.86z M344.94,92.39
				c-8.55-0.27-16.43-3.61-22.31-9.08l4.14-4.14c4.81,4.41,11.22,7.08,18.17,7.35V92.39z M319.42,57.79
				c0-14.56,11.89-26.58,26.58-26.58s26.58,11.89,26.58,26.58c0,14.56-11.89,26.58-26.58,26.58S319.42,72.35,319.42,57.79z
				 M347.07,92.39v-5.88c7.08-0.27,13.49-3.07,18.43-7.61l4.14,4.14C363.77,88.51,355.76,92.12,347.07,92.39z M371.25,81.43
				l-4.14-4.14c4.54-4.81,7.35-11.35,7.61-18.43h5.88C380.33,67.54,376.73,75.56,371.25,81.43z"/>
			<path class="st5" d="M346,39.49c-10.1,0-18.31,8.21-18.31,18.31c0,4.63,1.7,8.98,4.81,12.31l0.78-0.72
				c-2.86-3.11-4.42-7.2-4.42-11.59c0-9.45,7.69-17.15,17.15-17.15s17.15,7.69,17.15,17.15S355.45,74.95,346,74.95
				c-3.26,0-6.44-0.93-9.24-2.69l-0.56,0.81c3.03,1.92,6.38,2.9,9.95,2.9c10.1,0,18.31-8.21,18.31-18.31
				C364.31,47.64,356.03,39.49,346,39.49z"/>
			<rect x="344.8" y="34.82" class="st5" width="2.27" height="2.14"/>
			<rect x="344.8" y="78.5" class="st5" width="2.27" height="2.14"/>
			<rect x="323.03" y="56.72" class="st5" width="2.27" height="2.14"/>
			<rect x="328.77" y="40.56" class="st5" width="2.27" height="2.14"/>
			<rect x="362.17" y="41.76" class="st5" width="2.27" height="2.14"/>
			<rect x="362.17" y="71.68" class="st5" width="2.27" height="2.14"/>
			<rect x="327.57" y="71.68" class="st5" width="2.27" height="2.14"/>
			<rect x="366.71" y="56.72" class="st5" width="2.27" height="2.14"/>
			<path class="st5" d="M346,68.08L346,68.08L346,68.08z"/>
		</g>
		<g>
			<g>
				<g>
					<polygon class="st5" points="349.9,47.47 346,59.13 342,47.47 338.13,47.46 338.2,63.38 341.23,63.38 341.18,52.47 
						344.93,63.38 347.11,63.38 350.1,54.41 350.17,69.59 353.87,69.59 353.77,47.47 					"/>
				</g>
			</g>
		</g>
	</g>
</g>
<g>
	<g>
		<g>
			<g>
				<path class="st5" d="M630.92,116.48c-1.84-3.2-4.57-5.93-7.69-7.85l-0.64,1.12c1.36,0.8,2.56,1.76,3.68,2.8l-2.56,2.48
					c-2.96-2.8-6.89-4.57-11.21-4.73v-3.6c2.88,0.08,5.69,0.72,8.25,2l0.56-1.2c-2.96-1.36-6.17-2.08-9.45-2.08
					c-5.85,0-11.45,2.32-15.54,6.49c-4.17,4.09-6.49,9.69-6.49,15.54s2.32,11.45,6.49,15.54c4.17,4.17,9.69,6.49,15.54,6.49
					c5.85,0,11.45-2.32,15.54-6.49c4.17-4.17,6.49-9.69,6.49-15.54C633.89,123.61,632.84,119.77,630.92,116.48z M627.16,113.44
					c3.36,3.6,5.29,8.33,5.45,13.38h-3.52c-0.16-4.17-1.76-7.93-4.41-10.89L627.16,113.44z M611.22,106.71v3.52
					c-4.25,0.16-8.09,1.84-11.05,4.57l-2.48-2.48C601.2,109.03,606.01,106.87,611.22,106.71z M596.72,113.28l2.48,2.48
					c-2.64,2.96-4.41,6.81-4.57,11.05h-3.52C591.27,121.61,593.43,116.8,596.72,113.28z M591.11,128.1h3.52
					c0.16,4.33,1.92,8.25,4.73,11.21l-2.48,2.48C593.51,138.27,591.27,133.38,591.11,128.1z M611.22,148.2
					c-5.13-0.16-9.85-2.16-13.38-5.45l2.48-2.48c2.88,2.64,6.73,4.25,10.89,4.41V148.2z M595.92,127.46
					c0-8.73,7.13-15.94,15.94-15.94c8.81,0,15.94,7.13,15.94,15.94c0,8.73-7.13,15.94-15.94,15.94
					C603.05,143.4,595.92,136.19,595.92,127.46z M612.5,148.2v-3.52c4.25-0.16,8.09-1.84,11.05-4.57l2.48,2.48
					C622.51,145.88,617.7,148.04,612.5,148.2z M627,141.64l-2.48-2.48c2.72-2.88,4.41-6.81,4.57-11.05h3.52
					C632.44,133.3,630.28,138.11,627,141.64z"/>
				<path class="st5" d="M611.85,116.48c-6.06,0-10.98,4.93-10.98,10.98c0,2.78,1.02,5.38,2.88,7.38l0.47-0.43
					c-1.71-1.86-2.65-4.32-2.65-6.95c0-5.67,4.61-10.28,10.28-10.28s10.28,4.61,10.28,10.28c0,5.67-4.61,10.28-10.28,10.28
					c-1.96,0-3.86-0.56-5.54-1.62l-0.34,0.49c1.82,1.15,3.82,1.74,5.97,1.74c6.06,0,10.98-4.93,10.98-10.98
					C622.84,121.37,617.87,116.48,611.85,116.48z"/>
				<rect x="611.14" y="113.68" class="st5" width="1.36" height="1.28"/>
				<rect x="611.14" y="139.87" class="st5" width="1.36" height="1.28"/>
				<rect x="598.08" y="126.82" class="st5" width="1.36" height="1.28"/>
				<rect x="601.52" y="117.12" class="st5" width="1.36" height="1.28"/>
				<rect x="621.55" y="117.84" class="st5" width="1.36" height="1.28"/>
				<rect x="621.55" y="135.79" class="st5" width="1.36" height="1.28"/>
				<rect x="600.8" y="135.79" class="st5" width="1.36" height="1.28"/>
				<rect x="624.27" y="126.82" class="st5" width="1.36" height="1.28"/>
				<path class="st5" d="M611.86,133.63L611.86,133.63L611.86,133.63z"/>
			</g>
			<g>
				<g>
					<g>
						<polygon class="st5" points="614.2,121.27 611.86,128.26 609.46,121.27 607.14,121.26 607.18,130.81 608.99,130.81 
							608.96,124.27 611.21,130.81 612.52,130.81 614.32,125.43 614.36,134.53 616.58,134.54 616.52,121.27 						"/>
					</g>
				</g>
			</g>
		</g>
		<g>
			<g>
				<path class="st5" d="M665.89,148.63c-1.84-3.2-4.57-5.93-7.69-7.85l-0.64,1.12c1.36,0.8,2.56,1.76,3.68,2.8l-2.56,2.48
					c-2.96-2.8-6.89-4.57-11.21-4.73v-3.6c2.88,0.08,5.69,0.72,8.25,2l0.56-1.2c-2.96-1.36-6.17-2.08-9.45-2.08
					c-5.85,0-11.45,2.32-15.54,6.49c-4.17,4.09-6.49,9.69-6.49,15.54c0,5.85,2.32,11.45,6.49,15.54c4.17,4.17,9.69,6.49,15.54,6.49
					c5.85,0,11.45-2.32,15.54-6.49c4.17-4.17,6.49-9.69,6.49-15.54C668.86,155.76,667.82,151.91,665.89,148.63z M662.13,145.58
					c3.36,3.6,5.29,8.33,5.45,13.38h-3.52c-0.16-4.17-1.76-7.93-4.41-10.89L662.13,145.58z M646.19,138.85v3.52
					c-4.25,0.16-8.09,1.84-11.05,4.57l-2.48-2.48C636.17,141.18,640.98,139.01,646.19,138.85z M631.69,145.42l2.48,2.48
					c-2.64,2.96-4.41,6.81-4.57,11.05h-3.52C626.24,153.75,628.4,148.95,631.69,145.42z M626.08,160.24h3.52
					c0.16,4.33,1.92,8.25,4.73,11.21l-2.48,2.48C628.48,170.41,626.24,165.53,626.08,160.24z M646.19,180.35
					c-5.13-0.16-9.85-2.16-13.38-5.45l2.48-2.48c2.88,2.64,6.73,4.25,10.89,4.41V180.35z M630.89,159.6
					c0-8.73,7.13-15.94,15.94-15.94c8.81,0,15.94,7.13,15.94,15.94c0,8.73-7.13,15.94-15.94,15.94
					C638.02,175.54,630.89,168.33,630.89,159.6z M647.47,180.35v-3.52c4.25-0.16,8.09-1.84,11.05-4.57l2.48,2.48
					C657.48,178.02,652.68,180.19,647.47,180.35z M661.97,173.78l-2.48-2.48c2.72-2.88,4.41-6.81,4.57-11.05h3.52
					C667.42,165.45,665.25,170.25,661.97,173.78z"/>
				<path class="st5" d="M646.82,148.62c-6.06,0-10.98,4.93-10.98,10.98c0,2.78,1.02,5.38,2.88,7.38l0.47-0.43
					c-1.71-1.86-2.65-4.32-2.65-6.95c0-5.67,4.61-10.28,10.28-10.28s10.28,4.61,10.28,10.28c0,5.67-4.61,10.28-10.28,10.28
					c-1.96,0-3.86-0.56-5.54-1.62l-0.34,0.49c1.82,1.15,3.82,1.74,5.97,1.74c6.06,0,10.98-4.93,10.98-10.98
					C657.81,153.51,652.84,148.62,646.82,148.62z"/>
				<rect x="646.11" y="145.82" class="st5" width="1.36" height="1.28"/>
				<rect x="646.11" y="172.02" class="st5" width="1.36" height="1.28"/>
				<rect x="633.05" y="158.96" class="st5" width="1.36" height="1.28"/>
				<rect x="636.5" y="149.27" class="st5" width="1.36" height="1.28"/>
				<rect x="656.52" y="149.99" class="st5" width="1.36" height="1.28"/>
				<rect x="656.52" y="167.93" class="st5" width="1.36" height="1.28"/>
				<rect x="635.77" y="167.93" class="st5" width="1.36" height="1.28"/>
				<rect x="659.24" y="158.96" class="st5" width="1.36" height="1.28"/>
				<path class="st5" d="M646.83,165.77L646.83,165.77L646.83,165.77z"/>
			</g>
			<g>
				<g>
					<g>
						<polygon class="st5" points="649.17,153.41 646.83,160.41 644.43,153.41 642.11,153.41 642.15,162.95 643.96,162.95 
							643.94,156.41 646.18,162.95 647.49,162.95 649.29,157.57 649.33,166.68 651.55,166.68 651.49,153.41 						"/>
					</g>
				</g>
			</g>
		</g>
		<g>
			<g>
				<path class="st5" d="M595.95,148.63c-1.84-3.2-4.57-5.93-7.69-7.85l-0.64,1.12c1.36,0.8,2.56,1.76,3.68,2.8l-2.56,2.48
					c-2.96-2.8-6.89-4.57-11.21-4.73v-3.6c2.88,0.08,5.69,0.72,8.25,2l0.56-1.2c-2.96-1.36-6.17-2.08-9.45-2.08
					c-5.85,0-11.45,2.32-15.54,6.49c-4.17,4.09-6.49,9.69-6.49,15.54c0,5.85,2.32,11.45,6.49,15.54c4.17,4.17,9.69,6.49,15.54,6.49
					c5.85,0,11.45-2.32,15.54-6.49c4.17-4.17,6.49-9.69,6.49-15.54C598.91,155.76,597.87,151.91,595.95,148.63z M592.19,145.58
					c3.36,3.6,5.29,8.33,5.45,13.38h-3.52c-0.16-4.17-1.76-7.93-4.41-10.89L592.19,145.58z M576.24,138.85v3.52
					c-4.25,0.16-8.09,1.84-11.05,4.57l-2.48-2.48C566.23,141.18,571.04,139.01,576.24,138.85z M561.75,145.42l2.48,2.48
					c-2.64,2.96-4.41,6.81-4.57,11.05h-3.52C556.3,153.75,558.46,148.95,561.75,145.42z M556.14,160.24h3.52
					c0.16,4.33,1.92,8.25,4.73,11.21l-2.48,2.48C558.54,170.41,556.3,165.53,556.14,160.24z M576.24,180.35
					c-5.13-0.16-9.85-2.16-13.38-5.45l2.48-2.48c2.88,2.64,6.73,4.25,10.89,4.41V180.35z M560.95,159.6
					c0-8.73,7.13-15.94,15.94-15.94c8.81,0,15.94,7.13,15.94,15.94c0,8.73-7.13,15.94-15.94,15.94
					C568.07,175.54,560.95,168.33,560.95,159.6z M577.53,180.35v-3.52c4.25-0.16,8.09-1.84,11.05-4.57l2.48,2.48
					C587.54,178.02,582.73,180.19,577.53,180.35z M592.03,173.78l-2.48-2.48c2.72-2.88,4.41-6.81,4.57-11.05h3.52
					C597.47,165.45,595.31,170.25,592.03,173.78z"/>
				<path class="st5" d="M576.88,148.62c-6.06,0-10.98,4.93-10.98,10.98c0,2.78,1.02,5.38,2.88,7.38l0.47-0.43
					c-1.71-1.86-2.65-4.32-2.65-6.95c0-5.67,4.61-10.28,10.28-10.28s10.28,4.61,10.28,10.28c0,5.67-4.61,10.28-10.28,10.28
					c-1.96,0-3.86-0.56-5.54-1.62l-0.34,0.49c1.82,1.15,3.82,1.74,5.97,1.74c6.06,0,10.98-4.93,10.98-10.98
					C587.87,153.51,582.9,148.62,576.88,148.62z"/>
				<rect x="576.16" y="145.82" class="st5" width="1.36" height="1.28"/>
				<rect x="576.16" y="172.02" class="st5" width="1.36" height="1.28"/>
				<rect x="563.11" y="158.96" class="st5" width="1.36" height="1.28"/>
				<rect x="566.55" y="149.27" class="st5" width="1.36" height="1.28"/>
				<rect x="586.58" y="149.99" class="st5" width="1.36" height="1.28"/>
				<rect x="586.58" y="167.93" class="st5" width="1.36" height="1.28"/>
				<rect x="565.83" y="167.93" class="st5" width="1.36" height="1.28"/>
				<rect x="589.3" y="158.96" class="st5" width="1.36" height="1.28"/>
				<path class="st5" d="M576.89,165.77L576.89,165.77L576.89,165.77z"/>
			</g>
			<g>
				<g>
					<g>
						<polygon class="st5" points="579.22,153.41 576.89,160.41 574.48,153.41 572.17,153.41 572.2,162.95 574.02,162.95 
							573.99,156.41 576.24,162.95 577.55,162.95 579.34,157.57 579.39,166.68 581.61,166.68 581.54,153.41 						"/>
					</g>
				</g>
			</g>
		</g>
	</g>
	<g>
		<path class="st4" d="M589.89,198.31l1.93-3.17h1.74l-2.84,4.3l2.93,4.4h-1.72l-2.01-3.25l-2.01,3.25h-1.73l2.93-4.4l-2.84-4.3
			h1.72L589.89,198.31z"/>
		<path class="st4" d="M597.35,192.13l3.83,9.55l3.83-9.55h2v11.7h-1.54v-4.56l0.14-4.92l-3.84,9.47h-1.18l-3.83-9.45l0.15,4.89
			v4.56h-1.54v-11.7H597.35z"/>
		<path class="st4" d="M616.34,198.43h-5.07v4.15h5.89v1.26h-7.43v-11.7h7.35v1.26h-5.81v3.77h5.07V198.43z"/>
		<path class="st4" d="M625.7,198.43h-5.07v4.15h5.89v1.26h-7.43v-11.7h7.35v1.26h-5.81v3.77h5.07V198.43z"/>
		<path class="st4" d="M628.44,203.83v-11.7h3.3c1.02,0,1.92,0.23,2.7,0.68c0.78,0.45,1.39,1.09,1.81,1.92
			c0.43,0.83,0.64,1.78,0.65,2.86v0.75c0,1.1-0.21,2.07-0.64,2.9s-1.03,1.47-1.82,1.91c-0.79,0.44-1.71,0.67-2.76,0.68H628.44z
			 M629.98,193.4v9.18h1.62c1.19,0,2.11-0.37,2.78-1.11s0.99-1.79,0.99-3.16v-0.68c0-1.33-0.31-2.36-0.94-3.1s-1.51-1.11-2.66-1.12
			H629.98z"/>
	</g>
</g>
</svg>
