<?xml version="1.0" encoding="utf-8"?>
<!-- Generator: Adobe Illustrator 24.0.1, SVG Export Plug-In . SVG Version: 6.00 Build 0)  -->
<svg version="1.1" id="shema_1" xmlns="http://www.w3.org/2000/svg" xmlns:xlink="http://www.w3.org/1999/xlink" x="0px" y="0px"
	 viewBox="0 0 690 477" style="enable-background:new 0 0 690 477;" xml:space="preserve">
<style type="text/css">
	.st0{fill:#FCFCFC;}
	.st1{fill:#B3D9DB;}
	.st2{fill:#E5E5E5;}
	.st3{fill:#20282C;}
	.st4{fill:#3F8488;}
	.st5{fill:#E25D5D;}
	.st6{fill:none;stroke:#E25D5D;stroke-miterlimit:10;}
	.st7{fill:#78D3D5;}
	.st8{fill:#FFFFFF;}
	.st9{opacity:0.5;}
	.st10{fill:none;}
	.st11{fill:none;stroke:#E25D5D;stroke-width:1.8;stroke-miterlimit:10;}
	.st12{fill:none;stroke:#E25D5D;stroke-width:1.8;stroke-linecap:round;stroke-miterlimit:10;}
	.st13{clip-path:url(#SVGID_2_);}
	.st14{fill:#FCFCFC;stroke:#E25D5D;stroke-width:1.5;stroke-miterlimit:10;}
	.st15{clip-path:url(#SVGID_4_);}
	.st16{clip-path:url(#SVGID_6_);}
	.st17{clip-path:url(#SVGID_8_);}
	.st18{clip-path:url(#SVGID_10_);}
</style>
<rect class="st0" width="690" height="477"/>
<g>
	<g>
		<path class="st1" d="M177.3,281.1c-0.3,0-0.6-0.1-0.9-0.4c-0.4-0.5-0.6-1.2-0.5-2.2c2.1-27.5,14.4-53.1,34.7-72.1
			c20.4-19,47-29.5,74.9-29.5h295.8l-0.1,3.2H285.5c-55.3,0-102,43.2-106.4,98.2C179,280.3,178.1,281.1,177.3,281.1z"/>
		<path class="st2" d="M580.7,177.5l-0.1,2H285.5c-56.3,0-102.6,43.6-107,98.8c-0.1,1.5-0.7,2.2-1.2,2.2c-0.5,0-0.9-0.6-0.8-2
			c4.3-56.4,51.5-101.1,109-101.1L580.7,177.5 M581.9,176.3h-1.2H285.5c-28,0-54.8,10.5-75.3,29.7c-20.4,19-32.8,44.8-34.9,72.5
			c-0.1,1.2,0.1,2.1,0.7,2.7c0.4,0.4,0.8,0.6,1.3,0.6c1.1,0,2.3-1,2.4-3.3c4.3-54.8,50.8-97.7,105.8-97.7h295.1h1.2l0-1.2l0.1-2
			L581.9,176.3L581.9,176.3z"/>
	</g>
</g>
<g>
	<path class="st1" d="M537.2,58.5l-0.3,2c35.9,3.9,66.5,25.5,83,55.8l1.8-0.9C604.9,84.4,573.7,62.4,537.2,58.5z"/>
	<path class="st1" d="M625.6,244.5l-1.5-1.5c-7.8,18.3-20.6,34-36.7,45.4l1.1,1.7C604.6,278.6,617.5,262.8,625.6,244.5z"/>
	<polygon class="st1" points="229.7,308.1 229.7,310.1 328,310.1 328.4,308.1 	"/>
	<polygon class="st1" points="389.7,308.1 389.6,310.1 463,310.1 463.3,308.1 	"/>
	<path class="st1" d="M164.7,57.8c-41.6,0-77.8,23.4-96.3,57.6l1.7,1c18.1-33.7,53.7-56.7,94.6-56.7H178l-0.3-2H164.7z"/>
	<path class="st1" d="M55.3,309.8c0,24.2,7.7,47.1,22.3,66.2c14.1,18.6,34.2,32.3,56.5,38.8l0.6-1.9
		c-45.6-13.2-77.4-55.6-77.4-103.1v-59.4l-2,0.1V309.8z"/>
	<polygon class="st1" points="311.6,57.8 311.6,59.8 418.7,59.8 418.4,57.8 	"/>
	<path class="st2" d="M623.6,242.5l-0.5-0.5c-7.7,18.3-20.5,34-36.4,45.3l0.3,0.5C603.1,276.5,615.8,260.8,623.6,242.5z"/>
	<path class="st2" d="M588.8,290.5l0.3,0.5c16.2-11.5,29.2-27.2,37.3-45.6L626,245C617.9,263.3,605,279.1,588.8,290.5z"/>
	<path class="st2" d="M537.3,57.3l-0.1,0.6c36.7,4,68.1,26.1,84.9,57.2l0.5-0.3C605.8,83.5,574.2,61.3,537.3,57.3z"/>
	<polygon class="st2" points="418.3,57.3 418.2,56.6 311.6,56.6 311.6,57.3 	"/>
	<polygon class="st2" points="389.6,310.8 389.6,311.4 462.9,311.4 462.9,310.8 	"/>
	<path class="st2" d="M536.8,61.1l-0.1,0.6c35.5,3.8,65.8,25.2,82.1,55.2l0.5-0.3C603,86.4,572.5,64.9,536.8,61.1z"/>
	<path class="st2" d="M164.7,57.3h13l-0.1-0.6h-12.9c-42,0-78.7,23.6-97.4,58.2l0.5,0.3C86.4,80.7,122.8,57.3,164.7,57.3z"/>
	<path class="st2" d="M164.7,60.5c-40.7,0-76.1,22.9-94.1,56.4l0.5,0.3C89,83.8,124.2,61,164.7,61h13.5l-0.1-0.6H164.7z"/>
	<polygon class="st2" points="229.1,310.8 229.1,307.6 328.5,307.6 328.6,307 229.7,307 228.5,307 228.5,308.2 228.5,310.2 
		228.5,311.4 229.7,311.4 327.8,311.4 327.9,310.8 	"/>
	<polygon class="st2" points="463.3,307.6 463.4,307 389.8,307 389.7,307.6 	"/>
	<polygon class="st2" points="311.6,60.5 311.6,61 419,61 418.9,60.5 	"/>
	<path class="st2" d="M57.9,309.8c0,47.2,31.6,89.4,76.9,102.5l0.6,0.2l-0.9,3.1l-0.6-0.2c-22.4-6.5-42.6-20.3-56.8-39
		c-14.7-19.3-22.5-42.3-22.5-66.6v-59.2l-0.6,0v59.2c0,24.4,7.8,47.6,22.6,67c14.3,18.8,34.6,32.7,57.1,39.2l1.2,0.3l0.3-1.1
		l0.6-1.9l0.3-1.1l-1.1-0.3c-45-13.1-76.5-55-76.5-101.9v-59.5l-0.6,0V309.8z"/>
	<path class="st2" d="M164.7,57.8h13l-0.1-0.6h-13c-41.8,0-78.3,23.5-96.8,57.9l0.5,0.3C86.8,81.2,123.1,57.8,164.7,57.8z"/>
	<polygon class="st2" points="311.6,59.8 311.6,60.5 418.9,60.5 418.7,59.8 	"/>
	<path class="st2" d="M536.9,60.5l-0.1,0.6c35.7,3.8,66.2,25.3,82.5,55.5l0.5-0.3C603.4,85.9,572.8,64.3,536.9,60.5z"/>
	<path class="st2" d="M57.3,309.8c0,47.5,31.8,89.9,77.4,103.1l-0.6,1.9c-22.3-6.5-42.3-20.2-56.5-38.8
		C63,356.9,55.3,334,55.3,309.8v-59.3l-0.6,0v59.2c0,24.3,7.8,47.3,22.5,66.6c14.2,18.7,34.4,32.5,56.8,39l0.6,0.2l0.9-3.1l-0.6-0.2
		C89.6,399.2,57.9,357,57.9,309.8v-59.5l-0.6,0V309.8z"/>
	<path class="st2" d="M624.1,243l-0.4-0.5c-7.8,18.3-20.5,34-36.6,45.4l0.3,0.5C603.4,277,616.2,261.3,624.1,243z"/>
	<path class="st2" d="M621.6,115.4l0.5-0.3C605.3,84,574,61.9,537.2,57.9l-0.1,0.6C573.7,62.4,604.9,84.4,621.6,115.4z"/>
	<polygon class="st2" points="418.4,57.8 418.3,57.3 311.6,57.3 311.6,57.8 	"/>
	<path class="st2" d="M588.5,290l0.3,0.5c16.2-11.5,29.1-27.2,37.2-45.5l-0.5-0.5C617.5,262.8,604.6,278.6,588.5,290z"/>
	<path class="st2" d="M164.7,59.8c-40.9,0-76.5,23-94.6,56.7l0.5,0.3c18-33.5,53.4-56.4,94.1-56.4h13.4l-0.1-0.6H164.7z"/>
	<polygon class="st2" points="463,310.1 389.6,310.1 389.6,310.8 462.9,310.8 	"/>
	<polygon class="st2" points="229.7,310.1 229.7,308.1 328.4,308.1 328.5,307.6 229.1,307.6 229.1,310.8 327.9,310.8 328,310.1 	"/>
	<polygon class="st2" points="463.3,308.1 463.3,307.6 389.7,307.6 389.7,308.1 	"/>
	<rect x="146.9" y="252.6" class="st0" width="70.6" height="31.4"/>
</g>
<g>
	<path class="st3" d="M29.6,47.5V36h3.8c1.3,0,2.2,0.3,2.8,0.8c0.6,0.5,0.9,1.3,0.9,2.3c0,0.5-0.2,1-0.5,1.4c-0.3,0.4-0.7,0.7-1.3,1
		c0.6,0.2,1.1,0.5,1.5,1s0.5,1.1,0.5,1.7c0,1-0.3,1.8-1,2.4s-1.6,0.9-2.8,0.9L29.6,47.5L29.6,47.5z M31.1,40.9h2.3
		c0.7,0,1.2-0.2,1.6-0.5s0.6-0.8,0.6-1.3c0-0.6-0.2-1.1-0.5-1.4s-0.9-0.4-1.7-0.4h-2.2L31.1,40.9L31.1,40.9z M31.1,42.1v4.1h2.5
		c0.7,0,1.3-0.2,1.7-0.5s0.6-0.9,0.6-1.5c0-1.4-0.8-2.1-2.3-2.1H31.1z"/>
	<path class="st3" d="M47.7,36v7.8c0,1.1-0.3,2-1,2.7c-0.7,0.7-1.6,1.1-2.8,1.2l-0.4,0c-1.3,0-2.3-0.3-3-1s-1.1-1.6-1.1-2.8V36h1.5
		v7.8c0,0.8,0.2,1.5,0.7,1.9s1.1,0.7,2,0.7c0.9,0,1.5-0.2,2-0.7s0.7-1.1,0.7-1.9V36L47.7,36L47.7,36z"/>
	<path class="st3" d="M53.6,41.7l3-5.8h1.7l-4,7.2v4.3h-1.5v-4.3l-4-7.2h1.7L53.6,41.7z"/>
	<path class="st3" d="M65.8,36l3.8,9.4l3.8-9.4h2v11.5h-1.5V43l0.1-4.8l-3.8,9.3H69l-3.8-9.3l0.2,4.8v4.5h-1.5V36
		C63.8,36,65.8,36,65.8,36z"/>
	<path class="st3" d="M84.4,42.2h-5v4.1h5.8v1.2H78V36h7.2v1.2h-5.7v3.7h5V42.2z"/>
	<path class="st3" d="M93.6,42.2h-5v4.1h5.8v1.2h-7.3V36h7.2v1.2h-5.7v3.7h5V42.2z"/>
	<path class="st3" d="M96.3,47.5V36h3.2c1,0,1.9,0.2,2.7,0.7c0.8,0.4,1.4,1.1,1.8,1.9s0.6,1.8,0.6,2.8V42c0,1.1-0.2,2-0.6,2.8
		s-1,1.4-1.8,1.9c-0.8,0.4-1.7,0.7-2.7,0.7L96.3,47.5L96.3,47.5z M97.8,37.2v9h1.6c1.2,0,2.1-0.4,2.7-1.1s1-1.8,1-3.1v-0.7
		c0-1.3-0.3-2.3-0.9-3c-0.6-0.7-1.5-1.1-2.6-1.1C99.6,37.2,97.8,37.2,97.8,37.2z"/>
	<path class="st3" d="M31,63.2l0.2,1.5l0.3-1.4l2.3-8H35l2.2,8l0.3,1.4l0.3-1.5l1.8-7.9h1.5l-2.8,11.5H37l-2.4-8.4l-0.2-0.9
		l-0.2,0.9l-2.5,8.4h-1.4l-2.8-11.5h1.5L31,63.2z"/>
	<path class="st3" d="M44.5,66.9h-1.5V55.4h1.5V66.9z"/>
	<path class="st3" d="M54.9,56.6h-3.7v10.3h-1.5V56.6h-3.7v-1.2h8.9C54.9,55.4,54.9,56.6,54.9,56.6z"/>
	<path class="st3" d="M65.5,66.9H64v-5.3h-5.8v5.3h-1.5V55.4h1.5v4.9H64v-4.9h1.5V66.9z"/>
	<path class="st3" d="M81,66.9h-1.5v-5.3h-5.8v5.3h-1.5V55.4h1.5v4.9h5.8v-4.9H81V66.9z"/>
	<path class="st3" d="M90.2,63.8h-4.8l-1.1,3h-1.6l4.4-11.5h1.3l4.4,11.5h-1.6L90.2,63.8z M85.8,62.6h3.9l-2-5.4L85.8,62.6z"/>
	<path class="st3" d="M95.9,65.6h5.4v1.2h-7V55.4h1.5C95.9,55.4,95.9,65.6,95.9,65.6z"/>
	<path class="st3" d="M109.4,61.8h-4.8v5.1h-1.5V55.4h7.1v1.2h-5.6v3.9h4.8L109.4,61.8L109.4,61.8z"/>
</g>
<g>
	<path class="st3" d="M251.2,325.7h-2.7v4.6H247v-11.5h3.8c1.3,0,2.3,0.3,3,0.9s1.1,1.5,1.1,2.6c0,0.7-0.2,1.3-0.6,1.9
		s-0.9,0.9-1.6,1.2l2.7,4.9v0.1h-1.6L251.2,325.7z M248.5,324.5h2.3c0.8,0,1.4-0.2,1.8-0.6c0.4-0.4,0.7-0.9,0.7-1.6
		c0-0.7-0.2-1.3-0.6-1.6s-1-0.6-1.8-0.6h-2.3L248.5,324.5L248.5,324.5z"/>
	<path class="st3" d="M263.5,325.1h-5v4.1h5.8v1.2H257v-11.5h7.2v1.2h-5.7v3.7h5L263.5,325.1L263.5,325.1z"/>
	<path class="st3" d="M266.1,330.4v-11.5h3.3c1,0,1.9,0.2,2.6,0.7s1.4,1.1,1.8,1.9s0.6,1.8,0.6,2.8v0.7c0,1.1-0.2,2-0.6,2.9
		s-1,1.4-1.8,1.9c-0.8,0.4-1.7,0.7-2.7,0.7L266.1,330.4L266.1,330.4z M267.7,320.1v9h1.6c1.2,0,2.1-0.4,2.7-1.1c0.6-0.7,1-1.8,1-3.1
		v-0.7c0-1.3-0.3-2.3-0.9-3c-0.6-0.7-1.5-1.1-2.6-1.1H267.7z"/>
	<path class="st3" d="M283.2,325.1h-5v4.1h5.8v1.2h-7.3v-11.5h7.2v1.2h-5.7v3.7h5L283.2,325.1L283.2,325.1z"/>
	<path class="st3" d="M292.4,325.1h-5v4.1h5.8v1.2h-7.3v-11.5h7.2v1.2h-5.7v3.7h5L292.4,325.1L292.4,325.1z"/>
	<path class="st3" d="M297.1,318.9l3.8,9.4l3.8-9.4h2v11.5h-1.5v-4.5l0.1-4.8l-3.8,9.3h-1.2l-3.8-9.3l0.1,4.8v4.5h-1.5v-11.5H297.1z
		"/>
</g>
<g>
	<path class="st3" d="M360.4,186.4v7.8c0,1.1-0.4,2-1,2.7c-0.7,0.7-1.6,1.1-2.8,1.2l-0.4,0c-1.3,0-2.3-0.3-3-1
		c-0.8-0.7-1.1-1.6-1.1-2.8v-7.8h1.5v7.8c0,0.8,0.2,1.5,0.7,1.9s1.1,0.7,2,0.7c0.9,0,1.5-0.2,2-0.7s0.7-1.1,0.7-1.9v-7.8
		L360.4,186.4L360.4,186.4z"/>
	<path class="st3" d="M366.1,192.8c-1.3-0.4-2.3-0.8-2.8-1.4c-0.6-0.5-0.9-1.2-0.9-2c0-0.9,0.4-1.6,1.1-2.3c0.7-0.6,1.7-0.9,2.8-0.9
		c0.8,0,1.5,0.1,2.1,0.5c0.6,0.3,1.1,0.7,1.4,1.3c0.3,0.5,0.5,1.1,0.5,1.8h-1.5c0-0.7-0.2-1.3-0.7-1.6c-0.4-0.4-1.1-0.6-1.9-0.6
		c-0.8,0-1.3,0.2-1.8,0.5c-0.4,0.3-0.6,0.8-0.6,1.4c0,0.5,0.2,0.9,0.6,1.2s1.1,0.6,2,0.9s1.7,0.6,2.2,0.9c0.5,0.3,0.9,0.7,1.2,1.1
		c0.3,0.4,0.4,0.9,0.4,1.5c0,0.9-0.4,1.7-1.1,2.2s-1.7,0.8-2.9,0.8c-0.8,0-1.5-0.1-2.2-0.4s-1.2-0.7-1.6-1.2
		c-0.4-0.5-0.6-1.1-0.6-1.8h1.5c0,0.7,0.3,1.2,0.8,1.6c0.5,0.4,1.2,0.6,2.1,0.6c0.8,0,1.4-0.2,1.8-0.5s0.6-0.8,0.6-1.3
		s-0.2-1-0.6-1.3C367.9,193.4,367.2,193.1,366.1,192.8z"/>
	<path class="st3" d="M378.8,192.6h-5v4.1h5.8v1.2h-7.3v-11.5h7.2v1.2h-5.7v3.7h5L378.8,192.6L378.8,192.6z"/>
	<path class="st3" d="M394.4,192.5c0,1.1-0.2,2.1-0.6,2.9s-0.9,1.5-1.6,1.9c-0.7,0.4-1.5,0.7-2.4,0.7c-0.9,0-1.7-0.2-2.4-0.7
		s-1.2-1.1-1.6-1.9c-0.4-0.8-0.6-1.8-0.6-2.9v-0.8c0-1.1,0.2-2.1,0.6-2.9c0.4-0.9,0.9-1.5,1.6-1.9s1.5-0.7,2.4-0.7
		c0.9,0,1.7,0.2,2.4,0.7c0.7,0.4,1.2,1.1,1.6,1.9s0.6,1.8,0.6,2.9V192.5z M392.9,191.8c0-1.4-0.3-2.4-0.8-3.1
		c-0.5-0.7-1.3-1.1-2.3-1.1c-1,0-1.7,0.4-2.3,1.1c-0.5,0.7-0.8,1.7-0.9,3v0.8c0,1.3,0.3,2.4,0.8,3.1c0.6,0.8,1.3,1.1,2.3,1.1
		c1,0,1.7-0.4,2.3-1.1c0.5-0.7,0.8-1.7,0.8-3.1L392.9,191.8L392.9,191.8z"/>
	<path class="st3" d="M400.9,193.2h-2.7v4.6h-1.5v-11.5h3.8c1.3,0,2.3,0.3,3,0.9s1,1.4,1,2.6c0,0.7-0.2,1.3-0.6,1.9
		c-0.4,0.5-0.9,0.9-1.6,1.2l2.7,4.9v0.1h-1.6L400.9,193.2z M398.2,192h2.3c0.8,0,1.4-0.2,1.8-0.6c0.4-0.4,0.7-0.9,0.7-1.6
		c0-0.7-0.2-1.3-0.6-1.6s-1-0.6-1.8-0.6h-2.3L398.2,192L398.2,192z"/>
	<path class="st3" d="M414.8,193.2h-2.7v4.6h-1.5v-11.5h3.8c1.3,0,2.3,0.3,3,0.9s1,1.4,1,2.6c0,0.7-0.2,1.3-0.6,1.9
		c-0.4,0.5-0.9,0.9-1.6,1.2l2.7,4.9v0.1h-1.6L414.8,193.2z M412.1,192h2.3c0.8,0,1.4-0.2,1.8-0.6c0.4-0.4,0.7-0.9,0.7-1.6
		c0-0.7-0.2-1.3-0.6-1.6s-1-0.6-1.8-0.6h-2.3L412.1,192L412.1,192z"/>
	<path class="st3" d="M427,192.6h-5v4.1h5.8v1.2h-7.3v-11.5h7.2v1.2h-5.7v3.7h5L427,192.6L427,192.6z"/>
	<path class="st3" d="M438.6,197.9h-1.5l-5.8-8.9v8.9h-1.5v-11.5h1.5l5.8,8.9v-8.9h1.5V197.9z"/>
	<path class="st3" d="M449,187.6h-3.7v10.3h-1.5v-10.3h-3.7v-1.2h8.9L449,187.6L449,187.6z"/>
</g>
<g>
	<g>
		<path class="st4" d="M613,215.1l3.8,9.6l3.8-9.6h2v11.7h-1.5v-4.6l0.1-4.9l-3.8,9.5h-1.2l-3.8-9.4l0.2,4.9v4.6H611v-11.7
			L613,215.1L613,215.1z"/>
		<path class="st4" d="M632,221.4h-5.1v4.1h5.9v1.3h-7.4v-11.7h7.3v1.3h-5.8v3.8h5.1V221.4z"/>
		<path class="st4" d="M641.3,221.4h-5.1v4.1h5.9v1.3h-7.4v-11.7h7.3v1.3h-5.8v3.8h5.1V221.4z"/>
		<path class="st4" d="M644.1,226.8v-11.7h3.3c1,0,1.9,0.2,2.7,0.7s1.4,1.1,1.8,1.9s0.6,1.8,0.7,2.9v0.8c0,1.1-0.2,2.1-0.6,2.9
			s-1,1.5-1.8,1.9s-1.7,0.7-2.8,0.7L644.1,226.8L644.1,226.8z M645.6,216.4v9.2h1.6c1.2,0,2.1-0.4,2.8-1.1c0.7-0.7,1-1.8,1-3.2v-0.7
			c0-1.3-0.3-2.4-0.9-3.1s-1.5-1.1-2.7-1.1L645.6,216.4L645.6,216.4z"/>
	</g>
	<g>
		<g>
			<path class="st5" d="M663.4,149.4c-3.1-5.3-7.6-9.9-12.8-13.1l-1.1,1.9c2.3,1.3,4.3,2.9,6.1,4.7l-4.3,4.1
				c-4.9-4.7-11.5-7.6-18.7-7.9v-6c4.8,0.1,9.5,1.2,13.8,3.3l0.9-2c-4.9-2.3-10.3-3.5-15.8-3.5c-9.8,0-19.1,3.9-25.9,10.8
				c-7,6.8-10.8,16.2-10.8,25.9s3.9,19.1,10.8,25.9c7,6.9,16.2,10.8,25.9,10.8s19.1-3.9,25.9-10.8c7-6.9,10.8-16.2,10.8-25.9
				C668.3,161.3,666.6,154.9,663.4,149.4z M657.1,144.3c5.6,6,8.8,13.9,9.1,22.3h-5.9c-0.3-6.9-2.9-13.2-7.3-18.2L657.1,144.3z
				 M630.5,133.1v5.9c-7.1,0.3-13.5,3.1-18.4,7.6l-4.1-4.1C613.8,137,621.8,133.4,630.5,133.1z M606.3,144.1l4.1,4.1
				c-4.4,4.9-7.3,11.4-7.6,18.4H597C597.3,158,600.9,149.9,606.3,144.1z M597,168.8h5.9c0.3,7.2,3.2,13.8,7.9,18.7l-4.1,4.1
				C601,185.7,597.3,177.6,597,168.8z M630.5,202.3c-8.5-0.3-16.4-3.6-22.3-9.1l4.1-4.1c4.8,4.4,11.2,7.1,18.2,7.4V202.3z
				 M605,167.7c0-14.6,11.9-26.6,26.6-26.6s26.6,11.9,26.6,26.6c0,14.6-11.9,26.6-26.6,26.6S605,182.3,605,167.7z M632.7,202.3v-5.9
				c7.1-0.3,13.5-3.1,18.4-7.6l4.1,4.1C649.3,198.4,641.3,202,632.7,202.3z M656.8,191.4l-4.1-4.1c4.5-4.8,7.3-11.4,7.6-18.4h5.9
				C665.9,177.5,662.3,185.5,656.8,191.4z"/>
			<path class="st5" d="M631.6,149.4c-10.1,0-18.3,8.2-18.3,18.3c0,4.6,1.7,9,4.8,12.3l0.8-0.7c-2.9-3.1-4.4-7.2-4.4-11.6
				c0-9.4,7.7-17.1,17.2-17.1s17.2,7.7,17.2,17.1c0,9.4-7.7,17.1-17.2,17.1c-3.3,0-6.4-0.9-9.2-2.7l-0.6,0.8c3,1.9,6.4,2.9,10,2.9
				c10.1,0,18.3-8.2,18.3-18.3C649.9,157.6,641.6,149.4,631.6,149.4z"/>
			<rect x="630.4" y="144.7" class="st5" width="2.3" height="2.1"/>
			<rect x="630.4" y="188.4" class="st5" width="2.3" height="2.1"/>
			<rect x="608.6" y="166.6" class="st5" width="2.3" height="2.1"/>
			<rect x="614.3" y="150.5" class="st5" width="2.3" height="2.1"/>
			<rect x="647.7" y="151.7" class="st5" width="2.3" height="2.1"/>
			<rect x="647.7" y="181.6" class="st5" width="2.3" height="2.1"/>
			<rect x="613.2" y="181.6" class="st5" width="2.3" height="2.1"/>
			<rect x="652.3" y="166.6" class="st5" width="2.3" height="2.1"/>
			<path class="st5" d="M631.6,178L631.6,178L631.6,178z"/>
		</g>
		<g>
			<g>
				<g>
					<polygon class="st5" points="635.5,157.4 631.6,169.1 627.6,157.4 623.7,157.4 623.8,173.3 626.8,173.3 626.8,162.4 
						630.5,173.3 632.7,173.3 635.7,164.3 635.8,179.5 639.5,179.5 639.3,157.4 					"/>
				</g>
			</g>
		</g>
	</g>
</g>
<g>
	<g>
		<g>
			<g>
				<path class="st5" d="M550.9,271.1c-1.8-3.2-4.6-5.9-7.7-7.9l-0.6,1.1c1.4,0.8,2.6,1.8,3.7,2.8l-2.6,2.5c-3-2.8-6.9-4.6-11.2-4.7
					v-3.6c2.9,0.1,5.7,0.7,8.3,2l0.6-1.2c-3-1.4-6.2-2.1-9.5-2.1c-5.8,0-11.5,2.3-15.5,6.5c-4.2,4.1-6.5,9.7-6.5,15.5
					s2.3,11.5,6.5,15.5c4.2,4.2,9.7,6.5,15.5,6.5s11.5-2.3,15.5-6.5c4.2-4.2,6.5-9.7,6.5-15.5C553.8,278.3,552.8,274.4,550.9,271.1z
					 M547.1,268.1c3.4,3.6,5.3,8.3,5.5,13.4H549c-0.2-4.2-1.8-7.9-4.4-10.9L547.1,268.1z M531.2,261.4v3.5c-4.3,0.2-8.1,1.8-11,4.6
					l-2.5-2.5C521.1,263.7,526,261.5,531.2,261.4z M516.7,267.9l2.5,2.5c-2.6,3-4.4,6.8-4.6,11H511
					C511.2,276.3,513.4,271.5,516.7,267.9z M511,282.7h3.5c0.2,4.3,1.9,8.3,4.7,11.2l-2.5,2.5C513.5,292.9,511.2,288,511,282.7z
					 M531.2,302.9c-5.1-0.2-9.8-2.2-13.4-5.5l2.5-2.5c2.9,2.6,6.7,4.3,10.9,4.4L531.2,302.9L531.2,302.9z M515.8,282.1
					c0-8.7,7.1-15.9,15.9-15.9s15.9,7.1,15.9,15.9c0,8.7-7.1,15.9-15.9,15.9S515.8,290.8,515.8,282.1z M532.4,302.9v-3.5
					c4.3-0.2,8.1-1.8,11-4.6l2.5,2.5C542.5,300.5,537.6,302.7,532.4,302.9z M546.9,296.3l-2.5-2.5c2.7-2.9,4.4-6.8,4.6-11h3.5
					C552.4,288,550.2,292.8,546.9,296.3z"/>
				<path class="st5" d="M531.8,271.1c-6.1,0-11,4.9-11,11c0,2.8,1,5.4,2.9,7.4l0.5-0.4c-1.7-1.9-2.7-4.3-2.7-7
					c0-5.7,4.6-10.3,10.3-10.3s10.3,4.6,10.3,10.3s-4.6,10.3-10.3,10.3c-2,0-3.9-0.6-5.5-1.6l-0.3,0.5c1.8,1.1,3.8,1.7,6,1.7
					c6.1,0,11-4.9,11-11C542.8,276,537.8,271.1,531.8,271.1z"/>
				<rect x="531.1" y="268.3" class="st5" width="1.4" height="1.3"/>
				<rect x="531.1" y="294.5" class="st5" width="1.4" height="1.3"/>
				<rect x="518" y="281.5" class="st5" width="1.4" height="1.3"/>
				<rect x="521.5" y="271.8" class="st5" width="1.4" height="1.3"/>
				<rect x="541.5" y="272.5" class="st5" width="1.4" height="1.3"/>
				<rect x="541.5" y="290.4" class="st5" width="1.4" height="1.3"/>
				<rect x="520.7" y="290.4" class="st5" width="1.4" height="1.3"/>
				<rect x="544.2" y="281.5" class="st5" width="1.4" height="1.3"/>
				<path class="st5" d="M531.8,288.3L531.8,288.3L531.8,288.3z"/>
			</g>
			<g>
				<g>
					<g>
						<polygon class="st5" points="534.1,275.9 531.8,282.9 529.4,275.9 527.1,275.9 527.1,285.5 528.9,285.5 528.9,278.9 
							531.2,285.5 532.5,285.5 534.3,280.1 534.3,289.2 536.5,289.2 536.5,275.9 						"/>
					</g>
				</g>
			</g>
		</g>
		<g>
			<g>
				<path class="st5" d="M585.8,303.3c-1.8-3.2-4.6-5.9-7.7-7.9l-0.6,1.1c1.4,0.8,2.6,1.8,3.7,2.8l-2.6,2.5c-3-2.8-6.9-4.6-11.2-4.7
					v-3.6c2.9,0.1,5.7,0.7,8.3,2l0.6-1.2c-3-1.4-6.2-2.1-9.5-2.1c-5.8,0-11.5,2.3-15.5,6.5c-4.2,4.1-6.5,9.7-6.5,15.5
					s2.3,11.5,6.5,15.5c4.2,4.2,9.7,6.5,15.5,6.5s11.5-2.3,15.5-6.5c4.2-4.2,6.5-9.7,6.5-15.5C588.8,310.4,587.8,306.5,585.8,303.3z
					 M582.1,300.2c3.4,3.6,5.3,8.3,5.5,13.4H584c-0.2-4.2-1.8-7.9-4.4-10.9L582.1,300.2z M566.1,293.5v3.5c-4.3,0.2-8.1,1.8-11,4.6
					l-2.5-2.5C556.1,295.8,560.9,293.7,566.1,293.5z M551.6,300.1l2.5,2.5c-2.6,3-4.4,6.8-4.6,11H546
					C546.2,308.4,548.3,303.6,551.6,300.1z M546,314.9h3.5c0.2,4.3,1.9,8.3,4.7,11.2l-2.5,2.5C548.4,325.1,546.2,320.2,546,314.9z
					 M566.1,335c-5.1-0.2-9.8-2.2-13.4-5.5l2.5-2.5c2.9,2.6,6.7,4.3,10.9,4.4L566.1,335L566.1,335z M550.8,314.2
					c0-8.7,7.1-15.9,15.9-15.9s15.9,7.1,15.9,15.9c0,8.7-7.1,15.9-15.9,15.9C558,330.2,550.8,323,550.8,314.2z M567.4,335v-3.5
					c4.3-0.2,8.1-1.8,11-4.6l2.5,2.5C577.4,332.7,572.6,334.8,567.4,335z M581.9,328.4l-2.5-2.5c2.7-2.9,4.4-6.8,4.6-11h3.5
					C587.3,320.1,585.2,324.9,581.9,328.4z"/>
				<path class="st5" d="M566.8,303.3c-6.1,0-11,4.9-11,11c0,2.8,1,5.4,2.9,7.4l0.5-0.4c-1.7-1.9-2.7-4.3-2.7-7
					c0-5.7,4.6-10.3,10.3-10.3s10.3,4.6,10.3,10.3s-4.6,10.3-10.3,10.3c-2,0-3.9-0.6-5.5-1.6l-0.3,0.5c1.8,1.1,3.8,1.7,6,1.7
					c6.1,0,11-4.9,11-11C577.8,308.2,572.8,303.3,566.8,303.3z"/>
				<rect x="566" y="300.5" class="st5" width="1.4" height="1.3"/>
				<rect x="566" y="326.7" class="st5" width="1.4" height="1.3"/>
				<rect x="553" y="313.6" class="st5" width="1.4" height="1.3"/>
				<rect x="556.4" y="303.9" class="st5" width="1.4" height="1.3"/>
				<rect x="576.5" y="304.6" class="st5" width="1.4" height="1.3"/>
				<rect x="576.5" y="322.6" class="st5" width="1.4" height="1.3"/>
				<rect x="555.7" y="322.6" class="st5" width="1.4" height="1.3"/>
				<rect x="579.2" y="313.6" class="st5" width="1.4" height="1.3"/>
				<path class="st5" d="M566.8,320.4L566.8,320.4L566.8,320.4z"/>
			</g>
			<g>
				<g>
					<g>
						<polygon class="st5" points="569.1,308 566.8,315 564.4,308 562,308 562.1,317.6 563.9,317.6 563.9,311.1 566.1,317.6 
							567.4,317.6 569.2,312.2 569.3,321.3 571.5,321.3 571.4,308 						"/>
					</g>
				</g>
			</g>
		</g>
		<g>
			<g>
				<path class="st5" d="M515.9,303.3c-1.8-3.2-4.6-5.9-7.7-7.9l-0.6,1.1c1.4,0.8,2.6,1.8,3.7,2.8l-2.6,2.5c-3-2.8-6.9-4.6-11.2-4.7
					v-3.6c2.9,0.1,5.7,0.7,8.3,2l0.6-1.2c-3-1.4-6.2-2.1-9.5-2.1c-5.9,0-11.5,2.3-15.5,6.5c-4.2,4.1-6.5,9.7-6.5,15.5
					s2.3,11.5,6.5,15.5c4.2,4.2,9.7,6.5,15.5,6.5s11.5-2.3,15.5-6.5c4.2-4.2,6.5-9.7,6.5-15.5C518.8,310.4,517.8,306.5,515.9,303.3z
					 M512.1,300.2c3.4,3.6,5.3,8.3,5.5,13.4H514c-0.2-4.2-1.8-7.9-4.4-10.9L512.1,300.2z M496.2,293.5v3.5c-4.3,0.2-8.1,1.8-11,4.6
					l-2.5-2.5C486.2,295.8,491,293.7,496.2,293.5z M481.7,300.1l2.5,2.5c-2.6,3-4.4,6.8-4.6,11h-3.5
					C476.2,308.4,478.4,303.6,481.7,300.1z M476.1,314.9h3.5c0.2,4.3,1.9,8.3,4.7,11.2l-2.5,2.5
					C478.5,325.1,476.2,320.2,476.1,314.9z M496.2,335c-5.1-0.2-9.9-2.2-13.4-5.5l2.5-2.5c2.9,2.6,6.7,4.3,10.9,4.4L496.2,335
					L496.2,335z M480.9,314.2c0-8.7,7.1-15.9,15.9-15.9s15.9,7.1,15.9,15.9c0,8.7-7.1,15.9-15.9,15.9S480.9,323,480.9,314.2z
					 M497.5,335v-3.5c4.3-0.2,8.1-1.8,11-4.6l2.5,2.5C507.5,332.7,502.7,334.8,497.5,335z M512,328.4l-2.5-2.5
					c2.7-2.9,4.4-6.8,4.6-11h3.5C517.4,320.1,515.3,324.9,512,328.4z"/>
				<path class="st5" d="M496.8,303.3c-6.1,0-11,4.9-11,11c0,2.8,1,5.4,2.9,7.4l0.5-0.4c-1.7-1.9-2.6-4.3-2.6-7
					c0-5.7,4.6-10.3,10.3-10.3s10.3,4.6,10.3,10.3s-4.6,10.3-10.3,10.3c-2,0-3.9-0.6-5.5-1.6l-0.3,0.5c1.8,1.1,3.8,1.7,6,1.7
					c6.1,0,11-4.9,11-11C507.8,308.2,502.8,303.3,496.8,303.3z"/>
				<rect x="496.1" y="300.5" class="st5" width="1.4" height="1.3"/>
				<rect x="496.1" y="326.7" class="st5" width="1.4" height="1.3"/>
				<rect x="483" y="313.6" class="st5" width="1.4" height="1.3"/>
				<rect x="486.5" y="303.9" class="st5" width="1.4" height="1.3"/>
				<rect x="506.5" y="304.6" class="st5" width="1.4" height="1.3"/>
				<rect x="506.5" y="322.6" class="st5" width="1.4" height="1.3"/>
				<rect x="485.8" y="322.6" class="st5" width="1.4" height="1.3"/>
				<rect x="509.2" y="313.6" class="st5" width="1.4" height="1.3"/>
				<path class="st5" d="M496.8,320.4L496.8,320.4L496.8,320.4z"/>
			</g>
			<g>
				<g>
					<g>
						<polygon class="st5" points="499.2,308 496.8,315 494.4,308 492.1,308 492.1,317.6 494,317.6 493.9,311.1 496.2,317.6 
							497.5,317.6 499.3,312.2 499.3,321.3 501.5,321.3 501.5,308 						"/>
					</g>
				</g>
			</g>
		</g>
	</g>
	<g>
		<path class="st4" d="M509.8,348l1.9-3.2h1.7l-2.8,4.3l2.9,4.4h-1.7l-2-3.3l-2,3.3h-1.7l2.9-4.4l-2.8-4.3h1.7L509.8,348z"/>
		<path class="st4" d="M517.3,341.8l3.8,9.5l3.8-9.5h2v11.7h-1.5v-4.6l0.1-4.9l-3.8,9.5h-1.2l-3.8-9.5l0.2,4.9v4.6h-1.5v-11.7
			L517.3,341.8L517.3,341.8z"/>
		<path class="st4" d="M536.3,348.1h-5.1v4.1h5.9v1.3h-7.4v-11.7h7.3v1.3h-5.8v3.8h5.1V348.1z"/>
		<path class="st4" d="M545.6,348.1h-5.1v4.1h5.9v1.3H539v-11.7h7.3v1.3h-5.8v3.8h5.1V348.1z"/>
		<path class="st4" d="M548.4,353.5v-11.7h3.3c1,0,1.9,0.2,2.7,0.7c0.8,0.5,1.4,1.1,1.8,1.9c0.4,0.8,0.6,1.8,0.7,2.9v0.8
			c0,1.1-0.2,2.1-0.6,2.9s-1,1.5-1.8,1.9c-0.8,0.5-1.7,0.7-2.8,0.7L548.4,353.5L548.4,353.5z M549.9,343v9.2h1.6
			c1.2,0,2.1-0.4,2.8-1.1c0.7-0.7,1-1.8,1-3.2v-0.7c0-1.3-0.3-2.4-0.9-3.1s-1.5-1.1-2.7-1.1L549.9,343L549.9,343z"/>
	</g>
</g>
<g>
	<g>
		<path class="st5" d="M211,320c0-1.2-0.3-2.4-0.8-3.5V269c0-4-3.2-7.2-7.2-7.2c-0.5,0-1.1,0-1.5,0.1l-44.2-0.3l0,0
			c-3.5,0-6.6,2.3-7.8,5.5l-1.6,4.9c-0.1,0.4,0,0.9,0.4,1.1c0.1,0,0.1,0,0.3,0h6.9v50.8c0,0.4,0.4,0.8,0.8,0.8l0,0h40.5
			c0.5,0.8,1.3,1.5,2.1,1.9v7.4c0,0.4,0.4,0.8,0.8,0.8c0.1,0,0.4-0.1,0.5-0.1l2.8-2.5l2.8,2.5c0.1,0.1,0.3,0.1,0.5,0.1
			c0.4,0,0.8-0.4,0.8-0.8v-7.4C209.7,325.2,211,322.7,211,320z M152.4,267.9c0.9-2.7,3.2-4.4,5.7-4.4l0,0l38.5,0.1
			c-1.2,1.1-2,2.4-2.3,4l-0.9,4h-42.1L152.4,267.9z M157.6,323v-49.6h37.8c0.4,0,0.7-0.3,0.8-0.7l1.1-4.7c0.7-2.7,2.9-4.4,5.6-4.4
			c3.1,0,5.6,2.5,5.6,5.6V314c-3.1-3.1-8-2.9-11.1,0.1c-2.3,2.3-2.8,5.7-1.6,8.7L157.6,323L157.6,323z M205.4,331.9l-1.9-1.7
			c-0.3-0.3-0.8-0.3-1.1,0l-1.9,1.7v-4.5c1.5,0.5,3.3,0.5,4.8,0V331.9z M203,326c-3.3,0-6.1-2.8-6.1-6.1c0-3.3,2.8-6.1,6.1-6.1
			s6.1,2.8,6.1,6.1C209.1,323.2,206.3,326,203,326L203,326z"/>
		<path class="st5" d="M203,315.3c-2.5,0-4.4,2-4.4,4.4c0,2.5,2,4.4,4.4,4.4c2.5,0,4.4-2,4.4-4.4l0,0
			C207.5,317.3,205.5,315.3,203,315.3z M203,322.7c-1.5,0-2.9-1.2-2.9-2.9c0-1.5,1.2-2.9,2.9-2.9c1.5,0,2.9,1.2,2.9,2.9
			C205.9,321.5,204.6,322.7,203,322.7z"/>
		<path class="st5" d="M171.6,302.4h20.6c0.4,0,0.8-0.4,0.8-0.8l0,0v-14.4c0-0.3-0.1-0.5-0.3-0.7l-10.3-7.4c-0.3-0.1-0.7-0.1-0.9,0
			l-10.3,7.4c-0.3,0.1-0.3,0.4-0.3,0.7v14.4C170.8,302,171.2,302.4,171.6,302.4z M178.8,300.6v-7.4c0-1.7,1.3-3.1,3.1-3.1
			s3.1,1.3,3.1,3.1v7.4H178.8z M172.4,287.5l9.5-6.8l9.5,6.8v13.1h-4.7v-7.4c0-2.5-2.1-4.7-4.7-4.7s-4.7,2.1-4.7,4.7l0,0v7.4h-4.7
			L172.4,287.5z"/>
		<path class="st5" d="M163.6,310.1h36.6c0.4,0,0.8-0.5,0.8-0.9s-0.4-0.9-0.8-0.9h-36.6c-0.4,0-0.8,0.5-0.8,0.9
			S163.2,310.1,163.6,310.1z"/>
		<path class="st5" d="M180.8,314.7h-17.4c-0.4,0-0.8,0.5-0.8,1.1c0,0.5,0.4,1.1,0.8,1.1H181c0.4,0,0.8-0.5,0.8-1.1
			C181.8,315.2,181.4,314.7,180.8,314.7z"/>
	</g>
	<g>
		<path class="st4" d="M154,350.5v-11.7h3.3c1,0,1.9,0.2,2.7,0.7s1.4,1.1,1.8,1.9c0.4,0.8,0.6,1.8,0.6,2.9v0.8
			c0,1.1-0.2,2.1-0.6,2.9s-1,1.5-1.8,1.9c-0.8,0.4-1.7,0.7-2.8,0.7L154,350.5L154,350.5z M155.6,340v9.2h1.6c1.2,0,2.1-0.4,2.8-1.1
			c0.7-0.7,1-1.8,1-3.2v-0.7c0-1.3-0.3-2.4-0.9-3.1s-1.5-1.1-2.7-1.1L155.6,340L155.6,340z"/>
		<path class="st4" d="M171.4,345.1h-5.1v4.1h5.9v1.3h-7.4v-11.7h7.4v1.3h-5.8v3.8h5.1L171.4,345.1L171.4,345.1z"/>
		<path class="st4" d="M180.8,345.1h-5.1v4.1h5.9v1.3h-7.4v-11.7h7.4v1.3h-5.8v3.8h5.1L180.8,345.1L180.8,345.1z"/>
		<path class="st4" d="M183.5,350.5v-11.7h3.3c1,0,1.9,0.2,2.7,0.7s1.4,1.1,1.8,1.9c0.4,0.8,0.6,1.8,0.6,2.9v0.8
			c0,1.1-0.2,2.1-0.6,2.9s-1,1.5-1.8,1.9c-0.8,0.4-1.7,0.7-2.8,0.7L183.5,350.5L183.5,350.5z M185.1,340v9.2h1.6
			c1.2,0,2.1-0.4,2.8-1.1c0.7-0.7,1-1.8,1-3.2v-0.7c0-1.3-0.3-2.4-0.9-3.1s-1.5-1.1-2.7-1.1L185.1,340L185.1,340z"/>
		<path class="st4" d="M202.9,350.5h-1.5v-9.9l-3,1.1v-1.4l4.3-1.6h0.2L202.9,350.5L202.9,350.5z"/>
	</g>
</g>
<g>
	<g>
		<path class="st5" d="M211,426.9c0-1.2-0.3-2.4-0.8-3.5v-47.5c0-4-3.2-7.2-7.2-7.2c-0.5,0-1.1,0-1.5,0.1l-44.2-0.3l0,0
			c-3.5,0-6.6,2.3-7.8,5.5L148,379c-0.1,0.4,0,0.9,0.4,1.1c0.1,0,0.1,0,0.3,0h6.9v50.8c0,0.4,0.4,0.8,0.8,0.8l0,0h40.5
			c0.5,0.8,1.3,1.5,2.1,1.9v7.4c0,0.4,0.4,0.8,0.8,0.8c0.1,0,0.4-0.1,0.5-0.1l2.8-2.5l2.8,2.5c0.1,0.1,0.3,0.1,0.5,0.1
			c0.4,0,0.8-0.4,0.8-0.8v-7.4C209.7,432.1,211,429.6,211,426.9z M152.4,374.8c0.9-2.7,3.2-4.4,5.7-4.4l0,0l38.5,0.1
			c-1.2,1.1-2,2.4-2.3,4l-0.9,4h-42.1L152.4,374.8z M157.6,429.9v-49.6h37.8c0.4,0,0.7-0.3,0.8-0.7l1.1-4.7c0.7-2.7,2.9-4.4,5.6-4.4
			c3.1,0,5.6,2.5,5.6,5.6v44.8c-3.1-3.1-8-2.9-11.1,0.1c-2.3,2.3-2.8,5.7-1.6,8.7L157.6,429.9L157.6,429.9z M205.4,438.8l-1.9-1.7
			c-0.3-0.3-0.8-0.3-1.1,0l-1.9,1.7v-4.5c1.5,0.5,3.3,0.5,4.8,0V438.8z M203,433c-3.3,0-6.1-2.8-6.1-6.1s2.8-6.1,6.1-6.1
			c3.3,0,6.1,2.8,6.1,6.1S206.3,433,203,433L203,433z"/>
		<path class="st5" d="M203,422.3c-2.5,0-4.4,2-4.4,4.4c0,2.5,2,4.4,4.4,4.4c2.5,0,4.4-2,4.4-4.4l0,0
			C207.5,424.3,205.5,422.3,203,422.3z M203,429.6c-1.5,0-2.9-1.2-2.9-2.9c0-1.5,1.2-2.9,2.9-2.9c1.5,0,2.9,1.2,2.9,2.9
			C205.9,428.4,204.6,429.6,203,429.6z"/>
		<path class="st5" d="M171.6,409.3h20.6c0.4,0,0.8-0.4,0.8-0.8l0,0v-14.4c0-0.3-0.1-0.5-0.3-0.7l-10.3-7.4c-0.3-0.1-0.7-0.1-0.9,0
			l-10.3,7.4c-0.3,0.1-0.3,0.4-0.3,0.7v14.4C170.8,408.9,171.2,409.3,171.6,409.3z M178.8,407.6v-7.4c0-1.7,1.3-3.1,3.1-3.1
			c1.7,0,3.1,1.3,3.1,3.1v7.4H178.8z M172.4,394.5l9.5-6.8l9.5,6.8v13.1h-4.7v-7.4c0-2.5-2.1-4.7-4.7-4.7s-4.7,2.1-4.7,4.7l0,0v7.4
			h-4.7L172.4,394.5z"/>
		<path class="st5" d="M163.6,417h36.6c0.4,0,0.8-0.5,0.8-0.9c0-0.4-0.4-0.9-0.8-0.9h-36.6c-0.4,0-0.8,0.5-0.8,0.9
			S163.2,417,163.6,417z"/>
		<path class="st5" d="M180.8,421.6h-17.4c-0.4,0-0.8,0.5-0.8,1.1c0,0.5,0.4,1.1,0.8,1.1H181c0.4,0,0.8-0.5,0.8-1.1
			C181.8,422.1,181.4,421.6,180.8,421.6z"/>
	</g>
	<g>
		<path class="st4" d="M154,457.1v-11.7h3.3c1,0,1.9,0.2,2.7,0.7s1.4,1.1,1.8,1.9c0.4,0.8,0.6,1.8,0.6,2.9v0.8
			c0,1.1-0.2,2.1-0.6,2.9s-1,1.5-1.8,1.9c-0.8,0.4-1.7,0.7-2.8,0.7L154,457.1L154,457.1z M155.6,446.7v9.2h1.6
			c1.2,0,2.1-0.4,2.8-1.1c0.7-0.7,1-1.8,1-3.2v-0.7c0-1.3-0.3-2.4-0.9-3.1s-1.5-1.1-2.7-1.1L155.6,446.7L155.6,446.7z"/>
		<path class="st4" d="M171.4,451.7h-5.1v4.1h5.9v1.3h-7.4v-11.7h7.4v1.3h-5.8v3.8h5.1L171.4,451.7L171.4,451.7z"/>
		<path class="st4" d="M180.8,451.7h-5.1v4.1h5.9v1.3h-7.4v-11.7h7.4v1.3h-5.8v3.8h5.1L180.8,451.7L180.8,451.7z"/>
		<path class="st4" d="M183.5,457.1v-11.7h3.3c1,0,1.9,0.2,2.7,0.7s1.4,1.1,1.8,1.9c0.4,0.8,0.6,1.8,0.6,2.9v0.8
			c0,1.1-0.2,2.1-0.6,2.9s-1,1.5-1.8,1.9c-0.8,0.4-1.7,0.7-2.8,0.7L183.5,457.1L183.5,457.1z M185.1,446.7v9.2h1.6
			c1.2,0,2.1-0.4,2.8-1.1c0.7-0.7,1-1.8,1-3.2v-0.7c0-1.3-0.3-2.4-0.9-3.1s-1.5-1.1-2.7-1.1L185.1,446.7L185.1,446.7z"/>
		<path class="st4" d="M205.7,457.1H198v-1.1l4.1-4.5c0.6-0.7,1-1.2,1.2-1.7s0.3-0.9,0.3-1.3c0-0.6-0.2-1.1-0.6-1.5
			c-0.4-0.4-0.9-0.6-1.5-0.6c-0.7,0-1.3,0.2-1.7,0.6s-0.6,1-0.6,1.8h-1.5c0-1.1,0.4-2,1-2.6c0.7-0.7,1.6-1,2.8-1
			c1.1,0,1.9,0.3,2.6,0.9c0.6,0.6,0.9,1.3,0.9,2.3c0,1.1-0.7,2.5-2.2,4.1l-3.1,3.4h5.9L205.7,457.1L205.7,457.1z"/>
	</g>
</g>
<g>
	<g>
		<path class="st4" d="M339.1,348.9v4.6h-1.5v-11.7h4.3c1.3,0,2.3,0.3,3,1c0.7,0.6,1.1,1.5,1.1,2.6c0,1.1-0.4,2-1.1,2.6
			s-1.7,0.9-3,0.9H339.1z M339.1,347.6h2.8c0.8,0,1.5-0.2,1.9-0.6s0.7-1,0.7-1.7c0-0.7-0.2-1.3-0.7-1.7s-1-0.6-1.8-0.6h-2.9V347.6z"
			/>
		<path class="st4" d="M347.3,349c0-0.9,0.2-1.6,0.5-2.3s0.8-1.2,1.4-1.6s1.3-0.5,2-0.5c1.2,0,2.1,0.4,2.9,1.2
			c0.7,0.8,1.1,1.9,1.1,3.3v0.1c0,0.9-0.2,1.6-0.5,2.3c-0.3,0.7-0.8,1.2-1.4,1.6s-1.3,0.6-2.1,0.6c-1.2,0-2.1-0.4-2.9-1.2
			c-0.7-0.8-1.1-1.9-1.1-3.3L347.3,349L347.3,349z M348.8,349.2c0,1,0.2,1.7,0.7,2.3c0.5,0.6,1,0.9,1.8,0.9s1.4-0.3,1.8-0.9
			s0.7-1.4,0.7-2.5c0-1-0.2-1.7-0.7-2.3c-0.5-0.6-1-0.9-1.8-0.9c-0.7,0-1.3,0.3-1.8,0.9S348.8,348.1,348.8,349.2z"/>
		<path class="st4" d="M357,342.5c0-0.2,0.1-0.4,0.2-0.6c0.1-0.2,0.4-0.3,0.6-0.3c0.3,0,0.5,0.1,0.7,0.3s0.2,0.4,0.2,0.6
			s-0.1,0.4-0.2,0.6s-0.4,0.2-0.7,0.2s-0.5-0.1-0.6-0.2C357.1,342.9,357,342.7,357,342.5z M358.6,353.5h-1.5v-8.7h1.5V353.5z"/>
		<path class="st4" d="M362.4,344.8l0,1.1c0.7-0.8,1.5-1.3,2.6-1.3c1.8,0,2.8,1,2.8,3.1v5.8h-1.5v-5.8c0-0.6-0.1-1.1-0.4-1.4
			c-0.3-0.3-0.7-0.5-1.3-0.5c-0.5,0-0.9,0.1-1.3,0.4s-0.6,0.6-0.9,1v6.2H361v-8.7L362.4,344.8L362.4,344.8z"/>
		<path class="st4" d="M372.1,342.7v2.1h1.6v1.1h-1.6v5.4c0,0.4,0.1,0.6,0.2,0.8c0.1,0.2,0.4,0.3,0.7,0.3c0.2,0,0.4,0,0.7-0.1v1.2
			c-0.4,0.1-0.8,0.2-1.1,0.2c-0.7,0-1.2-0.2-1.5-0.6c-0.3-0.4-0.5-1-0.5-1.7v-5.4h-1.6v-1.1h1.6v-2.1H372.1z"/>
		<path class="st4" d="M380.5,351.2c0-0.4-0.1-0.7-0.5-0.9c-0.3-0.2-0.8-0.4-1.6-0.6c-0.8-0.2-1.4-0.4-1.8-0.6
			c-0.4-0.2-0.8-0.5-1-0.8s-0.3-0.7-0.3-1.1c0-0.7,0.3-1.3,0.9-1.8s1.4-0.7,2.3-0.7c1,0,1.8,0.3,2.4,0.8s0.9,1.2,0.9,2h-1.5
			c0-0.4-0.2-0.8-0.5-1s-0.8-0.4-1.3-0.4c-0.5,0-1,0.1-1.3,0.4c-0.3,0.2-0.5,0.5-0.5,0.9c0,0.4,0.1,0.6,0.4,0.8
			c0.3,0.2,0.8,0.4,1.5,0.5c0.7,0.2,1.3,0.4,1.8,0.6s0.8,0.5,1,0.8c0.2,0.3,0.3,0.7,0.3,1.2c0,0.8-0.3,1.4-0.9,1.9s-1.4,0.7-2.4,0.7
			c-0.7,0-1.3-0.1-1.9-0.4s-1-0.6-1.3-1c-0.3-0.4-0.5-0.9-0.5-1.4h1.5c0,0.5,0.2,0.9,0.6,1.2s0.9,0.4,1.5,0.4c0.6,0,1-0.1,1.4-0.3
			C380.4,351.9,380.5,351.5,380.5,351.2z"/>
	</g>
	<g>
		<g>
			<path class="st5" d="M384.1,269.9H378v2.1h6.1c0.5,0,0.9,0.3,1.1,0.5c0.5,0.5,0.7,1.2,0.6,2c-0.7,9.1-4.4,17.5-9.8,22.3
				c-0.8,1.7-1.8,3.2-2.9,4.6c8-4.1,13.8-14.6,14.8-26.7c0.1-1.3-0.3-2.6-1.2-3.6C386,270.3,385.1,269.9,384.1,269.9z"/>
			<path class="st5" d="M333.2,274.5c-0.1-0.8,0.2-1.5,0.6-2c0.2-0.3,0.6-0.5,1.1-0.5h6.1v-2.1H335c-1,0-2,0.4-2.7,1.2
				c-0.9,0.9-1.3,2.2-1.2,3.6c1,12.1,6.8,22.6,14.8,26.7c-1.2-1.4-2.2-2.9-2.9-4.6C337.6,292,334,283.6,333.2,274.5z"/>
		</g>
		<path class="st5" d="M379.7,261.9c1.1,0,2,0.9,2,2v3.4c0,1.1-0.9,2-2,2c0,0-0.5,0-1.3,0V288c0,0,0,0.3,0,0.5
			c0,8.6-5.8,15.9-13.7,18.1c-0.1,0-0.2,0.1-0.3,0.2c-0.9,1.3-2,3.6-2,7c0,3.7,0.8,6.1,1.3,7.5c0.1,0.2,0.2,0.3,0.4,0.3h0.5
			c3.5,0,6.4,2.9,6.4,6.4l0,0c0,0.3,0.2,0.5,0.5,0.5h3.1c1.4,0,2.5,1.1,2.5,2.5v1.1c0,1.4-1.1,2.5-2.5,2.5h-30.1
			c-1.4,0-2.5-1.1-2.5-2.5v-1.1c0-1.4,1.1-2.5,2.5-2.5h3.1c0.3,0,0.5-0.2,0.5-0.5l0,0c0-3.5,2.9-6.4,6.4-6.4h0.5
			c0.2,0,0.4-0.1,0.4-0.3c0.5-1.3,1.3-3.8,1.3-7.5c0-3.4-1.1-5.7-2-7c-0.1-0.1-0.1-0.1-0.3-0.2c-7.9-2.2-13.7-9.5-13.7-18.1
			c0-0.2,0-0.5,0-0.5v-18c0-0.3-0.2-0.5-0.5-0.5c-0.6,0-0.9,0-0.9,0c-1.1,0-2-0.9-2-2v-3c0-1.4,1.1-2.5,2.5-2.5L379.7,261.9
			 M379.7,260.6h-39.9c-2.1,0-3.8,1.7-3.8,3.8v6.3c0,1.7,1.3-0.2,2.9,0c0.2,0,0.4,0.2,0.4,0.5v16.7v0.5c0,8.8,5.8,16.7,14.2,19.3
			c0.1,0,0.2,0.1,0.3,0.2c0.8,1.2,1.5,3.1,1.5,5.8c0,3-0.5,5.1-1,6.4H354c-3.7,0-6.8,2.8-7.2,6.4c0,0.2-0.2,0.4-0.5,0.4h-1.8
			c-2.1,0-3.8,1.7-3.8,3.8v1.1c0,2.1,1.7,3.8,3.8,3.8h30.1c2.1,0,3.8-1.7,3.8-3.8v-1.1c0-2.1-1.7-3.8-3.8-3.8h-1.8
			c-0.2,0-0.4-0.2-0.5-0.4c-0.4-3.6-3.5-6.4-7.2-6.4h-0.4c-0.5-1.3-1-3.4-1-6.4c0-2.7,0.8-4.6,1.5-5.8c0.1-0.1,0.1-0.2,0.3-0.2
			c8.4-2.6,14.2-10.4,14.2-19.3v-0.5v-16.7c0-0.3,0.2-0.5,0.5-0.5l2.4,0c0.3,0,0.5-0.2,0.5-0.5V264
			C383.1,262.1,381.6,260.6,379.7,260.6L379.7,260.6z"/>
		<path class="st6" d="M339.4,269.5c-1.1,0-2-0.9-2-2V264c0-1.1,0.9-2,2-2h40.9c0.9,0,1.6,0.7,1.6,1.6v3.9c0,1.1-0.9,2-2,2
			C379.7,269.5,339.4,269.5,339.4,269.5z"/>
		<path class="st6" d="M375.6,334.4h-32.2c-0.8,0-1.5-0.6-1.5-1.5v-3.2c0-0.8,0.6-1.5,1.5-1.5h32.2c0.8,0,1.5,0.6,1.5,1.5v3.2
			C377.1,333.8,376.4,334.4,375.6,334.4z"/>
		<path class="st6" d="M354,321.5c-3.3,0-5.9,2.6-5.9,5.9v0.9H371v-0.9c0-3.3-2.6-5.9-5.9-5.9H354z"/>
		<g>
			<path class="st6" d="M364.5,306.6c8-2.2,13.9-9.5,13.9-18.2c0-0.2,0-0.5,0-0.5v-18.5h-37.7v18.5c0,0,0,0.3,0,0.5
				c0,8.7,5.9,16,13.9,18.2"/>
			<path class="st6" d="M354.6,306.6c0.9,1.3,2.1,3.6,2.1,7.1c0,4-0.9,6.5-1.4,7.7h8.6c-0.5-1.2-1.4-3.8-1.4-7.7
				c0-3.5,1.2-5.8,2.1-7.1c-1.6,0.4-3.3,0.7-5,0.7S356.1,307.1,354.6,306.6z"/>
			<path class="st6" d="M354.6,306.6c1.6,0.4,3.3,0.7,5,0.7s3.4-0.3,5-0.7"/>
		</g>
		<g>
			<path class="st5" d="M354.7,294.6c-0.3,0-0.6-0.1-0.8-0.3c-0.4-0.3-0.7-0.9-0.6-1.4l0.8-4.6l-3.4-3.3c-0.4-0.4-0.5-1-0.4-1.5
				s0.6-0.9,1.2-1l4.6-0.7l2.1-4.2c0.2-0.5,0.7-0.8,1.3-0.8l0,0c0.5,0,1,0.3,1.3,0.8l2.1,4.2l4.6,0.7c0.5,0.1,1,0.5,1.2,1
				c0.2,0.5,0,1.1-0.4,1.5l-3.4,3.3l0.8,4.6c0.1,0.5-0.1,1.1-0.6,1.4s-1,0.4-1.5,0.1l-4.2-2.2l-4.2,2.2
				C355.2,294.6,355,294.6,354.7,294.6z M359.5,278.3l-2.5,4.9l-5.3,0.8l-0.1,0.2l3.9,3.8l-0.9,5.3l0.5,0.7l-0.3-0.6l4.8-2.5
				l4.8,2.5l0.8-0.2l-0.7,0.1l-0.9-5.3l3.9-3.8l-0.1-0.2l-5.3-0.8L359.5,278.3C359.6,278.3,359.6,278.3,359.5,278.3z"/>
		</g>
	</g>
</g>
<g>
	<path class="st3" d="M624.1,276.7c-1.3-0.4-2.3-0.8-2.8-1.4c-0.6-0.5-0.9-1.2-0.9-2c0-0.9,0.4-1.6,1.1-2.3c0.7-0.6,1.7-0.9,2.8-0.9
		c0.8,0,1.5,0.1,2.1,0.5s1.1,0.7,1.4,1.3c0.3,0.5,0.5,1.1,0.5,1.8h-1.5c0-0.7-0.2-1.3-0.7-1.6s-1.1-0.6-1.9-0.6
		c-0.8,0-1.3,0.2-1.8,0.5s-0.6,0.8-0.6,1.4c0,0.5,0.2,0.9,0.6,1.2c0.4,0.3,1.1,0.6,2,0.9c1,0.3,1.7,0.6,2.2,0.9s0.9,0.7,1.2,1.1
		s0.4,0.9,0.4,1.5c0,0.9-0.4,1.7-1.1,2.2s-1.7,0.8-2.9,0.8c-0.8,0-1.5-0.1-2.2-0.5c-0.7-0.3-1.2-0.7-1.6-1.2s-0.6-1.1-0.6-1.8h1.5
		c0,0.7,0.3,1.2,0.8,1.6c0.5,0.4,1.2,0.6,2.1,0.6c0.8,0,1.4-0.2,1.8-0.5c0.4-0.3,0.6-0.8,0.6-1.3s-0.2-1-0.6-1.3
		S625.1,277,624.1,276.7z"/>
	<path class="st3" d="M638.2,271.6h-3.7v10.3H633v-10.3h-3.7v-1.2h8.9L638.2,271.6L638.2,271.6z"/>
	<path class="st3" d="M645.7,278.8h-4.8l-1.1,3h-1.6l4.4-11.5h1.3l4.4,11.5h-1.6L645.7,278.8z M641.3,277.6h3.9l-2-5.4L641.3,277.6z
		"/>
	<path class="st3" d="M652.8,276.5l-1.4,1.5v3.9h-1.5v-11.5h1.5v5.7l5.1-5.7h1.8l-4.5,5.1l4.9,6.4h-1.8L652.8,276.5z"/>
	<path class="st3" d="M666.5,276.5h-5v4.1h5.8v1.2H660v-11.5h7.2v1.2h-5.7v3.7h5L666.5,276.5L666.5,276.5z"/>
</g>
<g>
	<g>
		<path class="st3" d="M30.3,365.3c-1.3-0.4-2.3-0.8-2.8-1.4c-0.6-0.5-0.9-1.2-0.9-2c0-0.9,0.4-1.6,1.1-2.3c0.7-0.6,1.7-0.9,2.8-0.9
			c0.8,0,1.5,0.1,2.1,0.5c0.6,0.3,1.1,0.7,1.4,1.3c0.3,0.5,0.5,1.1,0.5,1.8H33c0-0.7-0.2-1.3-0.7-1.6c-0.4-0.4-1.1-0.6-1.9-0.6
			c-0.8,0-1.3,0.2-1.8,0.5c-0.4,0.3-0.6,0.8-0.6,1.4c0,0.5,0.2,0.9,0.6,1.2s1.1,0.6,2,0.9c1,0.3,1.7,0.6,2.2,0.9s0.9,0.7,1.2,1.1
			c0.3,0.4,0.4,0.9,0.4,1.5c0,0.9-0.4,1.7-1.1,2.2s-1.7,0.8-2.9,0.8c-0.8,0-1.5-0.1-2.2-0.5c-0.7-0.3-1.2-0.7-1.6-1.2
			c-0.4-0.5-0.6-1.1-0.6-1.8h1.5c0,0.7,0.3,1.2,0.8,1.6s1.2,0.6,2.1,0.6c0.8,0,1.4-0.2,1.8-0.5c0.4-0.3,0.6-0.8,0.6-1.3
			s-0.2-1-0.6-1.3C32,365.9,31.3,365.6,30.3,365.3z"/>
		<path class="st3" d="M43,365.1h-5v4.1h5.8v1.2h-7.3v-11.5h7.2v1.2H38v3.7h5C43,363.8,43,365.1,43,365.1z"/>
		<path class="st3" d="M47.2,369.1h5.5v1.2h-7v-11.5h1.5V369.1z"/>
		<path class="st3" d="M55.9,369.1h5.5v1.2h-7v-11.5h1.5V369.1z"/>
	</g>
</g>
<g>
	<path class="st7" d="M136.2,418.7c-1.2,0-2.3-0.5-3.1-1.3c-1.7-1.7-1.7-4.5,0-6.3c0.8-0.8,1.9-1.3,3.1-1.3s2.3,0.5,3.1,1.3
		c1.7,1.7,1.7,4.5,0,6.3C138.5,418.3,137.4,418.7,136.2,418.7z"/>
	<path class="st8" d="M136.2,410.4c1,0,2,0.4,2.8,1.1c1.5,1.5,1.5,4,0,5.6c-0.8,0.8-1.8,1.1-2.8,1.1s-2-0.4-2.8-1.1
		c-1.5-1.5-1.5-4,0-5.6C134.2,410.8,135.2,410.4,136.2,410.4 M136.2,409.4c-1.3,0-2.6,0.5-3.5,1.5c-0.9,0.9-1.4,2.2-1.4,3.5
		s0.5,2.6,1.4,3.5c0.9,0.9,2.2,1.5,3.5,1.5s2.6-0.5,3.5-1.5c0.9-0.9,1.4-2.2,1.4-3.5s-0.5-2.6-1.4-3.5
		C138.7,409.9,137.5,409.4,136.2,409.4L136.2,409.4z"/>
</g>
<g>
	<path class="st7" d="M68.2,120.8c-1.2,0-2.3-0.5-3.1-1.3c-1.7-1.7-1.7-4.6,0-6.3c0.8-0.8,1.9-1.3,3.1-1.3s2.3,0.5,3.1,1.3
		c1.7,1.7,1.7,4.6,0,6.3C70.5,120.3,69.4,120.8,68.2,120.8z"/>
	<path class="st8" d="M68.2,112.4c1,0,2,0.4,2.8,1.2c1.5,1.5,1.5,4,0,5.6c-0.8,0.8-1.8,1.2-2.8,1.2c-1,0-2-0.4-2.8-1.2
		c-1.5-1.5-1.5-4,0-5.6C66.2,112.8,67.2,112.4,68.2,112.4 M68.2,111.4c-1.3,0-2.6,0.5-3.5,1.4c-1.9,1.9-1.9,5.1,0,7
		c0.9,0.9,2.2,1.4,3.5,1.4s2.6-0.5,3.5-1.4c0.9-0.9,1.4-2.2,1.4-3.5s-0.5-2.6-1.4-3.5C70.7,111.9,69.5,111.4,68.2,111.4L68.2,111.4z
		"/>
</g>
<g>
	<path class="st7" d="M313.9,63.5c-1.2,0-2.3-0.5-3.1-1.3c-1.7-1.7-1.7-4.5,0-6.3c0.8-0.8,2-1.3,3.1-1.3s2.3,0.5,3.1,1.3
		c1.7,1.7,1.7,4.5,0,6.3C316.2,63.1,315.1,63.5,313.9,63.5z"/>
	<path class="st8" d="M313.9,55.2c1,0,2,0.4,2.8,1.2c1.5,1.5,1.5,4,0,5.6c-0.8,0.8-1.8,1.2-2.8,1.2c-1,0-2-0.4-2.8-1.2
		c-1.5-1.5-1.5-4,0-5.6C311.9,55.5,312.9,55.2,313.9,55.2 M313.9,54.2c-1.3,0-2.6,0.5-3.5,1.5c-0.9,0.9-1.5,2.2-1.5,3.5
		s0.5,2.6,1.5,3.5c0.9,0.9,2.2,1.4,3.5,1.4s2.6-0.5,3.5-1.5c1.9-1.9,1.9-5.1,0-7C316.5,54.7,315.2,54.2,313.9,54.2L313.9,54.2z"/>
</g>
<g>
	<path class="st7" d="M183.2,254c-1.2,0-2.3-0.5-3.1-1.3c-1.7-1.7-1.7-4.6,0-6.3c0.8-0.8,1.9-1.3,3.1-1.3s2.3,0.5,3.1,1.3
		c1.7,1.7,1.7,4.6,0,6.3C185.5,253.6,184.4,254,183.2,254z"/>
	<path class="st8" d="M183.2,245.6c1,0,2,0.4,2.8,1.1c1.5,1.5,1.5,4,0,5.6c-0.8,0.8-1.8,1.1-2.8,1.1c-1,0-2-0.4-2.8-1.1
		c-1.5-1.5-1.5-4,0-5.6C181.2,246,182.2,245.6,183.2,245.6 M183.2,244.6c-1.3,0-2.6,0.5-3.5,1.4c-1.9,1.9-1.9,5.1,0,7
		c0.9,0.9,2.2,1.4,3.5,1.4s2.6-0.5,3.5-1.4c1.9-1.9,1.9-5.1,0-7C185.7,245.2,184.5,244.6,183.2,244.6L183.2,244.6z"/>
</g>
<g>
	<path class="st7" d="M537.1,63.3c-1.2,0-2.3-0.5-3.1-1.3c-1.7-1.7-1.7-4.5,0-6.3c0.8-0.8,2-1.3,3.1-1.3s2.3,0.5,3.1,1.3
		c1.7,1.7,1.7,4.5,0,6.3C539.4,62.9,538.3,63.3,537.1,63.3z"/>
	<path class="st8" d="M537.1,55c1,0,2,0.4,2.8,1.2c1.5,1.5,1.5,4,0,5.6c-0.8,0.8-1.8,1.2-2.8,1.2s-2-0.4-2.8-1.2
		c-1.5-1.5-1.5-4,0-5.6C535.1,55.3,536.1,55,537.1,55 M537.1,54c-1.3,0-2.6,0.5-3.5,1.5c-1.9,1.9-1.9,5.1,0,7
		c0.9,0.9,2.2,1.5,3.5,1.5s2.6-0.5,3.5-1.5c0.9-0.9,1.5-2.2,1.5-3.5s-0.5-2.6-1.5-3.5C539.7,54.5,538.4,54,537.1,54L537.1,54z"/>
</g>
<g>
	<path class="st7" d="M462.4,313.5c-1.2,0-2.3-0.5-3.1-1.3c-1.7-1.7-1.7-4.5,0-6.3c0.8-0.8,2-1.3,3.1-1.3s2.3,0.5,3.1,1.3
		c1.7,1.7,1.7,4.5,0,6.3C464.7,313,463.5,313.5,462.4,313.5z"/>
	<path class="st8" d="M462.4,305.1c1,0,2,0.4,2.8,1.1c1.5,1.5,1.5,4,0,5.6c-0.8,0.8-1.8,1.1-2.8,1.1c-1,0-2-0.4-2.8-1.1
		c-1.5-1.5-1.5-4,0-5.6C460.3,305.5,461.4,305.1,462.4,305.1 M462.4,304.1c-1.3,0-2.6,0.5-3.5,1.5c-0.9,0.9-1.5,2.2-1.5,3.5
		s0.5,2.6,1.5,3.5c0.9,0.9,2.2,1.5,3.5,1.5c1.3,0,2.6-0.5,3.5-1.5c1.9-1.9,1.9-5.1,0-7C464.9,304.6,463.7,304.1,462.4,304.1
		L462.4,304.1z"/>
</g>
<g>
	<path class="st7" d="M624.9,248.8c-0.8,0-1.5-0.2-2.2-0.6c-1-0.6-1.8-1.6-2.1-2.7s-0.2-2.3,0.4-3.4c0.8-1.4,2.3-2.2,3.8-2.2
		c0.8,0,1.5,0.2,2.2,0.6c2.1,1.2,2.8,3.9,1.6,6.1C627.9,247.9,626.5,248.8,624.9,248.8z"/>
	<path class="st8" d="M624.9,240.4c0.7,0,1.3,0.2,2,0.5c1.9,1.1,2.5,3.5,1.4,5.4c-0.7,1.3-2,2-3.4,2c-0.7,0-1.3-0.2-2-0.5
		c-1.9-1.1-2.5-3.5-1.4-5.4C622.2,241.1,623.5,240.4,624.9,240.4 M624.9,239.4L624.9,239.4c-1.8,0-3.4,0.9-4.3,2.5
		c-1.4,2.4-0.5,5.4,1.8,6.8c0.8,0.4,1.6,0.7,2.5,0.7c1.8,0,3.4-0.9,4.3-2.5c1.4-2.4,0.5-5.4-1.8-6.8
		C626.6,239.6,625.7,239.4,624.9,239.4L624.9,239.4z"/>
</g>
<g>
	<path class="st7" d="M327.9,313.5c-1.2,0-2.3-0.5-3.1-1.3c-1.7-1.7-1.7-4.5,0-6.3c0.8-0.8,2-1.3,3.1-1.3s2.3,0.5,3.1,1.3
		c1.7,1.7,1.7,4.5,0,6.3C330.2,313,329.1,313.5,327.9,313.5z"/>
	<path class="st8" d="M327.9,305.1c1,0,2,0.4,2.8,1.1c1.5,1.5,1.5,4,0,5.6c-0.8,0.8-1.8,1.1-2.8,1.1c-1,0-2-0.4-2.8-1.1
		c-1.5-1.5-1.5-4,0-5.6C325.9,305.5,326.9,305.1,327.9,305.1 M327.9,304.1c-1.3,0-2.6,0.5-3.5,1.5c-0.9,0.9-1.5,2.2-1.5,3.5
		s0.5,2.6,1.5,3.5c0.9,0.9,2.2,1.5,3.5,1.5c1.3,0,2.6-0.5,3.5-1.5c1.9-1.9,1.9-5.1,0-7C330.5,304.6,329.2,304.1,327.9,304.1
		L327.9,304.1z"/>
</g>
<g>
	<path class="st7" d="M390.5,314.9c-0.3,0-0.7-0.1-0.9-0.4l-4.4-4.4c-0.3-0.3-0.4-0.6-0.4-0.9s0.1-0.7,0.4-0.9l4.6-4.6
		c0.3-0.3,0.6-0.4,1-0.4c0.4,0,0.7,0.1,0.9,0.4c0.2,0.2,0.4,0.6,0.4,0.9l-0.2,9C391.8,314.3,391.2,314.9,390.5,314.9z"/>
	<path class="st8" d="M390.8,303.7c0.4,0,0.8,0.3,0.8,0.8l-0.2,9c0,0.5-0.4,0.8-0.9,0.8c-0.2,0-0.4-0.1-0.5-0.2l-4.4-4.4
		c-0.3-0.3-0.3-0.8,0-1.1l4.6-4.6C390.3,303.8,390.5,303.7,390.8,303.7 M390.8,302.7L390.8,302.7c-0.5,0-1,0.2-1.3,0.5l-4.6,4.6
		c-0.7,0.7-0.7,1.9,0,2.6l4.4,4.4c0.3,0.3,0.8,0.5,1.3,0.5c1,0,1.8-0.8,1.9-1.8l0.2-9c0-0.5-0.2-0.9-0.5-1.3
		C391.7,302.9,391.2,302.7,390.8,302.7L390.8,302.7z"/>
</g>
<g>
	<path class="st7" d="M175.6,64.9c-0.4,0-0.7-0.1-0.9-0.4c-0.2-0.2-0.4-0.6-0.4-0.9l0.2-9c0-0.7,0.6-1.3,1.4-1.3
		c0.3,0,0.7,0.1,0.9,0.4l4.4,4.4c0.5,0.5,0.5,1.3,0,1.9l-4.6,4.6C176.3,64.7,175.9,64.9,175.6,64.9z"/>
	<path class="st8" d="M175.9,53.7c0.2,0,0.4,0.1,0.6,0.2l4.4,4.4c0.3,0.3,0.3,0.8,0,1.2l-4.6,4.6c-0.2,0.2-0.4,0.3-0.6,0.3
		c-0.4,0-0.8-0.3-0.8-0.8l0.2-9C175,54,175.4,53.7,175.9,53.7 M175.9,52.7L175.9,52.7c-1,0-1.8,0.8-1.9,1.8l-0.2,9
		c0,0.5,0.2,0.9,0.5,1.3s0.8,0.5,1.3,0.5c0.5,0,0.9-0.2,1.3-0.6l4.6-4.6c0.7-0.7,0.7-1.9,0-2.6l-4.4-4.4
		C176.8,52.9,176.3,52.7,175.9,52.7L175.9,52.7z"/>
</g>
<g>
	<path class="st7" d="M417.9,64.9c-0.4,0-0.7-0.1-0.9-0.4c-0.2-0.2-0.4-0.6-0.4-0.9l0.2-9c0-0.7,0.6-1.3,1.4-1.3
		c0.3,0,0.7,0.1,0.9,0.4l4.4,4.4c0.5,0.5,0.5,1.3,0,1.9l-4.6,4.6C418.6,64.7,418.2,64.9,417.9,64.9z"/>
	<path class="st8" d="M418.2,53.7c0.2,0,0.4,0.1,0.5,0.2l4.4,4.4c0.3,0.3,0.3,0.8,0,1.2l-4.6,4.6c-0.2,0.2-0.4,0.3-0.6,0.3
		c-0.4,0-0.8-0.3-0.8-0.8l0.2-9C417.3,54,417.7,53.7,418.2,53.7 M418.2,52.7L418.2,52.7c-1,0-1.8,0.8-1.9,1.8l-0.2,9
		c0,0.5,0.2,0.9,0.5,1.3s0.8,0.5,1.3,0.5c0.5,0,1-0.2,1.3-0.6l4.6-4.6c0.7-0.7,0.7-1.9,0-2.6l-4.4-4.4
		C419.1,52.9,418.6,52.7,418.2,52.7L418.2,52.7z"/>
</g>
<g>
	<path class="st7" d="M578,184.2c-0.3,0-0.7-0.1-0.9-0.4c-0.2-0.2-0.4-0.6-0.4-0.9l0.2-9.1c0-0.7,0.6-1.3,1.3-1.3
		c0.3,0,0.7,0.1,0.9,0.4l4.4,4.4c0.5,0.5,0.5,1.3,0,1.9l-4.6,4.6C578.7,184.1,578.4,184.2,578,184.2z"/>
	<path class="st8" d="M578.3,173c0.2,0,0.4,0.1,0.5,0.2l4.4,4.4c0.3,0.3,0.3,0.8,0,1.1l-4.6,4.6c-0.2,0.2-0.4,0.3-0.6,0.3
		c-0.4,0-0.8-0.3-0.8-0.8l0.2-9.1C577.5,173.4,577.9,173,578.3,173 M578.3,172L578.3,172c-1,0-1.8,0.8-1.8,1.8l-0.2,9.1
		c0,0.5,0.2,0.9,0.5,1.3s0.8,0.5,1.3,0.5c0.5,0,1-0.2,1.3-0.6l4.6-4.6c0.7-0.7,0.7-1.9,0-2.6l-4.4-4.4
		C579.2,172.2,578.8,172,578.3,172L578.3,172z"/>
</g>
<g>
	<path class="st7" d="M585.9,292.4c-0.7,0-1.3-0.6-1.3-1.3l0.1-6.5c0-0.7,0.6-1.3,1.3-1.3c0.3,0,0.7,0.1,0.9,0.4l6.2,6.6
		c0.4,0.4,0.5,1,0.3,1.5c-0.2,0.5-0.7,0.8-1.2,0.8L585.9,292.4z"/>
	<path class="st8" d="M586,283.7c0.2,0,0.4,0.1,0.6,0.3l6.2,6.6c0.5,0.5,0.1,1.4-0.6,1.4h0l-6.3-0.1c-0.4,0-0.8-0.4-0.8-0.8l0.1-6.5
		C585.2,284,585.6,283.7,586,283.7 M586,282.7L586,282.7c-1,0-1.8,0.8-1.8,1.8l-0.1,6.5c0,0.5,0.2,0.9,0.5,1.3
		c0.3,0.4,0.8,0.6,1.3,0.6l6.3,0.1c0.7,0,1.4-0.4,1.7-1.1c0.3-0.7,0.2-1.5-0.3-2l-6.2-6.6C586.9,282.9,586.5,282.7,586,282.7
		L586,282.7z"/>
</g>
<g>
	<path class="st7" d="M230.9,314.9c-0.3,0-0.7-0.1-0.9-0.4l-4.4-4.4c-0.5-0.5-0.5-1.3,0-1.9l4.6-4.6c0.3-0.3,0.6-0.4,0.9-0.4
		c0.4,0,0.7,0.1,0.9,0.4c0.2,0.2,0.4,0.6,0.4,0.9l-0.2,9C232.2,314.3,231.6,314.9,230.9,314.9z"/>
	<path class="st8" d="M231.1,303.7c0.4,0,0.8,0.3,0.8,0.8l-0.2,9c0,0.5-0.4,0.8-0.9,0.8c-0.2,0-0.4-0.1-0.6-0.2l-4.4-4.4
		c-0.3-0.3-0.3-0.8,0-1.1l4.6-4.6C230.7,303.8,230.9,303.7,231.1,303.7 M231.1,302.7L231.1,302.7c-0.5,0-0.9,0.2-1.3,0.5l-4.6,4.6
		c-0.7,0.7-0.7,1.9,0,2.6l4.4,4.4c0.3,0.3,0.8,0.5,1.3,0.5c1,0,1.8-0.8,1.9-1.8l0.2-9c0-0.5-0.2-0.9-0.5-1.3
		C232.1,302.9,231.6,302.7,231.1,302.7L231.1,302.7z"/>
</g>
<g>
	<path class="st7" d="M51.8,252.5c-0.5,0-1-0.4-1.2-0.9s-0.1-1,0.3-1.4l4.4-4.4c0.2-0.2,0.6-0.4,0.9-0.4c0.4,0,0.7,0.1,1,0.4
		l4.6,4.6c0.4,0.4,0.5,0.9,0.3,1.4c-0.2,0.5-0.7,0.8-1.2,0.8L51.8,252.5z"/>
	<path class="st8" d="M56.2,245.9c0.2,0,0.4,0.1,0.6,0.3l4.6,4.6c0.5,0.5,0.2,1.4-0.5,1.4c0,0,0,0,0,0l-9-0.2
		c-0.7,0-1.1-0.9-0.6-1.4l4.4-4.4C55.8,246,56,245.9,56.2,245.9 M56.2,244.9c-0.5,0-0.9,0.2-1.3,0.5l-4.4,4.4
		c-0.5,0.5-0.7,1.3-0.4,1.9c0.3,0.7,0.9,1.1,1.7,1.2l9,0.2l0,0c0.8,0,1.4-0.4,1.7-1.1c0.3-0.7,0.1-1.5-0.4-2l-4.6-4.6
		C57.2,245.1,56.7,244.9,56.2,244.9L56.2,244.9z"/>
</g>
<g>
	<path class="st7" d="M621.9,120.5c-0.2,0-0.3,0-0.5-0.1l-6.1-2.4c-0.5-0.2-0.8-0.7-0.8-1.2c0-0.5,0.3-1,0.8-1.2l8.4-3.4
		c0.2-0.1,0.3-0.1,0.5-0.1c0.5,0,0.9,0.2,1.1,0.6c0.2,0.4,0.3,0.8,0.1,1.2l-2.3,5.8C622.9,120.2,622.4,120.5,621.9,120.5z"/>
	<path class="st8" d="M624.2,112.6c0.5,0,1,0.6,0.8,1.1l-2.3,5.8c-0.1,0.3-0.4,0.5-0.7,0.5c-0.1,0-0.2,0-0.3-0.1l-6.1-2.4
		c-0.7-0.3-0.7-1.2,0-1.5l8.4-3.4C624,112.6,624.1,112.6,624.2,112.6 M624.2,111.6L624.2,111.6c-0.2,0-0.5,0-0.7,0.1l-8.4,3.4
		c-0.7,0.3-1.1,0.9-1.1,1.6c0,0.7,0.5,1.4,1.2,1.7l6.1,2.4c0.2,0.1,0.5,0.1,0.7,0.1c0.7,0,1.4-0.4,1.7-1.1l2.3-5.8
		c0.2-0.6,0.2-1.2-0.2-1.7C625.4,111.9,624.8,111.6,624.2,111.6L624.2,111.6z"/>
</g>
<g>
	<g>
		<path class="st5" d="M76.8,347c0-1,0.6-1.8,1.6-2.2l0,0c-0.9-0.4-1.3-1.1-1.3-1.8c0-1.3,1.1-2.2,2.5-2.2c1.6,0,2.4,1,2.4,2
			c0,0.7-0.3,1.4-1.3,1.9v0c1,0.4,1.7,1.1,1.7,2.1c0,1.4-1.2,2.4-2.8,2.4C77.9,349.2,76.8,348.2,76.8,347z M81.3,346.9
			c0-1-0.7-1.5-1.8-1.8c-1,0.3-1.5,0.9-1.5,1.7c0,0.8,0.6,1.6,1.6,1.6C80.6,348.4,81.3,347.8,81.3,346.9z M78.2,342.8
			c0,0.8,0.6,1.3,1.6,1.5c0.7-0.2,1.3-0.7,1.3-1.5c0-0.7-0.4-1.3-1.4-1.3C78.7,341.5,78.2,342.1,78.2,342.8z"/>
	</g>
	<g>
		<path class="st5" d="M79.6,353.6c-4.6,0-8.4-3.8-8.4-8.4s3.8-8.4,8.4-8.4s8.4,3.8,8.4,8.4C88,349.8,84.2,353.6,79.6,353.6z
			 M79.6,337.4c-4.3,0-7.8,3.5-7.8,7.9s3.5,7.9,7.8,7.9s7.8-3.5,7.8-7.9S83.9,337.4,79.6,337.4z"/>
	</g>
</g>
<g>
	<g>
		<path class="st5" d="M118.5,93.9h-1.1v-7.4l-2.3,0.8v-1l3.2-1.2h0.2L118.5,93.9L118.5,93.9z"/>
	</g>
	<g>
		<path class="st5" d="M117.5,97.9c-4.6,0-8.4-3.8-8.4-8.4s3.8-8.4,8.4-8.4s8.4,3.8,8.4,8.4C125.9,94.1,122.1,97.9,117.5,97.9z
			 M117.5,81.7c-4.3,0-7.8,3.5-7.8,7.8s3.5,7.8,7.8,7.8s7.8-3.5,7.8-7.8S121.8,81.7,117.5,81.7z"/>
	</g>
</g>
<g>
	<g>
		<path class="st5" d="M573.1,89h0.8c0.5,0,0.9-0.2,1.2-0.4s0.5-0.6,0.5-1.1c0-1-0.5-1.5-1.5-1.5c-0.5,0-0.9,0.1-1.2,0.4
			c-0.3,0.3-0.4,0.6-0.4,1.1h-1.1c0-0.7,0.3-1.3,0.8-1.7c0.5-0.5,1.2-0.7,1.9-0.7c0.8,0,1.5,0.2,2,0.7c0.5,0.4,0.7,1.1,0.7,1.8
			c0,0.4-0.1,0.8-0.4,1.1s-0.6,0.6-1,0.8c0.5,0.2,0.9,0.4,1.1,0.8s0.4,0.8,0.4,1.3c0,0.8-0.3,1.4-0.8,1.9c-0.5,0.5-1.2,0.7-2,0.7
			s-1.5-0.2-2-0.7c-0.5-0.4-0.8-1-0.8-1.8h1.1c0,0.5,0.2,0.8,0.5,1.1s0.7,0.4,1.2,0.4c0.5,0,1-0.1,1.2-0.4s0.4-0.7,0.4-1.2
			c0-0.5-0.2-0.9-0.5-1.2c-0.3-0.3-0.8-0.4-1.4-0.4h-0.8L573.1,89L573.1,89z"/>
	</g>
	<g>
		<path class="st5" d="M574.1,97.9c-4.6,0-8.4-3.8-8.4-8.4s3.8-8.4,8.4-8.4s8.4,3.8,8.4,8.4C582.5,94.1,578.7,97.9,574.1,97.9z
			 M574.1,81.7c-4.3,0-7.8,3.5-7.8,7.8s3.5,7.8,7.8,7.8c4.3,0,7.8-3.5,7.8-7.8S578.4,81.7,574.1,81.7z"/>
	</g>
</g>
<g>
	<g>
		<path class="st5" d="M370.5,80.1h-5.8v-0.8l3-3.4c0.5-0.5,0.8-0.9,0.9-1.3c0.2-0.3,0.3-0.7,0.3-1c0-0.5-0.1-0.8-0.4-1.1
			c-0.3-0.3-0.6-0.4-1.1-0.4c-0.6,0-1,0.2-1.3,0.5c-0.3,0.3-0.5,0.8-0.5,1.3h-1.1c0-0.8,0.3-1.5,0.8-2s1.2-0.8,2.1-0.8
			c0.8,0,1.5,0.2,1.9,0.6c0.5,0.4,0.7,1,0.7,1.7c0,0.9-0.5,1.9-1.6,3.1l-2.4,2.6h4.4V80.1z"/>
	</g>
	<g>
		<path class="st5" d="M367.5,84.2c-4.6,0-8.4-3.8-8.4-8.4s3.8-8.4,8.4-8.4s8.4,3.8,8.4,8.4C375.9,80.4,372.1,84.2,367.5,84.2z
			 M367.5,68c-4.3,0-7.9,3.5-7.9,7.8s3.5,7.8,7.9,7.8c4.3,0,7.9-3.5,7.9-7.8C375.4,71.5,371.8,68,367.5,68z"/>
	</g>
</g>
<g>
	<g>
		<path class="st5" d="M597,265.4c-4.6,0-8.4-3.8-8.4-8.4s3.8-8.4,8.4-8.4s8.4,3.8,8.4,8.4C605.3,261.6,601.6,265.4,597,265.4z
			 M597,249.1c-4.3,0-7.8,3.5-7.8,7.8s3.5,7.9,7.8,7.9c4.3,0,7.8-3.5,7.8-7.9C604.8,252.7,601.3,249.1,597,249.1z"/>
	</g>
	<g>
		<path class="st5" d="M598.9,258.4h1.2v0.9h-1.2v2h-1.1v-2h-4v-0.7l3.9-6.1h1.2V258.4z M595.1,258.4h2.7v-4.3l-0.1,0.2L595.1,258.4
			z"/>
	</g>
</g>
<g>
	<g>
		<path class="st5" d="M425.8,301.6c-4.6,0-8.4-3.8-8.4-8.4s3.8-8.4,8.4-8.4s8.4,3.8,8.4,8.4C434.2,297.9,430.5,301.6,425.8,301.6z
			 M425.8,285.4c-4.3,0-7.9,3.5-7.9,7.9c0,4.3,3.5,7.9,7.9,7.9s7.9-3.5,7.9-7.9S430.2,285.4,425.8,285.4z"/>
	</g>
	<g>
		<path class="st5" d="M423.4,293.2l0.5-4.4h4.5v1h-3.5l-0.3,2.4c0.4-0.3,0.9-0.4,1.5-0.4c0.8,0,1.4,0.3,1.9,0.8s0.7,1.2,0.7,2.1
			c0,0.9-0.2,1.6-0.7,2.1c-0.5,0.5-1.2,0.8-2,0.8c-0.8,0-1.4-0.2-1.9-0.6s-0.8-1-0.8-1.8h1.1c0.1,0.5,0.3,0.9,0.5,1.1
			s0.7,0.4,1.1,0.4c0.5,0,0.9-0.2,1.2-0.5s0.4-0.8,0.4-1.5c0-0.6-0.2-1.1-0.5-1.4c-0.3-0.4-0.7-0.5-1.3-0.5c-0.5,0-0.9,0.1-1.1,0.3
			l-0.3,0.2L423.4,293.2z"/>
	</g>
</g>
<g class="st9">
	<g>
		<path class="st3" d="M360.2,420.2c-0.2,2-1,3.5-2.2,4.5s-2.8,1.6-4.9,1.6c-2.2,0-3.9-0.8-5.3-2.4s-2-3.7-2-6.3v-1.8
			c0-1.7,0.3-3.2,0.9-4.5c0.6-1.3,1.5-2.3,2.6-3c1.1-0.7,2.4-1,3.9-1c2,0,3.5,0.5,4.7,1.6s1.9,2.6,2.1,4.6h-2.5
			c-0.2-1.5-0.7-2.5-1.4-3.2s-1.7-1-3-1c-1.6,0-2.8,0.6-3.7,1.7c-0.9,1.1-1.3,2.8-1.3,4.9v1.8c0,2,0.4,3.6,1.3,4.8s2,1.8,3.5,1.8
			c1.4,0,2.4-0.3,3.1-0.9c0.7-0.6,1.2-1.7,1.4-3.2L360.2,420.2L360.2,420.2z"/>
		<path class="st3" d="M371.6,426.1c-0.1-0.3-0.3-0.8-0.3-1.5c-1.1,1.1-2.4,1.7-3.9,1.7c-1.4,0-2.5-0.4-3.3-1.1s-1.3-1.7-1.3-2.9
			c0-1.4,0.5-2.5,1.6-3.3c1.1-0.8,2.6-1.2,4.6-1.2h2.3v-1.1c0-0.8-0.3-1.5-0.7-2c-0.5-0.5-1.2-0.7-2.2-0.7c-0.8,0-1.5,0.2-2.1,0.6
			c-0.6,0.4-0.9,0.9-0.9,1.5H363c0-0.7,0.2-1.4,0.7-2s1.1-1.1,2-1.5c0.8-0.4,1.8-0.6,2.8-0.6c1.6,0,2.8,0.4,3.7,1.2
			c0.9,0.8,1.4,1.9,1.4,3.3v6.3c0,1.3,0.2,2.3,0.5,3v0.2L371.6,426.1L371.6,426.1z M367.7,424.3c0.7,0,1.4-0.2,2.1-0.6
			s1.1-0.9,1.4-1.5v-2.8h-1.8c-2.9,0-4.3,0.8-4.3,2.5c0,0.7,0.3,1.3,0.7,1.7S366.9,424.3,367.7,424.3z"/>
		<path class="st3" d="M388.9,419.4c0,2.1-0.5,3.8-1.4,5.1s-2.3,1.9-3.9,1.9c-1.7,0-3-0.5-3.9-1.6v6.6h-2.4v-19h2.1l0.1,1.5
			c1-1.2,2.3-1.8,4-1.8c1.6,0,3,0.6,3.9,1.9c1,1.3,1.4,3,1.4,5.2L388.9,419.4L388.9,419.4z M386.5,419.1c0-1.5-0.3-2.8-1-3.7
			c-0.7-0.9-1.6-1.4-2.7-1.4c-1.4,0-2.5,0.6-3.2,1.9v6.6c0.7,1.3,1.8,1.9,3.2,1.9c1.1,0,2-0.5,2.7-1.3
			C386.2,422.2,386.5,420.9,386.5,419.1z"/>
		<path class="st3" d="M391.9,408.7c0-0.4,0.1-0.7,0.4-1c0.2-0.3,0.6-0.4,1-0.4c0.5,0,0.8,0.1,1,0.4c0.2,0.3,0.4,0.6,0.4,1
			c0,0.4-0.1,0.7-0.4,1s-0.6,0.4-1,0.4c-0.5,0-0.8-0.1-1-0.4C392,409.4,391.9,409.1,391.9,408.7z M394.4,426.1h-2.4v-13.8h2.4V426.1
			z"/>
		<path class="st3" d="M401.4,409v3.3h2.6v1.8h-2.6v8.5c0,0.5,0.1,1,0.3,1.2c0.2,0.3,0.6,0.4,1.2,0.4c0.3,0,0.6,0,1.1-0.1v1.9
			c-0.6,0.2-1.2,0.3-1.8,0.3c-1,0-1.8-0.3-2.4-1c-0.5-0.6-0.8-1.5-0.8-2.7v-8.5h-2.5v-1.8h2.5V409H401.4z"/>
		<path class="st3" d="M415.2,426.1c-0.1-0.3-0.3-0.8-0.3-1.5c-1.1,1.1-2.4,1.7-3.9,1.7c-1.4,0-2.5-0.4-3.3-1.1s-1.3-1.7-1.3-2.9
			c0-1.4,0.5-2.5,1.6-3.3c1.1-0.8,2.6-1.2,4.6-1.2h2.3v-1.1c0-0.8-0.3-1.5-0.7-2c-0.5-0.5-1.2-0.7-2.2-0.7c-0.8,0-1.5,0.2-2.1,0.6
			c-0.6,0.4-0.9,0.9-0.9,1.5h-2.4c0-0.7,0.2-1.4,0.7-2s1.1-1.1,2-1.5c0.8-0.4,1.8-0.6,2.8-0.6c1.6,0,2.8,0.4,3.7,1.2
			c0.9,0.8,1.4,1.9,1.4,3.3v6.3c0,1.3,0.2,2.3,0.5,3v0.2L415.2,426.1L415.2,426.1z M411.3,424.3c0.7,0,1.4-0.2,2.1-0.6
			s1.1-0.9,1.4-1.5v-2.8H413c-2.9,0-4.3,0.8-4.3,2.5c0,0.7,0.3,1.3,0.7,1.7S410.5,424.3,411.3,424.3z"/>
		<path class="st3" d="M423.4,426.1h-2.4v-19.5h2.4V426.1z"/>
		<path class="st3" d="M436.6,426.1h-2.4v-18.5h2.4V426.1z"/>
		<path class="st3" d="M442.9,412.3l0.1,1.7c1-1.3,2.4-2,4.1-2c2.9,0,4.4,1.6,4.4,4.9v9.1h-2.4V417c0-1-0.2-1.7-0.7-2.2
			c-0.4-0.5-1.1-0.7-2.1-0.7c-0.8,0-1.4,0.2-2,0.6c-0.6,0.4-1,0.9-1.4,1.6v9.8h-2.4v-13.8L442.9,412.3L442.9,412.3z"/>
		<path class="st3" d="M459.6,422.9l3.4-10.6h2.4l-4.9,13.8h-1.8l-5-13.8h2.4L459.6,422.9z"/>
		<path class="st3" d="M473.2,426.3c-1.9,0-3.4-0.6-4.5-1.8c-1.2-1.2-1.8-2.9-1.8-4.9v-0.4c0-1.4,0.3-2.6,0.8-3.6s1.3-1.9,2.2-2.5
			s2-0.9,3-0.9c1.8,0,3.2,0.6,4.2,1.8s1.5,2.9,1.5,5.1v1h-9.3c0,1.4,0.4,2.5,1.2,3.3c0.8,0.8,1.7,1.3,2.9,1.3c0.8,0,1.5-0.2,2.1-0.5
			s1.1-0.8,1.5-1.4l1.4,1.1C477.3,425.5,475.5,426.3,473.2,426.3z M472.9,414c-1,0-1.8,0.4-2.4,1s-1,1.7-1.2,2.9h6.9v-0.2
			c-0.1-1.2-0.4-2.1-1-2.8C474.7,414.3,473.9,414,472.9,414z"/>
		<path class="st3" d="M489.3,422.4c0-0.6-0.2-1.1-0.7-1.5s-1.3-0.7-2.5-0.9s-2.1-0.6-2.8-0.9s-1.2-0.8-1.5-1.3s-0.5-1.1-0.5-1.8
			c0-1.1,0.5-2.1,1.4-2.9c1-0.8,2.2-1.2,3.6-1.2c1.6,0,2.8,0.4,3.8,1.2c1,0.8,1.5,1.8,1.5,3.1h-2.4c0-0.6-0.3-1.2-0.8-1.7
			c-0.5-0.5-1.2-0.7-2.1-0.7c-0.9,0-1.5,0.2-2,0.6s-0.7,0.9-0.7,1.5c0,0.6,0.2,1,0.7,1.3s1.3,0.6,2.4,0.8c1.2,0.3,2.1,0.6,2.9,0.9
			c0.7,0.4,1.3,0.8,1.6,1.3s0.5,1.1,0.5,1.9c0,1.2-0.5,2.2-1.5,3c-1,0.7-2.3,1.1-3.8,1.1c-1.1,0-2.1-0.2-2.9-0.6
			c-0.9-0.4-1.5-0.9-2-1.6c-0.5-0.7-0.7-1.5-0.7-2.3h2.4c0,0.8,0.4,1.4,1,1.9s1.4,0.7,2.3,0.7c0.9,0,1.6-0.2,2.1-0.5
			S489.3,423,489.3,422.4z"/>
		<path class="st3" d="M497.9,409v3.3h2.6v1.8h-2.6v8.5c0,0.5,0.1,1,0.3,1.2s0.6,0.4,1.2,0.4c0.3,0,0.6,0,1.1-0.1v1.9
			c-0.6,0.2-1.2,0.3-1.8,0.3c-1,0-1.8-0.3-2.4-1s-0.8-1.5-0.8-2.7v-8.5h-2.5v-1.8h2.5V409H497.9z"/>
		<path class="st3" d="M505.4,412.3l0.1,1.5c1-1.2,2.4-1.8,4.1-1.8c1.9,0,3.2,0.7,3.9,2.2c0.5-0.7,1-1.2,1.8-1.6
			c0.7-0.4,1.6-0.6,2.6-0.6c3,0,4.5,1.6,4.6,4.8v9.2h-2.3V417c0-1-0.2-1.7-0.7-2.2s-1.2-0.7-2.3-0.7c-0.9,0-1.6,0.3-2.2,0.8
			c-0.6,0.5-0.9,1.2-1,2.1v9.1h-2.4v-9c0-2-1-3-2.9-3c-1.5,0-2.6,0.7-3.2,2v10h-2.4v-13.8L505.4,412.3L505.4,412.3z"/>
		<path class="st3" d="M531.7,426.3c-1.9,0-3.4-0.6-4.5-1.8c-1.2-1.2-1.8-2.9-1.8-4.9v-0.4c0-1.4,0.3-2.6,0.8-3.6s1.3-1.9,2.2-2.5
			s2-0.9,3-0.9c1.8,0,3.2,0.6,4.2,1.8s1.5,2.9,1.5,5.1v1h-9.3c0,1.4,0.4,2.5,1.2,3.3c0.8,0.8,1.7,1.3,2.9,1.3c0.8,0,1.5-0.2,2.1-0.5
			s1.1-0.8,1.5-1.4l1.4,1.1C535.8,425.5,534,426.3,531.7,426.3z M531.5,414c-1,0-1.8,0.4-2.4,1s-1,1.7-1.2,2.9h6.9v-0.2
			c-0.1-1.2-0.4-2.1-1-2.8C533.2,414.3,532.4,414,531.5,414z"/>
		<path class="st3" d="M542,412.3l0.1,1.7c1-1.3,2.4-2,4.1-2c2.9,0,4.4,1.6,4.4,4.9v9.1h-2.3V417c0-1-0.2-1.7-0.7-2.2
			c-0.4-0.5-1.1-0.7-2.1-0.7c-0.8,0-1.4,0.2-2,0.6c-0.6,0.4-1,0.9-1.3,1.6v9.8h-2.3v-13.8L542,412.3L542,412.3z"/>
		<path class="st3" d="M557.4,409v3.3h2.6v1.8h-2.6v8.5c0,0.5,0.1,1,0.3,1.2c0.2,0.3,0.6,0.4,1.2,0.4c0.3,0,0.6,0,1.1-0.1v1.9
			c-0.6,0.2-1.2,0.3-1.8,0.3c-1,0-1.8-0.3-2.4-1s-0.8-1.5-0.8-2.7v-8.5h-2.5v-1.8h2.5V409H557.4z"/>
	</g>
</g>
<g>
	<g>
		<path class="st5" d="M54.2,204.8c0,0.8-0.6,1.4-1.4,1.4c-0.8,0-1.4-0.7-1.4-1.4c0-0.8,0.7-1.4,1.5-1.3
			C53.6,203.5,54.2,204.1,54.2,204.8z"/>
		<g>
			<path class="st5" d="M40.3,187.4c-0.2-0.6-0.8-1-1.5-0.8s-1,0.8-0.8,1.5c0.9,3.2,2.1,5.9,3.8,8.1c0.2,0.3,0.6,0.5,1,0.5
				c0.3,0,0.5-0.1,0.7-0.2c0.5-0.4,0.6-1.1,0.2-1.7C42.2,192.7,41.1,190.3,40.3,187.4z"/>
			<path class="st5" d="M78.6,151.8c-1.1-0.9-2.3-1.9-3.4-2.8c-0.4-0.3-0.6-0.6-0.6-1.2c0.1-1.2-0.2-2.3-1.1-3.2
				c-0.4-0.4-0.3-0.6-0.1-1c1.3-2.1,2.6-4.1,3.3-6.5c0.3-1.1,0.5-2.1,0.3-3.2c-0.4-1.7-1.7-2.4-3.3-1.7c-0.2,0.1-0.4,0.2-0.6,0.3
				c-0.6,0.2-1.1,0.2-1.6-0.1c-0.7-0.4-1.4-0.7-2.1-1c-0.5,0-1,0-1.4,0c-0.7,0.1-1.4,0.3-2.1,0.7c-0.6,0.4-1.2,0.4-1.8,0.1
				c-0.7-0.5-1.4-0.6-2.2-0.8c-0.5,0-1,0-1.5,0c-0.5,0.2-1.1,0.4-1.5,0.7c-0.9,0.6-1.8,0.6-2.8,0.1c-1.5-0.7-2.6-0.2-3.1,1.4
				c-0.3,0.9-0.2,1.8,0,2.7c0.6,2.6,1.9,4.8,3.2,7c0.1,0.2,0.5,0.4,0,0.7c-0.4,0.3-0.5,0-0.7-0.2c-1.2-1.2-2.7-1.9-4.4-2.2
				c-0.8-0.1-1.5-0.1-2.3,0c-2.1,0.2-4-0.2-5.8-1.3c-0.8-0.5-1.4-0.4-1.8,0.2c-0.4,0.6-0.2,1.3,0.6,1.8c0.2,0.1,0.4,0.2,0.5,0.3
				c2,1.1,4.2,1.6,6.4,1.3c2.2-0.2,4,0.4,5.5,2c0.1,0.1,0.3,0.2,0.2,0.5c-1.7,0-3.3,0.2-4.9,0.7c-2.7,0.8-5.1,2.1-6.6,4.6
				c-0.4,0.7-0.3,1.4,0.3,1.8c0.6,0.4,1.2,0.2,1.7-0.4c2.3-3.4,5.8-4,9.6-4.1c-0.1,0.2-0.3,0.4-0.5,0.5c-2.9,2.3-5.6,4.7-7.9,7.5
				c-5.9,7-9.8,14.7-9.4,24.1l0,0c0,0.7,0.5,1.2,1.2,1.2s1.2-0.5,1.2-1.2c0,0,0,0,0,0l0,0c0-0.2,0-0.5,0-0.7
				c-0.2-4.9,1.1-9.4,3.3-13.7c3-5.8,7.3-10.5,12.3-14.6c0.8-0.7,1.6-1.4,2.7-0.5c0.2,0.1,0.5,0.1,0.7,0.2c3.1,0.7,6.3,0.8,9.5,0.5
				c1.9-0.2,3.8-0.4,5.5-1.5c0.3-0.2,0.5,0,0.7,0.2c1.1,0.9,2.2,1.8,3.2,2.6c0.7,0.6,1.4,0.6,1.9,0.1
				C79.4,153.1,79.3,152.5,78.6,151.8z M71,149.2c-2.1,0.6-4.3,0.8-7,0.8c-1.6,0-3.7-0.3-5.8-0.8c-1.3-0.3-1.8-1.4-1.3-2.6
				c0.3-0.7,0.9-1,1.7-0.8c2.2,0.5,4.4,0.8,6.7,0.7c1.6-0.1,3.2-0.3,4.8-0.7c1-0.2,1.7,0.2,1.9,1.1C72.4,148.1,72,148.9,71,149.2z
				 M71.1,143c-0.1,0.2-0.3,0.3-0.5,0.4c-3.5,0.9-7,1-10.5,0.3c-0.6-0.1-1-0.3-1.3-0.9c-1.2-2-2.4-3.9-3.1-6.1
				c-0.1-0.2-0.1-0.4-0.2-0.5c-0.1-0.5-0.4-1.1-0.1-1.4c0.3-0.4,0.8,0.1,1.2,0.2c1.2,0.3,2.3,0.1,3.3-0.6c1-0.7,1.9-0.6,2.9,0
				c1.6,1,3.2,0.9,4.8-0.1c0.7-0.4,1.4-0.7,2.1-0.2c1.6,1.1,3.3,1.4,5.1,0.4c0.1,1.1-0.2,2.1-0.6,3C73.3,139.4,72.2,141.3,71.1,143z
				"/>
			<path class="st5" d="M93,175.6c-0.8-5.3-3-10-6-14.4c-1.2-1.7-2.5-3.4-4-4.9c-0.6-0.6-1.3-0.7-1.8-0.2c-0.6,0.5-0.6,1.2,0,1.9
				c0.1,0.2,0.3,0.3,0.4,0.5c4.8,5.4,8.3,11.5,9.1,18.9c0.5,4.4-0.2,8.6-2.3,12.4c-0.2,0.4,2.6,0.5,2.6,0.5c0.1-0.3,0.4-1,0.4-1.2
				C93.3,184.6,93.7,180.1,93,175.6z"/>
		</g>
		<g>
			<g>
				<path class="st10" d="M32.4,206.1c-0.8-0.8-1.5-0.8-2.3,0c-1.2,1.2-2.4,2.4-3.6,3.6c-0.6,0.6-1.2,1.1-1.9,1.8
					c1.9,1.9,3.8,3.7,5.7,5.6h13.1C39.7,213.4,36,209.8,32.4,206.1z"/>
				<path class="st10" d="M84.4,190.8c-2.9,3-5.9,6.1-8.8,9.1c-0.1,0.1-0.3,0.4-0.3,0.6c-0.1,3.8-2.3,6-6.1,6c-3.3,0-6.7,0-10,0
					c-0.3,0-0.5,0-0.8-0.1c-0.7-0.1-1.2-0.7-1.2-1.4c0-0.7,0.5-1.2,1.3-1.3c0.3,0,0.5,0,0.8,0c3.4,0,6.7,0,10.1,0
					c0.3,0,0.6,0,0.9-0.1c1.3-0.2,2.3-1.2,2.3-2.6c0.1-1.2-0.8-2.4-2-2.8c-0.4-0.1-0.9-0.1-1.4-0.1c-4.9,0-9.7,0-14.6,0
					c-0.5,0-0.9-0.1-1.3-0.2c-3-1.3-6.2-1.4-9.4-0.8c-4,0.8-7.1,3-9.3,6.5c-0.3,0.4-0.2,0.6,0.1,1c1,0.9,1.9,1.9,2.8,2.8
					c2.5,2.5,5,5,7.5,7.5c0.2-0.2,0.4-0.4,0.6-0.5c1.7-1.8,3.8-2.6,6.3-2.5c5.7,0.1,11.4,0,17.1,0c3.2,0,5.8-1.1,7.8-3.6
					c1.2-1.5,2.5-3,3.7-4.4c2.6-3.1,5.2-6.2,7.8-9.3c1-1.2,0.9-2.9-0.2-3.9C87.2,189.6,85.5,189.7,84.4,190.8z"/>
				<path class="st5" d="M91.3,190.1c-1.8-3.3-6.2-3.9-8.8-1.3c-2.6,2.7-5.3,5.4-7.9,8.1c-0.2,0.2-0.2,0.4-0.4,0.7
					c-1.5-1.8-3.2-2.3-5.1-2.3c-4.7,0-9.4,0-14.1,0c-0.4,0-0.8-0.1-1.1-0.2c-7.2-2.8-17.2-0.8-21.8,7.2c-0.1,0.2-0.4,0.3-0.6,0.3
					c-1.4-0.1-2.5,0.5-3.5,1.4c-2,2-4,4-6,6c-1,1-1,1.6,0,2.7c1.4,1.4,2.8,2.8,4.2,4.2h4c-1.9-1.9-3.8-3.7-5.7-5.6
					c0.7-0.6,1.3-1.2,1.9-1.8c1.2-1.2,2.4-2.4,3.6-3.6c0.8-0.8,1.5-0.8,2.3,0c3.7,3.7,7.3,7.3,11,11H47c1.2-1.3,2.5-2.4,4.5-2.4
					c5.9,0.1,11.9,0.1,17.8,0c3.9,0,7.1-1.5,9.6-4.5c1.3-1.6,2.6-3.1,3.9-4.7c2.6-3,5.1-6.1,7.6-9.1
					C91.9,194.7,92.3,191.9,91.3,190.1z M88.5,194.5c-2.6,3.1-5.2,6.2-7.8,9.3c-1.2,1.5-2.5,2.9-3.7,4.4c-2,2.5-4.7,3.6-7.8,3.6
					c-5.7,0-11.4,0.1-17.1,0c-2.5,0-4.6,0.7-6.3,2.5c-0.2,0.2-0.4,0.3-0.6,0.5c-2.5-2.5-5-5-7.5-7.5c-0.9-0.9-1.9-1.9-2.8-2.8
					c-0.3-0.3-0.4-0.6-0.1-1c2.1-3.5,5.3-5.7,9.3-6.5c3.2-0.7,6.3-0.5,9.4,0.8c0.4,0.2,0.9,0.2,1.3,0.2c4.9,0,9.7,0,14.6,0
					c0.5,0,0.9,0,1.4,0.1c1.2,0.3,2,1.6,2,2.8c-0.1,1.3-1.1,2.4-2.3,2.6c-0.3,0-0.6,0.1-0.9,0.1c-3.4,0-6.7,0-10.1,0
					c-0.3,0-0.5,0-0.8,0c-0.7,0.1-1.2,0.6-1.3,1.3c0,0.7,0.4,1.3,1.2,1.4c0.3,0.1,0.5,0,0.8,0.1c3.3,0,6.7,0,10,0c3.8,0,6-2.2,6.1-6
					c0-0.2,0.1-0.4,0.3-0.6c2.9-3,5.9-6.1,8.8-9.1c1.1-1.1,2.7-1.1,3.8-0.1C89.4,191.6,89.5,193.3,88.5,194.5z"/>
			</g>
			<rect x="26.3" y="215" class="st5" width="20.7" height="2.1"/>
		</g>
		<g>
			<path class="st5" d="M57.6,173.5c2.3,1.8,4.7,3.6,7,5.4c0.1,0.1,0.3,0.2,0.4,0.2c0.2,0,0.3-0.1,0.4-0.2c2.3-1.8,4.7-3.6,7-5.4
				c0.3-0.3,0.4-0.5,0.2-0.9c-2.3-4-4.7-7.9-7-11.9c-0.3-0.5-0.8-0.5-1.1,0c-2.3,4-4.7,7.9-7,11.9C57.2,173,57.2,173.3,57.6,173.5z
				 M71.1,173.1c-1.8,1.4-3.7,2.8-5.5,4.2c-0.1,0-0.1-0.1-0.1-0.1c0-2.4,0-4.8,0-7.2c0-0.2-0.1-0.4,0.3-0.2
				C67.5,170.9,69.3,171.9,71.1,173.1C71,173,71.1,173.1,71.1,173.1z M65.5,163.1C65.5,163.1,65.6,163.1,65.5,163.1
				c1.7,2.7,3.3,5.4,4.9,8.1c-0.1,0.1-0.2,0-0.3-0.1c-1.5-0.9-2.9-1.8-4.4-2.7c-0.1-0.1-0.3-0.1-0.3-0.4
				C65.5,166.4,65.5,164.8,65.5,163.1z M64.3,163.1c0.1,0.1,0.1,0.2,0.1,0.3c0,1.6,0,3.1,0,4.7c0,0.2,0,0.4-0.2,0.5
				c-1.5,0.9-3,1.9-4.6,2.8c0,0-0.1,0-0.2,0.1C61.1,168.6,62.7,165.8,64.3,163.1z M64.4,169.6c0,2.6,0,5.1,0,7.8
				c-1.9-1.4-3.7-2.9-5.6-4.3C60.7,171.9,62.5,170.8,64.4,169.6z"/>
			<path class="st5" d="M73,174.2c-0.1,0.1-0.2,0.1-0.3,0.2c-2.5,2-4.9,3.9-7.4,5.9c-0.2,0.2-0.4,0.2-0.6,0c-2.5-2-5-4-7.4-6
				c-0.3-0.2-0.5-0.4-0.9-0.1c-0.3,0.3-0.2,0.5-0.1,0.8c2.7,5.7,5.4,11.5,8.1,17.2c0.1,0.3,0.3,0.5,0.6,0.5c0.3,0,0.4-0.2,0.6-0.5
				c2.7-5.7,5.4-11.5,8.1-17.2c0.1-0.1,0.1-0.3,0.1-0.4C73.8,174.3,73.3,174,73,174.2z M64.4,189.6c0,0,0,0-0.1,0.1
				c-2-4.3-4-8.6-6-12.9c0.2,0,0.3,0.1,0.4,0.2c1.8,1.4,3.6,2.9,5.5,4.4c0.2,0.1,0.3,0.2,0.3,0.4C64.4,184.4,64.4,187,64.4,189.6z
				 M65.6,189.6C65.6,189.6,65.5,189.6,65.6,189.6c-0.1-2.6-0.1-5.2-0.1-7.8c0-0.1,0-0.3,0.1-0.4c2-1.6,3.9-3.2,6-4.7
				C69.6,181,67.6,185.4,65.6,189.6z"/>
		</g>
	</g>
	<g>
		<path class="st4" d="M47.8,232.1h-5.1v4.1h5.9v1.3h-7.4v-11.7h7.3v1.3h-5.8v3.8h5.1V232.1z"/>
		<path class="st4" d="M58.8,227.1H55v10.4h-1.5v-10.4h-3.8v-1.3h9V227.1z"/>
		<path class="st4" d="M69.5,237.6h-1.6v-5.4H62v5.4h-1.5v-11.7H62v5h5.9v-5h1.6V237.6z"/>
	</g>
</g>
<g>
	<g>
		<g>
			<g>
				<path class="st5" d="M286.8,41.4c-0.9-0.7-1.7-1.5-2.6-2.1c-0.3-0.3-0.5-0.5-0.4-0.9c0.1-0.9-0.2-1.8-0.8-2.4
					c-0.3-0.3-0.3-0.5-0.1-0.8c1-1.6,2-3.2,2.5-5c0.3-0.8,0.4-1.6,0.2-2.5c-0.3-1.3-1.3-1.8-2.5-1.3c-0.1,0.1-0.3,0.1-0.5,0.2
					c-0.4,0.2-0.8,0.2-1.2-0.1c-0.5-0.3-1-0.5-1.6-0.8c-0.4,0-0.7,0-1.1,0c-0.6,0.1-1.1,0.3-1.6,0.5c-0.4,0.3-0.9,0.4-1.4,0
					c-0.5-0.4-1.1-0.5-1.7-0.6c-0.4,0-0.7,0-1.1,0c-0.4,0.2-0.8,0.3-1.2,0.5c-0.7,0.5-1.4,0.5-2.1,0.1c-1.1-0.5-2-0.1-2.4,1.1
					c-0.2,0.7-0.2,1.4,0,2.1c0.4,2,1.4,3.6,2.4,5.3c0.1,0.2,0.4,0.3,0,0.5c-0.3,0.2-0.4,0-0.6-0.1c-1-0.9-2-1.5-3.3-1.7
					c-0.6-0.1-1.2-0.1-1.8,0c-1.6,0.2-3-0.2-4.4-1c-0.6-0.4-1.1-0.3-1.4,0.2c-0.3,0.5-0.1,1,0.5,1.4c0.1,0.1,0.3,0.2,0.4,0.3
					c1.5,0.8,3.2,1.2,4.9,1c1.7-0.2,3.1,0.3,4.2,1.5c0.1,0.1,0.3,0.2,0.1,0.4c-1.3,0-2.5,0.2-3.8,0.5c-2.1,0.6-3.9,1.6-5.1,3.5
					c-0.3,0.5-0.2,1.1,0.3,1.3c0.4,0.3,0.9,0.2,1.3-0.3c1.8-2.6,4.5-3,7.3-3.2c-0.1,0.2-0.2,0.3-0.4,0.4c-2.2,1.7-4.3,3.6-6.1,5.7
					c-4.5,5.3-7.5,11.3-7.2,18.5l0,0c0,0.5,0.4,0.9,0.9,0.9c0.5,0,0.9-0.4,0.9-0.9c0,0,0,0,0,0l0,0c0-0.2,0-0.4,0-0.6
					c-0.1-3.7,0.8-7.2,2.5-10.5c2.3-4.4,5.6-8,9.4-11.2c0.6-0.5,1.2-1,2.1-0.4c0.1,0.1,0.4,0.1,0.5,0.2c2.4,0.6,4.8,0.6,7.3,0.4
					c1.5-0.1,2.9-0.3,4.2-1.1c0.3-0.2,0.4,0,0.5,0.1c0.8,0.7,1.6,1.3,2.5,2c0.6,0.5,1.1,0.5,1.5,0C287.5,42.4,287.4,41.9,286.8,41.4
					z M281,39.4c-1.6,0.5-3.3,0.6-5.4,0.6c-1.2,0-2.8-0.2-4.4-0.6c-1-0.2-1.4-1.1-1-2c0.3-0.5,0.7-0.8,1.3-0.6
					c1.7,0.4,3.4,0.6,5.1,0.5c1.3,0,2.5-0.3,3.7-0.5c0.8-0.2,1.3,0.1,1.5,0.9C282.1,38.5,281.8,39.2,281,39.4z M281,34.7
					c-0.1,0.2-0.2,0.3-0.4,0.3c-2.7,0.7-5.3,0.8-8,0.2c-0.5-0.1-0.8-0.3-1-0.7c-0.9-1.5-1.8-3-2.4-4.7c0-0.1-0.1-0.3-0.1-0.4
					c-0.1-0.4-0.3-0.8-0.1-1.1c0.2-0.3,0.6,0.1,0.9,0.2c0.9,0.2,1.8,0.1,2.5-0.4s1.4-0.5,2.2,0c1.2,0.8,2.5,0.7,3.7-0.1
					c0.5-0.3,1.1-0.5,1.6-0.2c1.2,0.8,2.5,1,3.9,0.3c0.1,0.9-0.2,1.6-0.5,2.3C282.8,31.9,281.9,33.3,281,34.7z"/>
			</g>
			<g>
				<path class="st5" d="M276.5,85.6c-9.4,0-17.6-6.2-20.6-15.3c-0.1-0.4,0.1-0.9,0.6-1.1c0.5-0.1,0.9,0.1,1.1,0.6
					c2.7,8.5,10.3,14.1,19,14.1c11,0,20-9.3,20-20.6c0-5.4-2-10.5-5.6-14.4c-0.3-0.3-0.3-0.9,0-1.2c0.3-0.3,0.9-0.3,1.2,0
					c3.9,4.2,6.1,9.7,6.1,15.5C298.1,75.6,288.4,85.6,276.5,85.6z"/>
			</g>
		</g>
		<g>
			<g>
				<g>
					<polygon class="st5" points="279.9,52.9 276.6,62.9 273.1,52.9 269.9,52.9 269.9,66.5 272.5,66.5 272.5,57.2 275.6,66.5 
						277.5,66.5 280.1,58.8 280.1,71.8 283.3,71.8 283.2,52.9 					"/>
				</g>
			</g>
		</g>
	</g>
	<g>
		<path class="st4" d="M257.8,96l3.8,9.6l3.8-9.6h2v11.7H266v-4.6l0.1-4.9l-3.8,9.5h-1.2l-3.8-9.4l0.1,4.9v4.6h-1.5V96H257.8z"/>
		<path class="st4" d="M276.8,102.3h-5.1v4.2h5.9v1.3h-7.4V96h7.4v1.3h-5.8v3.8h5.1L276.8,102.3L276.8,102.3z"/>
		<path class="st4" d="M286.2,102.3h-5.1v4.2h5.9v1.3h-7.4V96h7.4v1.3h-5.8v3.8h5.1L286.2,102.3L286.2,102.3z"/>
		<path class="st4" d="M288.9,107.7V96h3.3c1,0,1.9,0.2,2.7,0.7s1.4,1.1,1.8,1.9c0.4,0.8,0.6,1.8,0.6,2.9v0.8c0,1.1-0.2,2.1-0.6,2.9
			c-0.4,0.8-1,1.5-1.8,1.9s-1.7,0.7-2.8,0.7L288.9,107.7L288.9,107.7z M290.5,97.3v9.2h1.6c1.2,0,2.1-0.4,2.8-1.1
			c0.7-0.7,1-1.8,1-3.2v-0.7c0-1.3-0.3-2.4-0.9-3.1s-1.5-1.1-2.7-1.1L290.5,97.3L290.5,97.3z"/>
	</g>
</g>
<g>
	<g>
		<g>
			<path class="st5" d="M207.8,60c1.8,1.4,3.6,2.7,5.3,4.1c0.1,0.1,0.2,0.1,0.3,0.1c0.1,0,0.2-0.1,0.3-0.1c1.8-1.4,3.6-2.7,5.3-4.1
				c0.3-0.2,0.3-0.4,0.1-0.7c-1.8-3-3.6-6.1-5.4-9.1c-0.2-0.4-0.6-0.4-0.8,0c-1.8,3-3.6,6.1-5.4,9.1C207.5,59.7,207.6,59.8,207.8,60
				z M218.2,59.7c-1.4,1.1-2.8,2.2-4.2,3.2c-0.1,0-0.1-0.1-0.1-0.1c0-1.8,0-3.7,0-5.5c0-0.1-0.1-0.3,0.2-0.2
				C215.4,58,216.8,58.8,218.2,59.7C218.1,59.6,218.1,59.7,218.2,59.7z M213.9,52C213.9,52,213.9,52,213.9,52
				c1.3,2.1,2.5,4.1,3.8,6.2c-0.1,0.1-0.1,0-0.2,0c-1.1-0.7-2.2-1.4-3.4-2.1c-0.1-0.1-0.2-0.1-0.2-0.3
				C213.9,54.6,213.9,53.3,213.9,52z M213,52c0.1,0,0.1,0.1,0.1,0.2c0,1.2,0,2.4,0,3.6c0,0.2,0,0.3-0.2,0.4
				c-1.2,0.7-2.3,1.4-3.5,2.2c0,0-0.1,0-0.1,0C210.5,56.2,211.8,54.1,213,52z M213.1,57c0,2,0,3.9,0,5.9c-1.4-1.1-2.9-2.2-4.3-3.3
				C210.2,58.8,211.6,57.9,213.1,57z"/>
			<path class="st5" d="M219.6,60.5c-0.1,0-0.1,0.1-0.2,0.2c-1.9,1.5-3.8,3-5.7,4.5c-0.2,0.1-0.3,0.1-0.4,0c-1.9-1.5-3.8-3-5.7-4.6
				c-0.2-0.2-0.4-0.3-0.7-0.1c-0.2,0.2-0.2,0.4-0.1,0.6c2.1,4.4,4.1,8.8,6.2,13.2c0.1,0.2,0.2,0.4,0.5,0.4c0.3,0,0.4-0.2,0.4-0.4
				c2.1-4.4,4.1-8.8,6.2-13.2c0.1-0.1,0.1-0.2,0.1-0.3C220.2,60.6,219.9,60.4,219.6,60.5z M213.1,72.3c0,0,0,0,0,0.1
				c-1.6-3.3-3.1-6.6-4.6-9.9c0.2,0,0.2,0.1,0.3,0.1c1.4,1.1,2.8,2.2,4.2,3.3c0.1,0.1,0.2,0.2,0.2,0.3
				C213.1,68.3,213.1,70.3,213.1,72.3z M214,72.4C213.9,72.3,213.9,72.3,214,72.4c-0.1-2-0.1-4-0.1-6c0-0.1,0-0.2,0.1-0.3
				c1.5-1.2,3-2.4,4.6-3.6C217,65.8,215.5,69.1,214,72.4z"/>
		</g>
		<g>
			<g>
				<path class="st5" d="M223.9,41.4c-0.9-0.7-1.7-1.5-2.6-2.1c-0.3-0.3-0.5-0.5-0.4-0.9c0.1-0.9-0.2-1.8-0.8-2.4
					c-0.3-0.3-0.3-0.5-0.1-0.8c1-1.6,2-3.2,2.5-5c0.3-0.8,0.4-1.6,0.2-2.5c-0.3-1.3-1.3-1.8-2.5-1.3c-0.1,0.1-0.3,0.1-0.4,0.2
					c-0.4,0.2-0.8,0.2-1.2-0.1c-0.5-0.3-1.1-0.5-1.6-0.8c-0.4,0-0.7,0-1.1,0c-0.6,0.1-1.1,0.3-1.6,0.5c-0.4,0.3-0.9,0.4-1.4,0
					c-0.5-0.4-1.1-0.5-1.7-0.6c-0.4,0-0.7,0-1.1,0c-0.4,0.2-0.8,0.3-1.2,0.5c-0.7,0.5-1.4,0.5-2.1,0.1c-1.1-0.5-2-0.1-2.4,1.1
					c-0.2,0.7-0.2,1.4,0,2.1c0.4,2,1.4,3.6,2.4,5.3c0.1,0.2,0.4,0.3,0,0.5c-0.3,0.2-0.4,0-0.6-0.1c-0.9-0.9-2.1-1.5-3.3-1.7
					c-0.6-0.1-1.2-0.1-1.8,0c-1.6,0.2-3.1-0.2-4.4-1c-0.6-0.4-1.1-0.3-1.4,0.2c-0.3,0.5-0.1,1,0.4,1.4c0.1,0.1,0.3,0.2,0.4,0.3
					c1.5,0.8,3.2,1.2,4.9,1c1.7-0.2,3.1,0.3,4.2,1.5c0.1,0.1,0.3,0.2,0.1,0.4c-1.3,0-2.5,0.2-3.8,0.5c-2.1,0.6-3.9,1.6-5.1,3.5
					c-0.3,0.5-0.2,1.1,0.3,1.3c0.4,0.3,0.9,0.2,1.3-0.3c1.8-2.6,4.5-3,7.3-3.2c-0.1,0.2-0.2,0.3-0.4,0.4c-2.2,1.7-4.3,3.6-6.1,5.7
					c-4.5,5.3-7.5,11.3-7.2,18.5l0,0c0,0.5,0.4,0.9,0.9,0.9s0.9-0.4,0.9-0.9c0,0,0,0,0,0l0,0c0-0.2,0-0.4,0-0.6
					c-0.1-3.7,0.8-7.2,2.5-10.5c2.3-4.4,5.6-8,9.4-11.2c0.6-0.5,1.2-1,2.1-0.4c0.1,0.1,0.4,0.1,0.5,0.2c2.4,0.6,4.8,0.6,7.3,0.4
					c1.5-0.1,2.9-0.3,4.2-1.1c0.3-0.2,0.4,0,0.5,0.1c0.8,0.7,1.6,1.3,2.5,2c0.6,0.5,1.1,0.5,1.5,0C224.5,42.4,224.4,41.9,223.9,41.4
					z M218.1,39.4c-1.6,0.5-3.3,0.6-5.4,0.6c-1.2,0-2.8-0.2-4.4-0.6c-1-0.2-1.4-1.1-1-2c0.3-0.5,0.7-0.8,1.3-0.6
					c1.7,0.4,3.4,0.6,5.1,0.5c1.3,0,2.5-0.3,3.7-0.5c0.8-0.2,1.3,0.1,1.5,0.9C219.1,38.5,218.8,39.2,218.1,39.4z M218.1,34.7
					c-0.1,0.2-0.2,0.3-0.4,0.3c-2.7,0.7-5.3,0.8-8,0.2c-0.4-0.1-0.8-0.3-1-0.7c-0.9-1.5-1.8-3-2.4-4.7c0-0.1-0.1-0.3-0.1-0.4
					c-0.1-0.4-0.3-0.8-0.1-1.1c0.2-0.3,0.6,0.1,0.9,0.2c0.9,0.2,1.8,0.1,2.5-0.4s1.4-0.5,2.2,0c1.2,0.8,2.5,0.7,3.7-0.1
					c0.5-0.3,1.1-0.5,1.6-0.2c1.2,0.8,2.5,1,3.9,0.3c0.1,0.9-0.2,1.6-0.5,2.3C219.8,31.9,219,33.3,218.1,34.7z"/>
			</g>
			<g>
				<path class="st5" d="M213.5,85.6c-9.4,0-17.6-6.2-20.6-15.3c-0.1-0.4,0.1-0.9,0.6-1.1s0.9,0.1,1.1,0.6
					c2.7,8.5,10.3,14.1,18.9,14.1c11,0,19.9-9.3,19.9-20.6c0-5.4-2-10.5-5.6-14.4c-0.3-0.3-0.3-0.9,0-1.2c0.3-0.3,0.9-0.3,1.2,0
					c3.9,4.2,6.1,9.7,6.1,15.5C235.2,75.6,225.5,85.6,213.5,85.6z"/>
			</g>
		</g>
	</g>
	<g>
		<path class="st4" d="M205.9,102.3h-5.1v4.2h5.9v1.3h-7.4V96h7.4v1.3h-5.8v3.8h5.1L205.9,102.3L205.9,102.3z"/>
		<path class="st4" d="M216.9,97.3h-3.8v10.4h-1.5V97.3h-3.8V96h9.1L216.9,97.3L216.9,97.3z"/>
		<path class="st4" d="M227.6,107.7h-1.6v-5.4h-5.9v5.4h-1.5V96h1.5v5h5.9v-5h1.6V107.7z"/>
	</g>
</g>
<g>
	<g>
		<ellipse class="st11" cx="476.1" cy="42" rx="34.2" ry="11.9"/>
		<path class="st12" d="M510.4,64.1v10.4c0,6.6-15.3,11.9-34.2,11.9c-18.9,0-34.2-5.3-34.2-11.9V42.3"/>
		<line class="st12" x1="510.4" y1="42.5" x2="510.4" y2="55.1"/>
		<ellipse class="st5" cx="476.1" cy="41.4" rx="31.8" ry="10.4"/>
		<g>
			<g>
				<defs>
					<path id="SVGID_1_" d="M507.9,41.2c0,5.8-14.2,10.4-31.8,10.4s-31.8-4.7-31.8-10.4c0-4.7,0.1-20.4,0.1-20.4l63.4-6.4
						C508,14.4,507.9,39.5,507.9,41.2z"/>
				</defs>
				<clipPath id="SVGID_2_">
					<use xlink:href="#SVGID_1_"  style="overflow:visible;"/>
				</clipPath>
				<g class="st13">
					<path class="st14" d="M475.5,43.8v5.8c0,2.8-6.5,5.1-14.6,5.1s-14.6-2.3-14.6-5.1v-6"/>
					<g>
						<ellipse class="st14" cx="460.9" cy="43.7" rx="14.6" ry="5.1"/>
						<g>
							<path class="st5" d="M455.4,42.8c1.7,0.3,3.4,0.7,5.2,1c0.1,0,0.2,0,0.3,0c0.1,0,0.2,0,0.3,0c1.7-0.3,3.4-0.7,5.2-1
								c0.3,0,0.3-0.1,0.1-0.2c-1.7-0.7-3.5-1.5-5.2-2.2c-0.2-0.1-0.6-0.1-0.8,0c-1.7,0.7-3.5,1.5-5.2,2.2
								C455.1,42.7,455.1,42.8,455.4,42.8z M465.4,42.7c-1.4,0.3-2.7,0.5-4.1,0.8c-0.1,0-0.1,0-0.1,0c0-0.4,0-0.9,0-1.3
								c0,0,0-0.1,0.2,0C462.7,42.3,464,42.5,465.4,42.7C465.4,42.7,465.4,42.7,465.4,42.7z M461.3,40.9
								C461.3,40.9,461.3,40.9,461.3,40.9c1.3,0.5,2.5,1,3.6,1.5c-0.1,0-0.1,0-0.2,0c-1.1-0.2-2.2-0.3-3.2-0.5c-0.1,0-0.2,0-0.2-0.1
								C461.3,41.5,461.3,41.2,461.3,40.9z M460.4,40.9C460.5,40.9,460.5,40.9,460.4,40.9c0.1,0.3,0.1,0.6,0.1,0.9
								c0,0,0,0.1-0.1,0.1c-1.1,0.2-2.3,0.3-3.4,0.5c0,0,0,0-0.1,0C458,41.9,459.2,41.4,460.4,40.9z M460.4,42.1c0,0.5,0,0.9,0,1.4
								c-1.4-0.3-2.8-0.5-4.1-0.8C457.7,42.5,459,42.3,460.4,42.1z"/>
							<path class="st5" d="M466.8,42.9c-0.1,0-0.1,0-0.2,0c-1.8,0.4-3.7,0.7-5.5,1.1c-0.2,0-0.3,0-0.4,0c-1.8-0.4-3.7-0.7-5.5-1.1
								c-0.2,0-0.4-0.1-0.6,0c-0.2,0-0.2,0.1,0,0.2c2,1,4,2.1,6,3.2c0.1,0,0.2,0.1,0.5,0.1c0.2,0,0.3,0,0.4-0.1c2-1,4-2.1,6-3.2
								c0,0,0.1,0,0.1-0.1C467.4,42.9,467,42.9,466.8,42.9z M460.5,45.7C460.5,45.7,460.4,45.7,460.5,45.7c-1.5-0.8-3-1.5-4.5-2.3
								c0.1,0,0.2,0,0.3,0c1.4,0.3,2.7,0.5,4,0.8c0.1,0,0.2,0,0.2,0.1C460.5,44.8,460.5,45.3,460.5,45.7z M461.3,45.8
								C461.3,45.8,461.3,45.8,461.3,45.8c0-0.5,0-1,0-1.4c0,0,0,0,0.1-0.1c1.5-0.3,2.9-0.6,4.4-0.9C464.3,44.2,462.8,45,461.3,45.8
								z"/>
						</g>
					</g>
				</g>
			</g>
			<g>
				<defs>
					<path id="SVGID_3_" d="M507.9,41.2c0,5.8-14.2,10.4-31.8,10.4s-31.8-4.7-31.8-10.4c0-4.7,0.1-20.4,0.1-20.4l63.4-6.4
						C508,14.4,507.9,39.5,507.9,41.2z"/>
				</defs>
				<clipPath id="SVGID_4_">
					<use xlink:href="#SVGID_3_"  style="overflow:visible;"/>
				</clipPath>
				<g class="st15">
					<path class="st14" d="M475.5,35.3v5.8c0,2.8-6.5,5.1-14.6,5.1s-14.6-2.3-14.6-5.1v-6"/>
					<g>
						<ellipse class="st14" cx="460.9" cy="35.2" rx="14.6" ry="5.1"/>
						<g>
							<path class="st5" d="M455.4,34.3c1.7,0.3,3.4,0.7,5.2,1c0.1,0,0.2,0,0.3,0c0.1,0,0.2,0,0.3,0c1.7-0.3,3.4-0.7,5.2-1
								c0.3,0,0.3-0.1,0.1-0.2c-1.7-0.7-3.5-1.5-5.2-2.2c-0.2-0.1-0.6-0.1-0.8,0c-1.7,0.7-3.5,1.5-5.2,2.2
								C455.1,34.2,455.1,34.2,455.4,34.3z M465.4,34.2c-1.4,0.3-2.7,0.5-4.1,0.8c-0.1,0-0.1,0-0.1,0c0-0.4,0-0.9,0-1.3
								c0,0,0-0.1,0.2,0C462.7,33.8,464,34,465.4,34.2C465.4,34.2,465.4,34.2,465.4,34.2z M461.3,32.4
								C461.3,32.4,461.3,32.4,461.3,32.4c1.3,0.5,2.5,1,3.6,1.5c-0.1,0-0.1,0-0.2,0c-1.1-0.2-2.2-0.3-3.2-0.5c-0.1,0-0.2,0-0.2-0.1
								C461.3,33,461.3,32.7,461.3,32.4z M460.4,32.4C460.5,32.4,460.5,32.4,460.4,32.4c0.1,0.3,0.1,0.6,0.1,0.9c0,0,0,0.1-0.1,0.1
								c-1.1,0.2-2.3,0.3-3.4,0.5c0,0,0,0-0.1,0C458,33.4,459.2,32.9,460.4,32.4z M460.4,33.6c0,0.5,0,0.9,0,1.4
								c-1.4-0.3-2.8-0.5-4.1-0.8C457.7,34,459,33.8,460.4,33.6z"/>
							<path class="st5" d="M466.8,34.4c-0.1,0-0.1,0-0.2,0c-1.8,0.4-3.7,0.7-5.5,1.1c-0.2,0-0.3,0-0.4,0c-1.8-0.4-3.7-0.7-5.5-1.1
								c-0.2,0-0.4-0.1-0.6,0c-0.2,0-0.2,0.1,0,0.2c2,1,4,2.1,6,3.2c0.1,0,0.2,0.1,0.5,0.1c0.2,0,0.3,0,0.4-0.1c2-1,4-2.1,6-3.2
								c0,0,0.1,0,0.1-0.1C467.4,34.4,467,34.4,466.8,34.4z M460.5,37.2C460.5,37.2,460.4,37.2,460.5,37.2c-1.5-0.8-3-1.5-4.5-2.3
								c0.1,0,0.2,0,0.3,0c1.4,0.3,2.7,0.5,4,0.8c0.1,0,0.2,0,0.2,0.1C460.5,36.3,460.5,36.7,460.5,37.2z M461.3,37.2
								C461.3,37.2,461.3,37.2,461.3,37.2c0-0.5,0-1,0-1.4c0,0,0,0,0.1-0.1c1.5-0.3,2.9-0.6,4.4-0.9
								C464.3,35.7,462.8,36.5,461.3,37.2z"/>
						</g>
					</g>
				</g>
			</g>
			<g>
				<defs>
					<path id="SVGID_5_" d="M507.9,41.2c0,5.8-14.2,10.4-31.8,10.4s-31.8-4.7-31.8-10.4c0-4.7,0.1-20.4,0.1-20.4l63.4-6.4
						C508,14.4,507.9,39.5,507.9,41.2z"/>
				</defs>
				<clipPath id="SVGID_6_">
					<use xlink:href="#SVGID_5_"  style="overflow:visible;"/>
				</clipPath>
				<g class="st16">
					<path class="st14" d="M506,43.9v5.8c0,2.8-6.5,5.1-14.6,5.1s-14.6-2.3-14.6-5.1v-6"/>
					<g>
						<ellipse class="st14" cx="491.4" cy="43.8" rx="14.6" ry="5.1"/>
						<g>
							<g>
								<g>
									<polygon class="st5" points="495.2,41.3 491.4,43.5 487.5,41.3 483.8,41.3 483.8,44.3 486.7,44.3 486.7,42.2 490.3,44.3 
										492.4,44.3 495.4,42.6 495.4,45.4 498.9,45.4 498.9,41.2 									"/>
								</g>
							</g>
						</g>
					</g>
				</g>
			</g>
			<g>
				<defs>
					<path id="SVGID_7_" d="M507.9,41.2c0,5.8-14.2,10.4-31.8,10.4s-31.8-4.7-31.8-10.4c0-4.7,0.1-20.4,0.1-20.4l63.4-6.4
						C508,14.4,507.9,39.5,507.9,41.2z"/>
				</defs>
				<clipPath id="SVGID_8_">
					<use xlink:href="#SVGID_7_"  style="overflow:visible;"/>
				</clipPath>
				<g class="st17">
					<path class="st14" d="M506,35.5v5.8c0,2.8-6.5,5.1-14.6,5.1s-14.6-2.3-14.6-5.1v-6"/>
					<g>
						<ellipse class="st14" cx="491.4" cy="35.4" rx="14.6" ry="5.1"/>
						<g>
							<g>
								<g>
									<polygon class="st5" points="495.2,32.8 491.4,35.1 487.5,32.9 483.8,32.9 483.8,35.9 486.7,35.9 486.7,33.8 490.3,35.9 
										492.4,35.9 495.4,34.2 495.4,37 498.9,37 498.9,32.8 									"/>
								</g>
							</g>
						</g>
					</g>
				</g>
			</g>
			<g>
				<defs>
					<path id="SVGID_9_" d="M507.9,41.2c0,5.8-14.2,10.4-31.8,10.4s-31.8-4.7-31.8-10.4c0-4.7,0.1-20.4,0.1-20.4l63.4-6.4
						C508,14.4,507.9,39.5,507.9,41.2z"/>
				</defs>
				<clipPath id="SVGID_10_">
					<use xlink:href="#SVGID_9_"  style="overflow:visible;"/>
				</clipPath>
				<g class="st18">
					<path class="st14" d="M506,26.8v5.8c0,2.8-6.5,5.1-14.6,5.1s-14.6-2.3-14.6-5.1v-6"/>
					<g>
						<ellipse class="st14" cx="491.4" cy="26.7" rx="14.6" ry="5.1"/>
						<g>
							<g>
								<g>
									<polygon class="st5" points="495.2,24.2 491.4,26.4 487.5,24.2 483.8,24.2 483.8,27.2 486.7,27.2 486.7,25.1 490.3,27.2 
										492.4,27.2 495.4,25.5 495.4,28.3 498.9,28.3 498.9,24.1 									"/>
								</g>
							</g>
						</g>
					</g>
				</g>
			</g>
		</g>
		<circle class="st14" cx="457.4" cy="74.6" r="16.1"/>
		<circle class="st14" cx="454.8" cy="75.1" r="16.6"/>
		<g>
			<path class="st5" d="M449.5,73.5c1.5,1.3,3.1,2.7,4.6,4.1c0.1,0.1,0.2,0.1,0.3,0.1c0.1,0,0.2,0,0.3-0.1c1.7-1.1,3.4-2.3,5.1-3.4
				c0.3-0.2,0.3-0.3,0.2-0.6c-1.4-2.9-2.9-5.7-4.3-8.6c-0.2-0.4-0.5-0.4-0.7-0.1c-1.8,2.6-3.6,5.3-5.4,7.9
				C449.3,73.1,449.3,73.3,449.5,73.5z M459,73.8c-1.4,0.9-2.7,1.8-4,2.7c-0.1,0-0.1-0.1-0.1-0.1c0.1-1.7,0.2-3.3,0.3-5
				c0-0.1,0-0.3,0.2-0.1C456.6,72.1,457.7,72.9,459,73.8C458.9,73.8,458.9,73.8,459,73.8z M455.5,66.6
				C455.5,66.6,455.6,66.6,455.5,66.6c1,2,2,3.9,3,5.9c-0.1,0.1-0.1,0-0.2-0.1c-1-0.7-1.9-1.4-2.9-2.1c-0.1-0.1-0.2-0.1-0.2-0.3
				C455.4,68.9,455.5,67.8,455.5,66.6z M454.7,66.6c0.1,0.1,0,0.1,0,0.2c-0.1,1.1-0.1,2.2-0.2,3.2c0,0.1,0,0.2-0.2,0.3
				c-1.1,0.6-2.2,1.2-3.3,1.7c0,0,0,0-0.1,0C452.2,70.2,453.5,68.4,454.7,66.6z M454.5,71.1c-0.1,1.8-0.2,3.6-0.4,5.4
				c-1.2-1.1-2.5-2.2-3.7-3.3C451.8,72.5,453.1,71.8,454.5,71.1z"/>
			<path class="st5" d="M460.2,74.7c-0.1,0-0.1,0.1-0.2,0.1c-1.8,1.3-3.6,2.5-5.4,3.8c-0.2,0.1-0.3,0.1-0.4,0
				c-1.6-1.5-3.3-3-4.9-4.5c-0.2-0.2-0.4-0.3-0.6-0.1c-0.2,0.2-0.2,0.4-0.1,0.6c1.6,4.1,3.2,8.2,4.8,12.3c0.1,0.2,0.2,0.4,0.4,0.4
				c0.2,0,0.3-0.1,0.4-0.3c2.1-3.8,4.3-7.7,6.4-11.6c0-0.1,0.1-0.2,0.1-0.3C460.7,74.8,460.5,74.6,460.2,74.7z M453.5,84.9
				C453.5,85,453.5,85,453.5,84.9c-1.2-3-2.4-6.1-3.6-9.2c0.1,0,0.2,0.1,0.3,0.1c1.2,1.1,2.4,2.2,3.6,3.3c0.1,0.1,0.2,0.2,0.2,0.3
				C453.8,81.3,453.7,83.1,453.5,84.9z M454.3,85.1C454.3,85,454.3,85,454.3,85.1c0.1-1.8,0.2-3.6,0.3-5.4c0-0.1,0-0.2,0.1-0.3
				c1.5-1,2.9-2,4.4-3C457.5,79.3,455.9,82.2,454.3,85.1z"/>
		</g>
	</g>
	<g>
		<path class="st4" d="M427.8,107.4h5.5v1.3h-7.1V97h1.5L427.8,107.4L427.8,107.4z"/>
		<path class="st4" d="M434.9,97.7c0-0.2,0.1-0.4,0.2-0.6s0.4-0.3,0.7-0.3s0.5,0.1,0.7,0.3s0.2,0.4,0.2,0.6s-0.1,0.4-0.2,0.6
			c-0.1,0.2-0.4,0.2-0.7,0.2s-0.5-0.1-0.7-0.2C434.9,98.1,434.9,97.9,434.9,97.7z M436.5,108.7H435V100h1.5V108.7z"/>
		<path class="st4" d="M438.5,104.3c0-1.4,0.3-2.4,0.9-3.2c0.6-0.8,1.5-1.2,2.5-1.2c1,0,1.8,0.3,2.4,1l0.1-0.9h1.4v12h-1.5v-4.2
			c-0.6,0.6-1.4,1-2.4,1c-1,0-1.9-0.4-2.5-1.2S438.5,105.7,438.5,104.3L438.5,104.3L438.5,104.3z M440,104.4c0,1,0.2,1.8,0.6,2.3
			s1,0.8,1.7,0.8c0.9,0,1.6-0.4,2-1.2v-4.3c-0.5-0.8-1.1-1.2-2-1.2c-0.7,0-1.3,0.3-1.7,0.9S440,103.3,440,104.4z"/>
		<path class="st4" d="M453.6,107.8c-0.6,0.7-1.4,1-2.5,1c-0.9,0-1.6-0.3-2.1-0.8c-0.5-0.5-0.7-1.3-0.7-2.4V100h1.5v5.6
			c0,1.3,0.5,2,1.6,2c1.1,0,1.9-0.4,2.3-1.3V100h1.5v8.7h-1.4L453.6,107.8z"/>
		<path class="st4" d="M457.3,97.7c0-0.2,0.1-0.4,0.2-0.6s0.4-0.3,0.7-0.3s0.5,0.1,0.7,0.3s0.2,0.4,0.2,0.6s-0.1,0.4-0.2,0.6
			c-0.1,0.2-0.4,0.2-0.7,0.2s-0.5-0.1-0.7-0.2C457.3,98.1,457.3,97.9,457.3,97.7z M458.9,108.7h-1.5V100h1.5V108.7z"/>
		<path class="st4" d="M460.9,104.3c0-1.3,0.3-2.4,1-3.2s1.5-1.2,2.5-1.2c1,0,1.8,0.3,2.4,1v-4.5h1.5v12.3h-1.4l-0.1-0.9
			c-0.6,0.7-1.4,1.1-2.5,1.1c-1,0-1.8-0.4-2.5-1.2C461.2,106.8,460.9,105.7,460.9,104.3L460.9,104.3L460.9,104.3z M462.4,104.4
			c0,1,0.2,1.8,0.6,2.3c0.4,0.6,1,0.8,1.7,0.8c0.9,0,1.6-0.4,2.1-1.3v-4c-0.4-0.8-1.1-1.2-2-1.2c-0.7,0-1.3,0.3-1.7,0.8
			S462.4,103.3,462.4,104.4z"/>
		<path class="st4" d="M470.5,97.7c0-0.2,0.1-0.4,0.2-0.6s0.4-0.3,0.7-0.3s0.5,0.1,0.7,0.3s0.2,0.4,0.2,0.6s-0.1,0.4-0.2,0.6
			c-0.1,0.2-0.4,0.2-0.7,0.2s-0.5-0.1-0.7-0.2C470.6,98.1,470.5,97.9,470.5,97.7z M472.1,108.7h-1.5V100h1.5V108.7z"/>
		<path class="st4" d="M476.5,97.9v2.1h1.6v1.2h-1.6v5.4c0,0.3,0.1,0.6,0.2,0.8c0.1,0.2,0.4,0.3,0.7,0.3c0.2,0,0.4,0,0.7-0.1v1.2
			c-0.4,0.1-0.8,0.2-1.1,0.2c-0.7,0-1.2-0.2-1.5-0.6c-0.3-0.4-0.5-1-0.5-1.7v-5.4h-1.6V100h1.6v-2.1H476.5z"/>
		<path class="st4" d="M482.8,106.5l2-6.5h1.6l-3.5,10c-0.5,1.4-1.4,2.2-2.6,2.2l-0.3,0l-0.5-0.1v-1.2l0.4,0c0.5,0,0.9-0.1,1.2-0.3
			c0.3-0.2,0.5-0.6,0.7-1.1l0.3-0.9L479,100h1.6L482.8,106.5z"/>
		<path class="st4" d="M493.5,104.1v4.6H492V97h4.3c1.3,0,2.3,0.3,3,1s1.1,1.5,1.1,2.6c0,1.1-0.4,2-1.1,2.6s-1.7,0.9-3,0.9
			L493.5,104.1L493.5,104.1z M493.5,102.8h2.8c0.8,0,1.5-0.2,1.9-0.6s0.7-0.9,0.7-1.7c0-0.7-0.2-1.3-0.7-1.7s-1-0.6-1.8-0.7h-2.9
			V102.8z"/>
		<path class="st4" d="M501.6,104.3c0-0.8,0.2-1.6,0.5-2.3s0.8-1.2,1.4-1.6s1.3-0.6,2-0.6c1.2,0,2.1,0.4,2.9,1.2
			c0.7,0.8,1.1,1.9,1.1,3.3v0.1c0,0.8-0.2,1.6-0.5,2.3c-0.3,0.7-0.8,1.2-1.4,1.6s-1.3,0.6-2.1,0.6c-1.2,0-2.1-0.4-2.9-1.2
			C502,106.8,501.6,105.7,501.6,104.3L501.6,104.3L501.6,104.3z M503.1,104.4c0,1,0.2,1.7,0.7,2.3s1,0.9,1.8,0.9
			c0.8,0,1.4-0.3,1.8-0.9c0.5-0.6,0.7-1.4,0.7-2.5c0-0.9-0.2-1.7-0.7-2.3s-1-0.9-1.8-0.9c-0.7,0-1.3,0.3-1.8,0.9
			S503.1,103.4,503.1,104.4z"/>
		<path class="st4" d="M511,104.3c0-0.8,0.2-1.6,0.5-2.3s0.8-1.2,1.4-1.6s1.3-0.6,2-0.6c1.2,0,2.1,0.4,2.9,1.2s1.1,1.9,1.1,3.3v0.1
			c0,0.8-0.2,1.6-0.5,2.3c-0.3,0.7-0.8,1.2-1.4,1.6s-1.3,0.6-2.1,0.6c-1.2,0-2.1-0.4-2.9-1.2C511.4,106.8,511,105.7,511,104.3
			L511,104.3L511,104.3z M512.5,104.4c0,1,0.2,1.7,0.7,2.3s1,0.9,1.8,0.9s1.3-0.3,1.8-0.9c0.4-0.6,0.7-1.4,0.7-2.5
			c0-0.9-0.2-1.7-0.7-2.3s-1-0.9-1.8-0.9c-0.7,0-1.3,0.3-1.8,0.9C512.8,102.5,512.5,103.4,512.5,104.4z"/>
		<path class="st4" d="M522.4,108.7H521V96.3h1.5V108.7z"/>
	</g>
</g>
<g>
	<g>
		<path class="st5" d="M276.8,301.6c-4.6,0-8.4-3.8-8.4-8.4s3.8-8.4,8.4-8.4s8.4,3.8,8.4,8.4C285.2,297.9,281.4,301.6,276.8,301.6z
			 M276.8,285.4c-4.3,0-7.9,3.5-7.9,7.9c0,4.3,3.5,7.9,7.9,7.9s7.9-3.5,7.9-7.9S281.1,285.4,276.8,285.4z"/>
	</g>
	<g>
		<path class="st5" d="M278.4,288.7v1h-0.2c-0.9,0-1.6,0.3-2.1,0.8s-0.8,1.2-0.9,2.1c0.5-0.5,1.1-0.8,1.9-0.8c0.8,0,1.4,0.3,1.9,0.8
			s0.7,1.3,0.7,2.1c0,0.9-0.3,1.7-0.8,2.2c-0.5,0.5-1.2,0.8-2,0.8c-0.9,0-1.6-0.3-2.1-1s-0.8-1.5-0.8-2.5v-0.4
			c0-1.6,0.4-2.9,1.1-3.8c0.7-0.9,1.8-1.3,3.1-1.3H278.4z M276.9,292.7c-0.4,0-0.8,0.1-1.1,0.4s-0.6,0.5-0.7,0.9v0.4
			c0,0.7,0.2,1.3,0.5,1.8s0.8,0.7,1.3,0.7c0.5,0,0.9-0.2,1.2-0.6c0.3-0.4,0.4-0.9,0.4-1.5s-0.1-1.1-0.5-1.5S277.4,292.7,276.9,292.7
			z"/>
	</g>
</g>
<g>
	<g>
		<path class="st5" d="M400,170.9c-4.6,0-8.4-3.8-8.4-8.4s3.8-8.4,8.4-8.4s8.4,3.8,8.4,8.4C408.4,167.1,404.6,170.9,400,170.9z
			 M400,154.6c-4.3,0-7.9,3.5-7.9,7.9s3.5,7.9,7.9,7.9s7.9-3.5,7.9-7.9C407.8,158.1,404.3,154.6,400,154.6z"/>
	</g>
	<g>
		<path class="st5" d="M403.3,159.1l-3.7,8.3h-1.2l3.7-8h-4.9v-0.9h6.1V159.1z"/>
	</g>
</g>
</svg>
